<svg xmlns="http://www.w3.org/2000/svg" xmlns:xlink="http://www.w3.org/1999/xlink" width="800" zoomAndPan="magnify" viewBox="0 0 600 599.999999" height="800" preserveAspectRatio="xMidYMid meet" version="1.0"><defs><clipPath id="97753daceb"><path d="M 309 97.21875 L 347 97.21875 L 347 135 L 309 135 Z M 309 97.21875 " clip-rule="nonzero"/></clipPath></defs><g clip-path="url(#97753daceb)"><path fill="#172e58" d="M 346.695312 115.984375 C 346.695312 116.597656 346.664062 117.210938 346.605469 117.820312 C 346.542969 118.433594 346.453125 119.039062 346.332031 119.644531 C 346.214844 120.246094 346.066406 120.839844 345.886719 121.429688 C 345.707031 122.015625 345.5 122.59375 345.265625 123.164062 C 345.03125 123.730469 344.769531 124.285156 344.476562 124.828125 C 344.1875 125.371094 343.871094 125.894531 343.53125 126.40625 C 343.191406 126.917969 342.824219 127.410156 342.433594 127.886719 C 342.042969 128.359375 341.632812 128.816406 341.195312 129.25 C 340.761719 129.683594 340.308594 130.097656 339.832031 130.488281 C 339.355469 130.875 338.863281 131.242188 338.351562 131.582031 C 337.84375 131.925781 337.316406 132.242188 336.773438 132.53125 C 336.230469 132.820312 335.675781 133.082031 335.109375 133.316406 C 334.539062 133.550781 333.960938 133.757812 333.375 133.9375 C 332.785156 134.117188 332.191406 134.265625 331.585938 134.386719 C 330.984375 134.503906 330.378906 134.59375 329.765625 134.65625 C 329.152344 134.714844 328.539062 134.746094 327.925781 134.746094 C 327.3125 134.746094 326.699219 134.714844 326.085938 134.65625 C 325.476562 134.59375 324.867188 134.503906 324.265625 134.386719 C 323.660156 134.265625 323.066406 134.117188 322.476562 133.9375 C 321.890625 133.757812 321.3125 133.550781 320.742188 133.316406 C 320.175781 133.082031 319.621094 132.820312 319.078125 132.53125 C 318.535156 132.242188 318.011719 131.925781 317.5 131.582031 C 316.988281 131.242188 316.496094 130.875 316.019531 130.488281 C 315.542969 130.097656 315.089844 129.683594 314.65625 129.25 C 314.21875 128.816406 313.808594 128.359375 313.417969 127.886719 C 313.027344 127.410156 312.664062 126.917969 312.320312 126.40625 C 311.980469 125.894531 311.664062 125.371094 311.375 124.828125 C 311.085938 124.285156 310.820312 123.730469 310.585938 123.164062 C 310.351562 122.59375 310.144531 122.015625 309.964844 121.429688 C 309.789062 120.839844 309.636719 120.246094 309.519531 119.644531 C 309.398438 119.039062 309.308594 118.433594 309.25 117.820312 C 309.1875 117.210938 309.15625 116.597656 309.15625 115.984375 C 309.15625 115.367188 309.1875 114.753906 309.25 114.144531 C 309.308594 113.53125 309.398438 112.925781 309.519531 112.324219 C 309.636719 111.71875 309.789062 111.125 309.964844 110.535156 C 310.144531 109.949219 310.351562 109.371094 310.585938 108.804688 C 310.820312 108.234375 311.085938 107.679688 311.375 107.136719 C 311.664062 106.597656 311.980469 106.070312 312.320312 105.558594 C 312.664062 105.046875 313.027344 104.554688 313.417969 104.082031 C 313.808594 103.605469 314.21875 103.152344 314.65625 102.714844 C 315.089844 102.28125 315.542969 101.871094 316.019531 101.480469 C 316.496094 101.089844 316.988281 100.722656 317.5 100.382812 C 318.011719 100.042969 318.535156 99.726562 319.078125 99.4375 C 319.621094 99.144531 320.175781 98.882812 320.742188 98.648438 C 321.3125 98.414062 321.890625 98.207031 322.476562 98.027344 C 323.066406 97.851562 323.660156 97.699219 324.265625 97.582031 C 324.867188 97.460938 325.476562 97.371094 326.085938 97.3125 C 326.699219 97.25 327.3125 97.21875 327.925781 97.21875 C 328.539062 97.21875 329.152344 97.25 329.765625 97.3125 C 330.378906 97.371094 330.984375 97.460938 331.585938 97.582031 C 332.191406 97.699219 332.785156 97.851562 333.375 98.027344 C 333.960938 98.207031 334.539062 98.414062 335.109375 98.648438 C 335.675781 98.882812 336.230469 99.144531 336.773438 99.4375 C 337.316406 99.726562 337.84375 100.042969 338.351562 100.382812 C 338.863281 100.722656 339.355469 101.089844 339.832031 101.480469 C 340.308594 101.871094 340.761719 102.28125 341.195312 102.714844 C 341.632812 103.152344 342.042969 103.605469 342.433594 104.082031 C 342.824219 104.554688 343.191406 105.046875 343.53125 105.558594 C 343.871094 106.070312 344.1875 106.597656 344.476562 107.136719 C 344.769531 107.679688 345.03125 108.234375 345.265625 108.804688 C 345.5 109.371094 345.707031 109.949219 345.886719 110.535156 C 346.066406 111.125 346.214844 111.71875 346.332031 112.324219 C 346.453125 112.925781 346.542969 113.53125 346.605469 114.144531 C 346.664062 114.753906 346.695312 115.367188 346.695312 115.984375 Z M 346.695312 115.984375 " fill-opacity="1" fill-rule="nonzero"/></g><path fill="#172e58" d="M 406.871094 119.933594 C 406.871094 120.523438 406.839844 121.109375 406.785156 121.695312 C 406.726562 122.28125 406.640625 122.863281 406.523438 123.441406 C 406.410156 124.019531 406.265625 124.589844 406.09375 125.15625 C 405.925781 125.71875 405.726562 126.273438 405.5 126.816406 C 405.273438 127.359375 405.023438 127.894531 404.746094 128.414062 C 404.46875 128.929688 404.164062 129.4375 403.839844 129.925781 C 403.511719 130.414062 403.160156 130.886719 402.785156 131.34375 C 402.414062 131.800781 402.015625 132.234375 401.601562 132.652344 C 401.183594 133.066406 400.746094 133.464844 400.292969 133.835938 C 399.835938 134.210938 399.363281 134.5625 398.875 134.886719 C 398.382812 135.214844 397.878906 135.519531 397.359375 135.796875 C 396.839844 136.074219 396.308594 136.324219 395.765625 136.550781 C 395.21875 136.777344 394.664062 136.972656 394.101562 137.144531 C 393.539062 137.316406 392.964844 137.457031 392.390625 137.574219 C 391.8125 137.6875 391.230469 137.773438 390.640625 137.832031 C 390.054688 137.890625 389.46875 137.917969 388.878906 137.917969 C 388.289062 137.917969 387.703125 137.890625 387.117188 137.832031 C 386.527344 137.773438 385.945312 137.6875 385.367188 137.574219 C 384.792969 137.457031 384.21875 137.316406 383.65625 137.144531 C 383.09375 136.972656 382.539062 136.777344 381.992188 136.550781 C 381.449219 136.324219 380.917969 136.074219 380.398438 135.796875 C 379.878906 135.519531 379.375 135.214844 378.882812 134.886719 C 378.394531 134.5625 377.921875 134.210938 377.464844 133.835938 C 377.011719 133.464844 376.574219 133.066406 376.15625 132.652344 C 375.742188 132.234375 375.34375 131.800781 374.972656 131.34375 C 374.597656 130.886719 374.246094 130.414062 373.917969 129.925781 C 373.59375 129.4375 373.289062 128.929688 373.011719 128.414062 C 372.734375 127.894531 372.484375 127.359375 372.257812 126.816406 C 372.03125 126.273438 371.832031 125.71875 371.664062 125.15625 C 371.492188 124.589844 371.347656 124.019531 371.234375 123.441406 C 371.117188 122.863281 371.03125 122.28125 370.972656 121.695312 C 370.917969 121.109375 370.886719 120.523438 370.886719 119.933594 C 370.886719 119.34375 370.917969 118.757812 370.972656 118.171875 C 371.03125 117.585938 371.117188 117.003906 371.234375 116.425781 C 371.347656 115.847656 371.492188 115.277344 371.664062 114.710938 C 371.832031 114.148438 372.03125 113.59375 372.257812 113.050781 C 372.484375 112.507812 372.734375 111.976562 373.011719 111.457031 C 373.289062 110.9375 373.59375 110.429688 373.917969 109.941406 C 374.246094 109.453125 374.597656 108.980469 374.972656 108.523438 C 375.34375 108.070312 375.742188 107.632812 376.15625 107.214844 C 376.574219 106.800781 377.011719 106.40625 377.464844 106.03125 C 377.921875 105.65625 378.394531 105.304688 378.882812 104.980469 C 379.375 104.652344 379.878906 104.347656 380.398438 104.070312 C 380.917969 103.792969 381.449219 103.542969 381.992188 103.316406 C 382.539062 103.089844 383.09375 102.894531 383.65625 102.722656 C 384.21875 102.550781 384.792969 102.410156 385.367188 102.292969 C 385.945312 102.179688 386.527344 102.09375 387.117188 102.035156 C 387.703125 101.976562 388.289062 101.949219 388.878906 101.949219 C 389.46875 101.949219 390.054688 101.976562 390.640625 102.035156 C 391.230469 102.09375 391.8125 102.179688 392.390625 102.292969 C 392.964844 102.410156 393.539062 102.550781 394.101562 102.722656 C 394.664062 102.894531 395.21875 103.089844 395.765625 103.316406 C 396.308594 103.542969 396.839844 103.792969 397.359375 104.070312 C 397.878906 104.347656 398.382812 104.652344 398.875 104.980469 C 399.363281 105.304688 399.835938 105.65625 400.292969 106.03125 C 400.746094 106.40625 401.183594 106.800781 401.601562 107.214844 C 402.015625 107.632812 402.414062 108.070312 402.785156 108.523438 C 403.160156 108.980469 403.511719 109.453125 403.839844 109.941406 C 404.164062 110.429688 404.46875 110.9375 404.746094 111.457031 C 405.023438 111.976562 405.273438 112.507812 405.5 113.050781 C 405.726562 113.59375 405.925781 114.148438 406.09375 114.710938 C 406.265625 115.277344 406.410156 115.847656 406.523438 116.425781 C 406.640625 117.003906 406.726562 117.585938 406.785156 118.171875 C 406.839844 118.757812 406.871094 119.34375 406.871094 119.933594 Z M 406.871094 119.933594 " fill-opacity="1" fill-rule="nonzero"/><path fill="#172e58" d="M 278.453125 122.71875 C 278.453125 123.363281 278.421875 124.003906 278.359375 124.644531 C 278.296875 125.285156 278.203125 125.917969 278.078125 126.550781 C 277.949219 127.179688 277.796875 127.804688 277.609375 128.417969 C 277.421875 129.035156 277.207031 129.636719 276.957031 130.234375 C 276.710938 130.828125 276.4375 131.40625 276.136719 131.972656 C 275.832031 132.542969 275.5 133.09375 275.144531 133.625 C 274.785156 134.160156 274.402344 134.675781 273.996094 135.175781 C 273.589844 135.671875 273.15625 136.148438 272.703125 136.601562 C 272.246094 137.054688 271.769531 137.488281 271.273438 137.894531 C 270.777344 138.304688 270.261719 138.6875 269.726562 139.042969 C 269.191406 139.402344 268.640625 139.730469 268.074219 140.035156 C 267.503906 140.335938 266.925781 140.613281 266.332031 140.859375 C 265.734375 141.105469 265.132812 141.320312 264.515625 141.507812 C 263.898438 141.695312 263.277344 141.847656 262.644531 141.976562 C 262.015625 142.101562 261.378906 142.195312 260.738281 142.257812 C 260.101562 142.320312 259.457031 142.351562 258.816406 142.351562 C 258.171875 142.351562 257.53125 142.320312 256.890625 142.257812 C 256.25 142.195312 255.613281 142.101562 254.984375 141.976562 C 254.351562 141.847656 253.730469 141.695312 253.113281 141.507812 C 252.5 141.320312 251.894531 141.105469 251.300781 140.859375 C 250.707031 140.613281 250.125 140.335938 249.558594 140.035156 C 248.988281 139.730469 248.4375 139.402344 247.902344 139.042969 C 247.371094 138.6875 246.851562 138.304688 246.355469 137.894531 C 245.859375 137.488281 245.382812 137.054688 244.929688 136.601562 C 244.472656 136.148438 244.042969 135.671875 243.632812 135.175781 C 243.226562 134.675781 242.84375 134.160156 242.484375 133.625 C 242.128906 133.09375 241.796875 132.542969 241.496094 131.972656 C 241.191406 131.40625 240.917969 130.828125 240.671875 130.234375 C 240.425781 129.636719 240.207031 129.035156 240.023438 128.417969 C 239.835938 127.804688 239.679688 127.179688 239.554688 126.550781 C 239.429688 125.917969 239.332031 125.285156 239.269531 124.644531 C 239.207031 124.003906 239.175781 123.363281 239.175781 122.71875 C 239.175781 122.078125 239.207031 121.433594 239.269531 120.796875 C 239.332031 120.15625 239.429688 119.519531 239.554688 118.890625 C 239.679688 118.257812 239.835938 117.636719 240.023438 117.019531 C 240.207031 116.40625 240.425781 115.800781 240.671875 115.207031 C 240.917969 114.613281 241.191406 114.03125 241.496094 113.464844 C 241.796875 112.898438 242.128906 112.347656 242.484375 111.8125 C 242.84375 111.277344 243.226562 110.761719 243.632812 110.265625 C 244.042969 109.765625 244.472656 109.292969 244.929688 108.835938 C 245.382812 108.382812 245.859375 107.949219 246.355469 107.542969 C 246.851562 107.136719 247.371094 106.753906 247.902344 106.394531 C 248.4375 106.039062 248.988281 105.707031 249.558594 105.40625 C 250.125 105.101562 250.707031 104.828125 251.300781 104.582031 C 251.894531 104.335938 252.5 104.117188 253.113281 103.933594 C 253.730469 103.746094 254.351562 103.589844 254.984375 103.464844 C 255.613281 103.339844 256.25 103.242188 256.890625 103.179688 C 257.53125 103.117188 258.171875 103.085938 258.816406 103.085938 C 259.457031 103.085938 260.101562 103.117188 260.738281 103.179688 C 261.378906 103.242188 262.015625 103.339844 262.644531 103.464844 C 263.277344 103.589844 263.898438 103.746094 264.515625 103.933594 C 265.132812 104.117188 265.734375 104.335938 266.332031 104.582031 C 266.925781 104.828125 267.503906 105.101562 268.074219 105.40625 C 268.640625 105.707031 269.191406 106.039062 269.726562 106.394531 C 270.261719 106.753906 270.777344 107.136719 271.273438 107.542969 C 271.769531 107.949219 272.246094 108.382812 272.703125 108.835938 C 273.15625 109.292969 273.589844 109.765625 273.996094 110.265625 C 274.402344 110.761719 274.785156 111.277344 275.144531 111.8125 C 275.5 112.347656 275.832031 112.898438 276.136719 113.464844 C 276.4375 114.03125 276.710938 114.613281 276.957031 115.207031 C 277.207031 115.800781 277.421875 116.40625 277.609375 117.019531 C 277.796875 117.636719 277.949219 118.257812 278.078125 118.890625 C 278.203125 119.519531 278.296875 120.15625 278.359375 120.796875 C 278.421875 121.433594 278.453125 122.078125 278.453125 122.71875 Z M 278.453125 122.71875 " fill-opacity="1" fill-rule="nonzero"/><path fill="#172e58" d="M 215.050781 144.507812 C 215.050781 145.121094 215.019531 145.734375 214.960938 146.347656 C 214.898438 146.957031 214.808594 147.5625 214.6875 148.167969 C 214.570312 148.769531 214.421875 149.363281 214.242188 149.949219 C 214.0625 150.539062 213.855469 151.117188 213.621094 151.683594 C 213.386719 152.25 213.125 152.804688 212.835938 153.347656 C 212.546875 153.886719 212.230469 154.414062 211.890625 154.925781 C 211.546875 155.433594 211.183594 155.929688 210.792969 156.402344 C 210.402344 156.878906 209.992188 157.332031 209.554688 157.765625 C 209.121094 158.199219 208.667969 158.613281 208.191406 159 C 207.71875 159.390625 207.226562 159.757812 206.714844 160.097656 C 206.203125 160.4375 205.675781 160.753906 205.136719 161.042969 C 204.59375 161.332031 204.039062 161.59375 203.472656 161.832031 C 202.90625 162.066406 202.328125 162.273438 201.738281 162.449219 C 201.152344 162.628906 200.554688 162.777344 199.953125 162.898438 C 199.351562 163.015625 198.746094 163.105469 198.132812 163.167969 C 197.523438 163.226562 196.910156 163.257812 196.292969 163.257812 C 195.679688 163.257812 195.066406 163.226562 194.457031 163.167969 C 193.84375 163.105469 193.238281 163.015625 192.636719 162.898438 C 192.035156 162.777344 191.4375 162.628906 190.851562 162.449219 C 190.261719 162.273438 189.683594 162.066406 189.117188 161.832031 C 188.550781 161.59375 187.996094 161.332031 187.453125 161.042969 C 186.914062 160.753906 186.386719 160.4375 185.875 160.097656 C 185.363281 159.757812 184.871094 159.390625 184.398438 159 C 183.921875 158.613281 183.46875 158.199219 183.035156 157.765625 C 182.597656 157.332031 182.1875 156.878906 181.796875 156.402344 C 181.40625 155.929688 181.042969 155.433594 180.699219 154.925781 C 180.359375 154.414062 180.042969 153.886719 179.753906 153.347656 C 179.464844 152.804688 179.203125 152.25 178.96875 151.683594 C 178.734375 151.117188 178.527344 150.539062 178.347656 149.949219 C 178.167969 149.363281 178.019531 148.769531 177.902344 148.167969 C 177.78125 147.5625 177.691406 146.957031 177.628906 146.347656 C 177.570312 145.734375 177.539062 145.121094 177.539062 144.507812 C 177.539062 143.894531 177.570312 143.28125 177.628906 142.671875 C 177.691406 142.058594 177.78125 141.453125 177.902344 140.851562 C 178.019531 140.25 178.167969 139.652344 178.347656 139.066406 C 178.527344 138.476562 178.734375 137.902344 178.96875 137.332031 C 179.203125 136.765625 179.464844 136.210938 179.753906 135.671875 C 180.042969 135.128906 180.359375 134.601562 180.699219 134.09375 C 181.042969 133.582031 181.40625 133.089844 181.796875 132.613281 C 182.1875 132.140625 182.597656 131.683594 183.035156 131.25 C 183.46875 130.816406 183.921875 130.40625 184.398438 130.015625 C 184.871094 129.625 185.363281 129.261719 185.875 128.917969 C 186.386719 128.578125 186.914062 128.261719 187.453125 127.972656 C 187.996094 127.683594 188.550781 127.421875 189.117188 127.1875 C 189.683594 126.953125 190.261719 126.746094 190.851562 126.566406 C 191.4375 126.386719 192.035156 126.238281 192.636719 126.121094 C 193.238281 126 193.84375 125.910156 194.457031 125.851562 C 195.066406 125.789062 195.679688 125.757812 196.292969 125.757812 C 196.910156 125.757812 197.523438 125.789062 198.132812 125.851562 C 198.746094 125.910156 199.351562 126 199.953125 126.121094 C 200.554688 126.238281 201.152344 126.386719 201.738281 126.566406 C 202.328125 126.746094 202.90625 126.953125 203.472656 127.1875 C 204.039062 127.421875 204.59375 127.683594 205.136719 127.972656 C 205.675781 128.261719 206.203125 128.578125 206.714844 128.917969 C 207.226562 129.261719 207.71875 129.625 208.191406 130.015625 C 208.667969 130.40625 209.121094 130.816406 209.554688 131.25 C 209.992188 131.683594 210.402344 132.140625 210.792969 132.613281 C 211.183594 133.089844 211.546875 133.582031 211.890625 134.09375 C 212.230469 134.601562 212.546875 135.128906 212.835938 135.671875 C 213.125 136.210938 213.386719 136.765625 213.621094 137.332031 C 213.855469 137.902344 214.0625 138.476562 214.242188 139.066406 C 214.421875 139.652344 214.570312 140.25 214.6875 140.851562 C 214.808594 141.453125 214.898438 142.058594 214.960938 142.671875 C 215.019531 143.28125 215.050781 143.894531 215.050781 144.507812 Z M 215.050781 144.507812 " fill-opacity="1" fill-rule="nonzero"/><path fill="#172e58" d="M 460 142.632812 C 460 143.1875 459.972656 143.738281 459.917969 144.285156 C 459.863281 144.835938 459.785156 145.382812 459.675781 145.921875 C 459.566406 146.464844 459.433594 147 459.273438 147.527344 C 459.113281 148.054688 458.925781 148.574219 458.714844 149.085938 C 458.503906 149.597656 458.269531 150.09375 458.007812 150.582031 C 457.746094 151.070312 457.464844 151.542969 457.15625 152 C 456.851562 152.460938 456.523438 152.902344 456.171875 153.328125 C 455.820312 153.757812 455.449219 154.164062 455.058594 154.554688 C 454.667969 154.945312 454.261719 155.316406 453.832031 155.667969 C 453.40625 156.015625 452.964844 156.347656 452.503906 156.652344 C 452.042969 156.960938 451.570312 157.242188 451.085938 157.503906 C 450.597656 157.761719 450.097656 158 449.589844 158.210938 C 449.078125 158.421875 448.558594 158.609375 448.03125 158.769531 C 447.5 158.929688 446.964844 159.0625 446.425781 159.171875 C 445.882812 159.277344 445.335938 159.359375 444.785156 159.414062 C 444.238281 159.46875 443.6875 159.496094 443.132812 159.496094 C 442.582031 159.496094 442.03125 159.46875 441.480469 159.414062 C 440.929688 159.359375 440.386719 159.277344 439.84375 159.171875 C 439.300781 159.0625 438.765625 158.929688 438.238281 158.769531 C 437.710938 158.609375 437.191406 158.421875 436.679688 158.210938 C 436.167969 158 435.671875 157.761719 435.183594 157.503906 C 434.695312 157.242188 434.222656 156.960938 433.761719 156.652344 C 433.304688 156.347656 432.859375 156.015625 432.433594 155.667969 C 432.007812 155.316406 431.597656 154.945312 431.207031 154.554688 C 430.816406 154.164062 430.445312 153.757812 430.097656 153.328125 C 429.746094 152.902344 429.417969 152.460938 429.109375 152 C 428.804688 151.542969 428.519531 151.070312 428.257812 150.582031 C 428 150.09375 427.761719 149.597656 427.550781 149.085938 C 427.339844 148.574219 427.15625 148.054688 426.992188 147.527344 C 426.832031 147 426.699219 146.464844 426.59375 145.921875 C 426.484375 145.382812 426.402344 144.835938 426.347656 144.285156 C 426.296875 143.738281 426.269531 143.1875 426.269531 142.632812 C 426.269531 142.082031 426.296875 141.53125 426.347656 140.980469 C 426.402344 140.429688 426.484375 139.886719 426.59375 139.34375 C 426.699219 138.800781 426.832031 138.265625 426.992188 137.738281 C 427.15625 137.210938 427.339844 136.691406 427.550781 136.179688 C 427.761719 135.671875 428 135.171875 428.257812 134.683594 C 428.519531 134.199219 428.804688 133.726562 429.109375 133.265625 C 429.417969 132.808594 429.746094 132.363281 430.097656 131.9375 C 430.445312 131.511719 430.816406 131.101562 431.207031 130.710938 C 431.597656 130.320312 432.007812 129.949219 432.433594 129.601562 C 432.859375 129.25 433.304688 128.921875 433.761719 128.613281 C 434.222656 128.308594 434.695312 128.023438 435.183594 127.761719 C 435.671875 127.503906 436.167969 127.265625 436.679688 127.054688 C 437.191406 126.84375 437.710938 126.660156 438.238281 126.5 C 438.765625 126.339844 439.300781 126.203125 439.84375 126.097656 C 440.386719 125.988281 440.929688 125.90625 441.480469 125.855469 C 442.03125 125.800781 442.582031 125.773438 443.132812 125.773438 C 443.6875 125.773438 444.238281 125.800781 444.785156 125.855469 C 445.335938 125.90625 445.882812 125.988281 446.425781 126.097656 C 446.964844 126.203125 447.5 126.339844 448.03125 126.5 C 448.558594 126.660156 449.078125 126.84375 449.589844 127.054688 C 450.097656 127.265625 450.597656 127.503906 451.085938 127.761719 C 451.570312 128.023438 452.042969 128.308594 452.503906 128.613281 C 452.964844 128.921875 453.40625 129.25 453.832031 129.601562 C 454.261719 129.949219 454.667969 130.320312 455.058594 130.710938 C 455.449219 131.101562 455.820312 131.511719 456.171875 131.9375 C 456.523438 132.363281 456.851562 132.808594 457.15625 133.265625 C 457.464844 133.726562 457.746094 134.199219 458.007812 134.683594 C 458.269531 135.171875 458.503906 135.671875 458.714844 136.179688 C 458.925781 136.691406 459.113281 137.210938 459.273438 137.738281 C 459.433594 138.265625 459.566406 138.800781 459.675781 139.34375 C 459.785156 139.886719 459.863281 140.429688 459.917969 140.980469 C 459.972656 141.53125 460 142.082031 460 142.632812 Z M 460 142.632812 " fill-opacity="1" fill-rule="nonzero"/><path fill="#fed700" d="M 496.917969 257.324219 C 508.011719 282.3125 515.085938 308.777344 520.324219 335.5625 C 527.542969 372.414062 531.949219 409.621094 533.542969 447.15625 C 533.945312 456.398438 535.125 475.976562 521.476562 476.445312 C 515.875 476.632812 507.71875 475.640625 504.824219 470.648438 C 503.980469 469.175781 503.578125 466.832031 503.632812 463.628906 C 503.914062 446.191406 502.894531 431.796875 501.96875 415.875 C 501.460938 406.886719 500.28125 398.023438 499.222656 389.089844 C 494.535156 348.886719 485.25 309.136719 469.550781 272.296875 C 466.324219 264.730469 463.160156 258.328125 460.078125 253.105469 C 418.335938 182.355469 330.980469 168.5625 257.945312 192.519531 C 227.253906 202.589844 199.777344 217.949219 175.515625 238.628906 C 155.464844 255.703125 140.417969 279.554688 129.59375 303.511719 C 106.191406 355.273438 94.914062 410.328125 88.628906 468.332031 C 88.320312 471.167969 87.140625 473.660156 85.078125 475.832031 C 75.246094 486.140625 59.34375 479.03125 57.308594 465.90625 C 56.71875 462.128906 56.757812 454.550781 57.402344 443.152344 C 57.816406 435.882812 58.753906 427.445312 60.203125 417.867188 C 68.160156 365.4375 89.5 313.609375 116.144531 267.917969 C 136.453125 233.109375 164.503906 203.808594 198.90625 184.136719 C 230.683594 165.960938 264.402344 155.128906 300.035156 151.644531 C 311.433594 150.519531 324.1875 150.292969 338.292969 150.964844 C 407.6875 154.21875 468.585938 193.550781 496.90625 257.351562 Z M 496.917969 257.324219 " fill-opacity="1" fill-rule="nonzero"/><path fill="#172e58" d="M 508.574219 176.113281 C 508.574219 176.667969 508.546875 177.21875 508.492188 177.769531 C 508.4375 178.316406 508.359375 178.863281 508.25 179.40625 C 508.140625 179.949219 508.007812 180.484375 507.847656 181.011719 C 507.6875 181.539062 507.5 182.0625 507.289062 182.570312 C 507.078125 183.082031 506.84375 183.582031 506.582031 184.066406 C 506.320312 184.554688 506.035156 185.027344 505.730469 185.488281 C 505.421875 185.949219 505.09375 186.390625 504.742188 186.820312 C 504.390625 187.246094 504.019531 187.65625 503.628906 188.046875 C 503.238281 188.4375 502.832031 188.808594 502.402344 189.15625 C 501.976562 189.507812 501.53125 189.835938 501.074219 190.144531 C 500.613281 190.449219 500.140625 190.734375 499.652344 190.996094 C 499.164062 191.257812 498.664062 191.492188 498.15625 191.703125 C 497.644531 191.914062 497.125 192.101562 496.59375 192.261719 C 496.066406 192.421875 495.53125 192.554688 494.988281 192.664062 C 494.445312 192.773438 493.898438 192.851562 493.347656 192.90625 C 492.800781 192.960938 492.246094 192.988281 491.695312 192.988281 C 491.140625 192.988281 490.589844 192.960938 490.039062 192.90625 C 489.492188 192.851562 488.945312 192.773438 488.402344 192.664062 C 487.859375 192.554688 487.324219 192.421875 486.796875 192.261719 C 486.265625 192.101562 485.746094 191.914062 485.234375 191.703125 C 484.726562 191.492188 484.226562 191.257812 483.738281 190.996094 C 483.25 190.734375 482.777344 190.449219 482.316406 190.144531 C 481.859375 189.835938 481.414062 189.507812 480.988281 189.15625 C 480.558594 188.808594 480.152344 188.4375 479.757812 188.046875 C 479.367188 187.65625 478.996094 187.246094 478.648438 186.820312 C 478.296875 186.390625 477.96875 185.949219 477.660156 185.488281 C 477.351562 185.027344 477.070312 184.554688 476.808594 184.066406 C 476.546875 183.582031 476.3125 183.082031 476.101562 182.570312 C 475.890625 182.0625 475.703125 181.539062 475.542969 181.011719 C 475.382812 180.484375 475.246094 179.949219 475.140625 179.40625 C 475.03125 178.863281 474.953125 178.316406 474.898438 177.769531 C 474.84375 177.21875 474.816406 176.667969 474.816406 176.113281 C 474.816406 175.5625 474.84375 175.011719 474.898438 174.460938 C 474.953125 173.910156 475.03125 173.363281 475.140625 172.820312 C 475.246094 172.28125 475.382812 171.746094 475.542969 171.214844 C 475.703125 170.6875 475.890625 170.167969 476.101562 169.65625 C 476.3125 169.144531 476.546875 168.648438 476.808594 168.160156 C 477.070312 167.671875 477.351562 167.199219 477.660156 166.738281 C 477.96875 166.28125 478.296875 165.835938 478.648438 165.410156 C 478.996094 164.980469 479.367188 164.574219 479.757812 164.183594 C 480.152344 163.792969 480.558594 163.421875 480.988281 163.070312 C 481.414062 162.71875 481.859375 162.390625 482.316406 162.082031 C 482.777344 161.777344 483.25 161.492188 483.738281 161.230469 C 484.226562 160.972656 484.726562 160.734375 485.234375 160.523438 C 485.746094 160.3125 486.265625 160.125 486.796875 159.964844 C 487.324219 159.804688 487.859375 159.671875 488.402344 159.5625 C 488.945312 159.457031 489.492188 159.375 490.039062 159.320312 C 490.589844 159.265625 491.140625 159.238281 491.695312 159.238281 C 492.246094 159.238281 492.800781 159.265625 493.347656 159.320312 C 493.898438 159.375 494.445312 159.457031 494.988281 159.5625 C 495.53125 159.671875 496.066406 159.804688 496.59375 159.964844 C 497.125 160.125 497.644531 160.3125 498.15625 160.523438 C 498.664062 160.734375 499.164062 160.972656 499.652344 161.230469 C 500.140625 161.492188 500.613281 161.777344 501.074219 162.082031 C 501.53125 162.390625 501.976562 162.71875 502.402344 163.070312 C 502.832031 163.421875 503.238281 163.792969 503.628906 164.183594 C 504.019531 164.574219 504.390625 164.980469 504.742188 165.410156 C 505.09375 165.835938 505.421875 166.28125 505.730469 166.738281 C 506.035156 167.199219 506.320312 167.671875 506.582031 168.160156 C 506.839844 168.648438 507.078125 169.144531 507.289062 169.65625 C 507.5 170.167969 507.6875 170.6875 507.847656 171.214844 C 508.007812 171.746094 508.140625 172.28125 508.25 172.820312 C 508.359375 173.363281 508.4375 173.910156 508.492188 174.460938 C 508.546875 175.011719 508.574219 175.5625 508.574219 176.113281 Z M 508.574219 176.113281 " fill-opacity="1" fill-rule="nonzero"/><path fill="#172e58" d="M 155.878906 182.246094 C 155.878906 182.800781 155.851562 183.351562 155.796875 183.902344 C 155.742188 184.453125 155.660156 185 155.554688 185.542969 C 155.445312 186.085938 155.3125 186.621094 155.152344 187.148438 C 154.992188 187.679688 154.804688 188.199219 154.59375 188.710938 C 154.378906 189.222656 154.144531 189.71875 153.882812 190.207031 C 153.621094 190.695312 153.339844 191.167969 153.03125 191.628906 C 152.722656 192.089844 152.394531 192.53125 152.042969 192.960938 C 151.691406 193.386719 151.320312 193.796875 150.929688 194.1875 C 150.539062 194.578125 150.128906 194.949219 149.703125 195.300781 C 149.273438 195.652344 148.832031 195.980469 148.371094 196.289062 C 147.910156 196.597656 147.4375 196.878906 146.949219 197.140625 C 146.460938 197.402344 145.960938 197.636719 145.449219 197.847656 C 144.9375 198.0625 144.417969 198.246094 143.890625 198.40625 C 143.359375 198.566406 142.824219 198.703125 142.28125 198.808594 C 141.738281 198.917969 141.191406 199 140.640625 199.054688 C 140.089844 199.109375 139.539062 199.136719 138.984375 199.136719 C 138.433594 199.136719 137.878906 199.109375 137.328125 199.054688 C 136.78125 199 136.234375 198.917969 135.691406 198.808594 C 135.148438 198.703125 134.613281 198.566406 134.082031 198.40625 C 133.550781 198.246094 133.03125 198.0625 132.519531 197.847656 C 132.011719 197.636719 131.511719 197.402344 131.023438 197.140625 C 130.535156 196.878906 130.0625 196.597656 129.601562 196.289062 C 129.140625 195.980469 128.695312 195.652344 128.269531 195.300781 C 127.839844 194.949219 127.433594 194.578125 127.039062 194.1875 C 126.648438 193.796875 126.277344 193.386719 125.925781 192.960938 C 125.578125 192.53125 125.246094 192.089844 124.941406 191.628906 C 124.632812 191.167969 124.347656 190.695312 124.085938 190.207031 C 123.828125 189.71875 123.589844 189.222656 123.378906 188.710938 C 123.167969 188.199219 122.980469 187.679688 122.820312 187.148438 C 122.660156 186.621094 122.527344 186.085938 122.417969 185.542969 C 122.308594 185 122.230469 184.453125 122.175781 183.902344 C 122.121094 183.351562 122.09375 182.800781 122.09375 182.246094 C 122.09375 181.695312 122.121094 181.144531 122.175781 180.59375 C 122.230469 180.042969 122.308594 179.496094 122.417969 178.953125 C 122.527344 178.410156 122.660156 177.875 122.820312 177.34375 C 122.980469 176.816406 123.167969 176.296875 123.378906 175.785156 C 123.589844 175.273438 123.828125 174.773438 124.085938 174.285156 C 124.347656 173.800781 124.632812 173.324219 124.941406 172.863281 C 125.246094 172.40625 125.578125 171.960938 125.925781 171.535156 C 126.277344 171.105469 126.648438 170.695312 127.039062 170.304688 C 127.433594 169.914062 127.839844 169.542969 128.269531 169.191406 C 128.695312 168.84375 129.140625 168.511719 129.601562 168.207031 C 130.0625 167.898438 130.535156 167.613281 131.023438 167.355469 C 131.511719 167.09375 132.011719 166.855469 132.519531 166.644531 C 133.03125 166.433594 133.550781 166.246094 134.082031 166.085938 C 134.613281 165.925781 135.148438 165.792969 135.691406 165.683594 C 136.234375 165.578125 136.78125 165.496094 137.328125 165.441406 C 137.878906 165.386719 138.433594 165.359375 138.984375 165.359375 C 139.539062 165.359375 140.089844 165.386719 140.640625 165.441406 C 141.191406 165.496094 141.738281 165.578125 142.28125 165.683594 C 142.824219 165.792969 143.359375 165.925781 143.890625 166.085938 C 144.417969 166.246094 144.9375 166.433594 145.449219 166.644531 C 145.960938 166.855469 146.460938 167.09375 146.949219 167.355469 C 147.4375 167.613281 147.910156 167.898438 148.371094 168.207031 C 148.832031 168.511719 149.273438 168.84375 149.703125 169.191406 C 150.128906 169.542969 150.539062 169.914062 150.929688 170.304688 C 151.320312 170.695312 151.691406 171.105469 152.042969 171.535156 C 152.394531 171.960938 152.722656 172.40625 153.03125 172.863281 C 153.339844 173.324219 153.621094 173.800781 153.882812 174.285156 C 154.144531 174.773438 154.378906 175.273438 154.59375 175.785156 C 154.804688 176.296875 154.992188 176.816406 155.152344 177.34375 C 155.3125 177.875 155.445312 178.410156 155.554688 178.953125 C 155.660156 179.496094 155.742188 180.042969 155.796875 180.59375 C 155.851562 181.144531 155.878906 181.695312 155.878906 182.246094 Z M 155.878906 182.246094 " fill-opacity="1" fill-rule="nonzero"/><path fill="#fe7e00" d="M 290.1875 227.753906 C 211.953125 240.972656 166.515625 297.21875 143.539062 369.269531 C 132.902344 402.613281 126.3125 436.738281 123.792969 471.636719 C 123.539062 475.082031 123.070312 477.597656 122.359375 479.179688 C 116.304688 492.785156 96.894531 489.746094 94.402344 475.574219 C 94.136719 474.035156 94.175781 470.070312 94.511719 463.683594 C 96.210938 431.410156 101.636719 399.75 110.761719 368.71875 C 134.617188 287.589844 186.648438 222.664062 271.675781 201.761719 C 294.90625 196.054688 318.910156 193.699219 343.695312 194.714844 C 347.550781 194.875 353.6875 195.8125 362.125 197.542969 C 475.257812 220.710938 494.496094 384.121094 492.753906 474.464844 C 492.566406 484.148438 486 487.613281 477.027344 487.507812 C 468.210938 487.414062 464.769531 480.222656 463.414062 472.589844 C 460.992188 458.875 461.125 445.054688 460.683594 431.195312 C 460.363281 421.125 459.316406 410.972656 458.621094 400.835938 C 457.894531 390.574219 455.875 376.902344 452.566406 359.8125 C 448.761719 340.195312 443.226562 321.5 435.964844 303.753906 C 429.535156 288.046875 420.28125 271.265625 408.757812 258.878906 C 377.410156 225.15625 333.832031 220.375 290.203125 227.753906 Z M 290.1875 227.753906 " fill-opacity="1" fill-rule="nonzero"/><path fill="#172e58" d="M 540.566406 228.464844 C 540.566406 229.015625 540.539062 229.566406 540.484375 230.117188 C 540.429688 230.667969 540.347656 231.214844 540.238281 231.753906 C 540.132812 232.296875 540 232.832031 539.835938 233.363281 C 539.675781 233.890625 539.492188 234.410156 539.28125 234.921875 C 539.066406 235.433594 538.832031 235.929688 538.570312 236.417969 C 538.3125 236.90625 538.027344 237.378906 537.71875 237.839844 C 537.414062 238.296875 537.082031 238.742188 536.734375 239.167969 C 536.382812 239.597656 536.011719 240.003906 535.621094 240.394531 C 535.230469 240.785156 534.820312 241.15625 534.394531 241.507812 C 533.964844 241.859375 533.523438 242.1875 533.0625 242.492188 C 532.601562 242.800781 532.128906 243.085938 531.640625 243.34375 C 531.15625 243.605469 530.65625 243.84375 530.144531 244.054688 C 529.632812 244.265625 529.113281 244.449219 528.585938 244.609375 C 528.054688 244.773438 527.519531 244.90625 526.976562 245.011719 C 526.4375 245.121094 525.890625 245.203125 525.339844 245.257812 C 524.789062 245.3125 524.238281 245.335938 523.683594 245.335938 C 523.132812 245.335938 522.582031 245.3125 522.03125 245.257812 C 521.480469 245.203125 520.933594 245.121094 520.390625 245.011719 C 519.851562 244.90625 519.316406 244.773438 518.785156 244.609375 C 518.257812 244.449219 517.738281 244.265625 517.226562 244.054688 C 516.714844 243.84375 516.214844 243.605469 515.726562 243.34375 C 515.242188 243.085938 514.765625 242.800781 514.308594 242.492188 C 513.847656 242.1875 513.40625 241.859375 512.976562 241.507812 C 512.550781 241.15625 512.140625 240.785156 511.75 240.394531 C 511.359375 240.003906 510.988281 239.597656 510.636719 239.167969 C 510.285156 238.742188 509.957031 238.296875 509.652344 237.839844 C 509.34375 237.378906 509.058594 236.90625 508.800781 236.417969 C 508.539062 235.929688 508.300781 235.433594 508.089844 234.921875 C 507.878906 234.410156 507.691406 233.890625 507.53125 233.363281 C 507.371094 232.832031 507.238281 232.296875 507.128906 231.753906 C 507.023438 231.214844 506.941406 230.667969 506.886719 230.117188 C 506.832031 229.566406 506.804688 229.015625 506.804688 228.464844 C 506.804688 227.910156 506.832031 227.359375 506.886719 226.808594 C 506.941406 226.261719 507.023438 225.714844 507.128906 225.171875 C 507.238281 224.628906 507.371094 224.09375 507.53125 223.566406 C 507.691406 223.035156 507.878906 222.515625 508.089844 222.007812 C 508.300781 221.496094 508.539062 220.996094 508.800781 220.507812 C 509.058594 220.023438 509.34375 219.546875 509.652344 219.089844 C 509.957031 218.628906 510.285156 218.1875 510.636719 217.757812 C 510.988281 217.332031 511.359375 216.921875 511.75 216.53125 C 512.140625 216.140625 512.550781 215.769531 512.976562 215.417969 C 513.40625 215.070312 513.847656 214.742188 514.308594 214.433594 C 514.765625 214.125 515.242188 213.84375 515.726562 213.582031 C 516.214844 213.320312 516.714844 213.085938 517.226562 212.875 C 517.738281 212.664062 518.257812 212.476562 518.785156 212.316406 C 519.316406 212.15625 519.851562 212.023438 520.390625 211.914062 C 520.933594 211.804688 521.480469 211.726562 522.03125 211.671875 C 522.582031 211.617188 523.132812 211.589844 523.683594 211.589844 C 524.238281 211.589844 524.789062 211.617188 525.339844 211.671875 C 525.890625 211.726562 526.4375 211.804688 526.976562 211.914062 C 527.519531 212.023438 528.054688 212.15625 528.585938 212.316406 C 529.113281 212.476562 529.632812 212.664062 530.144531 212.875 C 530.65625 213.085938 531.15625 213.320312 531.640625 213.582031 C 532.128906 213.84375 532.601562 214.125 533.0625 214.433594 C 533.523438 214.742188 533.964844 215.070312 534.394531 215.417969 C 534.820312 215.769531 535.230469 216.140625 535.621094 216.53125 C 536.011719 216.921875 536.382812 217.332031 536.734375 217.757812 C 537.082031 218.1875 537.414062 218.628906 537.71875 219.089844 C 538.027344 219.546875 538.3125 220.023438 538.570312 220.507812 C 538.832031 220.996094 539.066406 221.496094 539.28125 222.007812 C 539.492188 222.515625 539.675781 223.035156 539.835938 223.566406 C 540 224.09375 540.132812 224.628906 540.238281 225.171875 C 540.347656 225.714844 540.429688 226.261719 540.484375 226.808594 C 540.539062 227.359375 540.566406 227.910156 540.566406 228.464844 Z M 540.566406 228.464844 " fill-opacity="1" fill-rule="nonzero"/><path fill="#172e58" d="M 113.933594 234.785156 C 113.933594 235.339844 113.90625 235.890625 113.851562 236.441406 C 113.800781 236.992188 113.71875 237.535156 113.609375 238.078125 C 113.503906 238.621094 113.367188 239.15625 113.207031 239.6875 C 113.046875 240.214844 112.859375 240.738281 112.648438 241.246094 C 112.4375 241.757812 112.199219 242.257812 111.941406 242.746094 C 111.679688 243.234375 111.394531 243.707031 111.085938 244.167969 C 110.78125 244.625 110.453125 245.070312 110.101562 245.5 C 109.75 245.925781 109.378906 246.335938 108.988281 246.726562 C 108.597656 247.117188 108.1875 247.488281 107.757812 247.839844 C 107.332031 248.191406 106.886719 248.519531 106.425781 248.828125 C 105.96875 249.132812 105.492188 249.417969 105.003906 249.679688 C 104.515625 249.9375 104.019531 250.175781 103.507812 250.386719 C 102.996094 250.597656 102.476562 250.785156 101.945312 250.945312 C 101.417969 251.105469 100.878906 251.238281 100.335938 251.347656 C 99.796875 251.457031 99.25 251.535156 98.699219 251.589844 C 98.148438 251.644531 97.59375 251.671875 97.042969 251.671875 C 96.488281 251.671875 95.9375 251.644531 95.386719 251.589844 C 94.835938 251.535156 94.289062 251.457031 93.746094 251.347656 C 93.203125 251.238281 92.667969 251.105469 92.136719 250.945312 C 91.609375 250.785156 91.089844 250.597656 90.578125 250.386719 C 90.066406 250.175781 89.566406 249.9375 89.078125 249.679688 C 88.589844 249.417969 88.117188 249.132812 87.65625 248.828125 C 87.195312 248.519531 86.753906 248.191406 86.324219 247.839844 C 85.898438 247.488281 85.488281 247.117188 85.097656 246.726562 C 84.707031 246.335938 84.335938 245.925781 83.984375 245.5 C 83.632812 245.070312 83.304688 244.625 82.996094 244.167969 C 82.6875 243.707031 82.40625 243.234375 82.144531 242.746094 C 81.882812 242.257812 81.648438 241.757812 81.433594 241.246094 C 81.222656 240.738281 81.039062 240.214844 80.875 239.6875 C 80.714844 239.15625 80.582031 238.621094 80.472656 238.078125 C 80.367188 237.535156 80.285156 236.992188 80.230469 236.441406 C 80.175781 235.890625 80.148438 235.339844 80.148438 234.785156 C 80.148438 234.230469 80.175781 233.679688 80.230469 233.128906 C 80.285156 232.578125 80.367188 232.03125 80.472656 231.488281 C 80.582031 230.949219 80.714844 230.410156 80.875 229.882812 C 81.039062 229.351562 81.222656 228.832031 81.433594 228.320312 C 81.648438 227.8125 81.882812 227.3125 82.144531 226.824219 C 82.40625 226.335938 82.6875 225.863281 82.996094 225.402344 C 83.304688 224.941406 83.632812 224.5 83.984375 224.070312 C 84.335938 223.644531 84.707031 223.234375 85.097656 222.84375 C 85.488281 222.453125 85.898438 222.082031 86.324219 221.730469 C 86.753906 221.378906 87.195312 221.050781 87.65625 220.742188 C 88.117188 220.4375 88.589844 220.152344 89.078125 219.890625 C 89.566406 219.628906 90.066406 219.394531 90.578125 219.183594 C 91.089844 218.972656 91.609375 218.785156 92.136719 218.625 C 92.667969 218.464844 93.203125 218.328125 93.746094 218.222656 C 94.289062 218.113281 94.835938 218.03125 95.386719 217.980469 C 95.9375 217.925781 96.488281 217.898438 97.042969 217.898438 C 97.59375 217.898438 98.148438 217.925781 98.699219 217.980469 C 99.25 218.03125 99.796875 218.113281 100.335938 218.222656 C 100.878906 218.328125 101.417969 218.464844 101.945312 218.625 C 102.476562 218.785156 102.996094 218.972656 103.507812 219.183594 C 104.019531 219.394531 104.515625 219.628906 105.003906 219.890625 C 105.492188 220.152344 105.96875 220.4375 106.425781 220.742188 C 106.886719 221.050781 107.332031 221.378906 107.757812 221.730469 C 108.1875 222.082031 108.597656 222.453125 108.988281 222.84375 C 109.378906 223.234375 109.75 223.644531 110.101562 224.070312 C 110.453125 224.5 110.78125 224.941406 111.085938 225.402344 C 111.394531 225.863281 111.679688 226.335938 111.941406 226.824219 C 112.199219 227.3125 112.4375 227.8125 112.648438 228.320312 C 112.859375 228.832031 113.046875 229.351562 113.207031 229.882812 C 113.367188 230.410156 113.503906 230.949219 113.609375 231.488281 C 113.71875 232.03125 113.800781 232.578125 113.851562 233.128906 C 113.90625 233.679688 113.933594 234.230469 113.933594 234.785156 Z M 113.933594 234.785156 " fill-opacity="1" fill-rule="nonzero"/><path fill="#dc3731" d="M 166.40625 332.292969 C 187.722656 286.597656 226.503906 254.804688 275.667969 242.886719 C 330.5 229.601562 388.796875 246.863281 417.988281 296.832031 C 432.148438 321.058594 441.015625 348.148438 446.320312 375.617188 C 452.496094 407.53125 455.257812 439.738281 454.628906 472.226562 C 454.574219 475.242188 455.054688 481.722656 454.226562 484.386719 C 450.40625 496.65625 431.050781 495.839844 426.308594 484.9375 C 425.449219 482.980469 425.050781 479.6875 425.089844 475.054688 C 425.636719 410.90625 413.140625 289.128906 333.78125 269.136719 C 313.671875 264.074219 291.113281 265.921875 271.167969 271.492188 C 185.175781 295.464844 166.714844 400.445312 167.277344 475.269531 C 167.359375 486.234375 153.375 487.628906 146.355469 482.980469 C 140.714844 479.257812 139.761719 474.0625 139.640625 467.097656 C 138.851562 421.726562 146.835938 374.25 166.421875 332.292969 Z M 166.40625 332.292969 " fill-opacity="1" fill-rule="nonzero"/><path fill="#172e58" d="M 83.550781 290.226562 C 83.550781 290.78125 83.523438 291.332031 83.472656 291.882812 C 83.417969 292.433594 83.335938 292.980469 83.226562 293.523438 C 83.121094 294.066406 82.984375 294.601562 82.824219 295.128906 C 82.664062 295.660156 82.476562 296.179688 82.265625 296.691406 C 82.054688 297.203125 81.816406 297.703125 81.558594 298.1875 C 81.296875 298.675781 81.011719 299.152344 80.707031 299.609375 C 80.398438 300.070312 80.070312 300.515625 79.71875 300.941406 C 79.367188 301.371094 78.996094 301.777344 78.605469 302.167969 C 78.214844 302.5625 77.804688 302.929688 77.375 303.28125 C 76.949219 303.632812 76.503906 303.960938 76.042969 304.269531 C 75.585938 304.578125 75.109375 304.859375 74.621094 305.121094 C 74.132812 305.382812 73.636719 305.617188 73.125 305.832031 C 72.613281 306.042969 72.09375 306.226562 71.5625 306.386719 C 71.035156 306.550781 70.496094 306.683594 69.957031 306.792969 C 69.414062 306.898438 68.867188 306.980469 68.316406 307.035156 C 67.765625 307.089844 67.210938 307.117188 66.660156 307.117188 C 66.105469 307.117188 65.554688 307.089844 65.003906 307.035156 C 64.453125 306.980469 63.90625 306.898438 63.363281 306.792969 C 62.820312 306.683594 62.285156 306.550781 61.753906 306.386719 C 61.226562 306.226562 60.707031 306.042969 60.195312 305.832031 C 59.683594 305.617188 59.183594 305.382812 58.695312 305.121094 C 58.207031 304.859375 57.734375 304.578125 57.273438 304.269531 C 56.8125 303.960938 56.371094 303.632812 55.941406 303.28125 C 55.515625 302.929688 55.105469 302.5625 54.714844 302.167969 C 54.324219 301.777344 53.953125 301.371094 53.601562 300.941406 C 53.25 300.515625 52.921875 300.070312 52.613281 299.609375 C 52.304688 299.152344 52.023438 298.675781 51.761719 298.1875 C 51.5 297.703125 51.265625 297.203125 51.054688 296.691406 C 50.839844 296.179688 50.65625 295.660156 50.496094 295.128906 C 50.332031 294.601562 50.199219 294.066406 50.089844 293.523438 C 49.984375 292.980469 49.902344 292.433594 49.847656 291.882812 C 49.792969 291.332031 49.765625 290.78125 49.765625 290.226562 C 49.765625 289.675781 49.792969 289.125 49.847656 288.574219 C 49.902344 288.023438 49.984375 287.476562 50.089844 286.933594 C 50.199219 286.390625 50.332031 285.855469 50.496094 285.324219 C 50.65625 284.796875 50.839844 284.277344 51.054688 283.765625 C 51.265625 283.253906 51.5 282.753906 51.761719 282.269531 C 52.023438 281.78125 52.304688 281.304688 52.613281 280.847656 C 52.921875 280.386719 53.25 279.941406 53.601562 279.515625 C 53.953125 279.085938 54.324219 278.679688 54.714844 278.285156 C 55.105469 277.894531 55.515625 277.523438 55.941406 277.175781 C 56.371094 276.824219 56.8125 276.492188 57.273438 276.1875 C 57.734375 275.878906 58.207031 275.59375 58.695312 275.335938 C 59.183594 275.074219 59.683594 274.839844 60.195312 274.625 C 60.707031 274.414062 61.226562 274.230469 61.753906 274.066406 C 62.285156 273.90625 62.820312 273.773438 63.363281 273.664062 C 63.90625 273.558594 64.453125 273.476562 65.003906 273.421875 C 65.554688 273.367188 66.105469 273.339844 66.660156 273.339844 C 67.210938 273.339844 67.765625 273.367188 68.316406 273.421875 C 68.867188 273.476562 69.414062 273.558594 69.957031 273.664062 C 70.496094 273.773438 71.035156 273.90625 71.5625 274.066406 C 72.09375 274.230469 72.613281 274.414062 73.125 274.625 C 73.636719 274.839844 74.132812 275.074219 74.621094 275.335938 C 75.109375 275.59375 75.585938 275.878906 76.042969 276.1875 C 76.503906 276.492188 76.949219 276.824219 77.375 277.175781 C 77.804688 277.523438 78.214844 277.894531 78.605469 278.285156 C 78.996094 278.679688 79.367188 279.085938 79.71875 279.515625 C 80.070312 279.941406 80.398438 280.386719 80.707031 280.847656 C 81.011719 281.304688 81.296875 281.78125 81.558594 282.269531 C 81.816406 282.753906 82.054688 283.253906 82.265625 283.765625 C 82.476562 284.277344 82.664062 284.796875 82.824219 285.324219 C 82.984375 285.855469 83.121094 286.390625 83.226562 286.933594 C 83.335938 287.476562 83.417969 288.023438 83.472656 288.574219 C 83.523438 289.125 83.550781 289.675781 83.550781 290.226562 Z M 83.550781 290.226562 " fill-opacity="1" fill-rule="nonzero"/><path fill="#172e58" d="M 568.496094 290.226562 C 568.496094 290.78125 568.46875 291.332031 568.414062 291.882812 C 568.359375 292.433594 568.277344 292.980469 568.171875 293.523438 C 568.0625 294.066406 567.929688 294.601562 567.769531 295.128906 C 567.609375 295.660156 567.421875 296.179688 567.210938 296.691406 C 566.996094 297.203125 566.761719 297.703125 566.5 298.1875 C 566.238281 298.675781 565.957031 299.152344 565.648438 299.609375 C 565.339844 300.070312 565.011719 300.515625 564.660156 300.941406 C 564.308594 301.371094 563.9375 301.777344 563.546875 302.167969 C 563.15625 302.5625 562.746094 302.929688 562.320312 303.28125 C 561.890625 303.632812 561.449219 303.960938 560.988281 304.269531 C 560.527344 304.578125 560.054688 304.859375 559.566406 305.121094 C 559.078125 305.382812 558.578125 305.617188 558.066406 305.832031 C 557.554688 306.042969 557.035156 306.226562 556.507812 306.386719 C 555.976562 306.550781 555.441406 306.683594 554.898438 306.792969 C 554.355469 306.898438 553.808594 306.980469 553.257812 307.035156 C 552.707031 307.089844 552.15625 307.117188 551.601562 307.117188 C 551.050781 307.117188 550.496094 307.089844 549.949219 307.035156 C 549.398438 306.980469 548.851562 306.898438 548.308594 306.792969 C 547.765625 306.683594 547.230469 306.550781 546.699219 306.386719 C 546.167969 306.226562 545.648438 306.042969 545.136719 305.832031 C 544.628906 305.617188 544.128906 305.382812 543.640625 305.121094 C 543.152344 304.859375 542.679688 304.578125 542.21875 304.269531 C 541.757812 303.960938 541.3125 303.632812 540.886719 303.28125 C 540.457031 302.929688 540.050781 302.5625 539.65625 302.167969 C 539.265625 301.777344 538.894531 301.371094 538.542969 300.941406 C 538.195312 300.515625 537.863281 300.070312 537.558594 299.609375 C 537.25 299.152344 536.964844 298.675781 536.703125 298.1875 C 536.445312 297.703125 536.207031 297.203125 535.996094 296.691406 C 535.785156 296.179688 535.597656 295.660156 535.4375 295.128906 C 535.277344 294.601562 535.144531 294.066406 535.035156 293.523438 C 534.925781 292.980469 534.847656 292.433594 534.792969 291.882812 C 534.738281 291.332031 534.710938 290.78125 534.710938 290.226562 C 534.710938 289.675781 534.738281 289.125 534.792969 288.574219 C 534.847656 288.023438 534.925781 287.476562 535.035156 286.933594 C 535.144531 286.390625 535.277344 285.855469 535.4375 285.324219 C 535.597656 284.796875 535.785156 284.277344 535.996094 283.765625 C 536.207031 283.253906 536.445312 282.753906 536.703125 282.269531 C 536.964844 281.78125 537.25 281.304688 537.558594 280.847656 C 537.863281 280.386719 538.195312 279.941406 538.542969 279.515625 C 538.894531 279.085938 539.265625 278.679688 539.65625 278.285156 C 540.050781 277.894531 540.457031 277.523438 540.886719 277.175781 C 541.3125 276.824219 541.757812 276.492188 542.21875 276.1875 C 542.679688 275.878906 543.152344 275.59375 543.640625 275.335938 C 544.128906 275.074219 544.628906 274.839844 545.136719 274.625 C 545.648438 274.414062 546.167969 274.230469 546.699219 274.066406 C 547.230469 273.90625 547.765625 273.773438 548.308594 273.664062 C 548.851562 273.558594 549.398438 273.476562 549.945312 273.421875 C 550.496094 273.367188 551.050781 273.339844 551.601562 273.339844 C 552.15625 273.339844 552.707031 273.367188 553.257812 273.421875 C 553.808594 273.476562 554.355469 273.558594 554.898438 273.664062 C 555.441406 273.773438 555.976562 273.90625 556.507812 274.066406 C 557.035156 274.230469 557.554688 274.414062 558.066406 274.625 C 558.578125 274.839844 559.078125 275.074219 559.566406 275.335938 C 560.054688 275.59375 560.527344 275.878906 560.988281 276.1875 C 561.449219 276.492188 561.890625 276.824219 562.320312 277.175781 C 562.746094 277.523438 563.15625 277.894531 563.546875 278.285156 C 563.9375 278.679688 564.308594 279.085938 564.660156 279.515625 C 565.011719 279.941406 565.339844 280.386719 565.648438 280.847656 C 565.957031 281.304688 566.238281 281.78125 566.5 282.269531 C 566.761719 282.753906 566.996094 283.253906 567.210938 283.765625 C 567.421875 284.277344 567.609375 284.796875 567.769531 285.324219 C 567.929688 285.855469 568.0625 286.390625 568.171875 286.933594 C 568.277344 287.476562 568.359375 288.023438 568.414062 288.574219 C 568.46875 289.125 568.496094 289.675781 568.496094 290.226562 Z M 568.496094 290.226562 " fill-opacity="1" fill-rule="nonzero"/><path fill="#01d1a0" d="M 294.167969 311.414062 C 239.683594 314.121094 216.054688 362.25 207.882812 409.527344 C 204.144531 431.195312 202.5625 453.011719 203.167969 475 C 203.460938 486.046875 192.851562 492.730469 183.664062 485.820312 C 180.019531 483.089844 177.753906 479.484375 176.871094 474.988281 C 175.652344 468.867188 175.183594 459.933594 175.449219 448.214844 C 176.84375 385.726562 201.652344 297.808594 272.695312 280.921875 C 288.234375 277.222656 304.308594 276.996094 320.945312 280.222656 C 389.441406 293.535156 411.078125 363.710938 416.125 423.347656 C 417.921875 444.585938 418.765625 467.085938 416.125 487.480469 C 413.902344 504.648438 387.671875 503.792969 384.070312 488.175781 C 383.679688 486.464844 383.628906 483.195312 383.9375 478.375 C 384.859375 463.429688 384.992188 448.46875 384.335938 433.511719 C 383.988281 425.394531 382.917969 417.09375 381.914062 408.871094 C 376.753906 367.515625 360.316406 319.703125 312.910156 311.722656 C 309.078125 311.066406 302.820312 310.960938 294.167969 311.402344 Z M 294.167969 311.414062 " fill-opacity="1" fill-rule="nonzero"/><path fill="#172e58" d="M 254.328125 391.808594 C 243.730469 417 242.40625 443.542969 242.484375 471.503906 C 242.523438 489.289062 219.9375 492.355469 214.742188 475.738281 C 214.019531 473.417969 213.507812 470.21875 213.242188 466.148438 C 212.167969 450.171875 213.589844 437.957031 215.144531 423.601562 C 216.121094 414.585938 218.519531 403.792969 222.324219 391.207031 C 232.117188 358.808594 254.515625 326.292969 292.011719 325.046875 C 339.351562 323.480469 361.710938 363.628906 369.332031 404.089844 C 373.554688 426.492188 375.109375 449.328125 373.996094 472.601562 C 373.753906 477.542969 373.59375 482.753906 371.410156 486.890625 C 364.820312 499.320312 346.679688 496.882812 342.21875 484.242188 C 341.363281 481.804688 341.066406 477.398438 341.324219 470.996094 C 342.085938 451.871094 341.65625 433.445312 338.589844 414.519531 C 336.164062 399.46875 330.644531 380.746094 319.792969 370.167969 C 310.886719 361.488281 301.308594 360.148438 289.0625 361.273438 C 272.855469 362.746094 260.410156 377.425781 254.328125 391.835938 Z M 254.328125 391.808594 " fill-opacity="1" fill-rule="nonzero"/><path fill="#172e58" d="M 61.382812 348.148438 C 61.382812 348.703125 61.355469 349.253906 61.300781 349.804688 C 61.246094 350.351562 61.164062 350.898438 61.058594 351.441406 C 60.949219 351.984375 60.816406 352.519531 60.65625 353.046875 C 60.492188 353.578125 60.308594 354.097656 60.097656 354.605469 C 59.886719 355.117188 59.648438 355.617188 59.386719 356.105469 C 59.128906 356.589844 58.84375 357.066406 58.535156 357.523438 C 58.230469 357.984375 57.902344 358.425781 57.550781 358.855469 C 57.199219 359.28125 56.828125 359.691406 56.4375 360.082031 C 56.046875 360.472656 55.636719 360.84375 55.210938 361.191406 C 54.78125 361.542969 54.339844 361.871094 53.878906 362.179688 C 53.421875 362.488281 52.945312 362.769531 52.457031 363.03125 C 51.972656 363.292969 51.472656 363.527344 50.960938 363.738281 C 50.449219 363.949219 49.929688 364.136719 49.402344 364.296875 C 48.871094 364.457031 48.335938 364.589844 47.796875 364.699219 C 47.253906 364.808594 46.707031 364.886719 46.15625 364.941406 C 45.605469 364.996094 45.054688 365.023438 44.503906 365.023438 C 43.949219 365.023438 43.398438 364.996094 42.847656 364.941406 C 42.296875 364.886719 41.75 364.808594 41.210938 364.699219 C 40.667969 364.589844 40.132812 364.457031 39.601562 364.296875 C 39.074219 364.136719 38.554688 363.949219 38.042969 363.738281 C 37.53125 363.527344 37.03125 363.292969 36.546875 363.03125 C 36.058594 362.769531 35.585938 362.488281 35.125 362.179688 C 34.664062 361.871094 34.222656 361.542969 33.792969 361.191406 C 33.367188 360.84375 32.957031 360.472656 32.566406 360.082031 C 32.175781 359.691406 31.804688 359.28125 31.453125 358.855469 C 31.105469 358.425781 30.773438 357.984375 30.46875 357.523438 C 30.160156 357.066406 29.875 356.589844 29.617188 356.105469 C 29.355469 355.617188 29.121094 355.117188 28.90625 354.605469 C 28.695312 354.097656 28.511719 353.578125 28.351562 353.046875 C 28.1875 352.519531 28.054688 351.984375 27.945312 351.441406 C 27.839844 350.898438 27.757812 350.351562 27.703125 349.804688 C 27.648438 349.253906 27.621094 348.703125 27.621094 348.148438 C 27.621094 347.597656 27.648438 347.046875 27.703125 346.496094 C 27.757812 345.945312 27.839844 345.398438 27.945312 344.855469 C 28.054688 344.316406 28.1875 343.78125 28.351562 343.25 C 28.511719 342.722656 28.695312 342.203125 28.90625 341.691406 C 29.121094 341.179688 29.355469 340.683594 29.617188 340.195312 C 29.875 339.707031 30.160156 339.234375 30.46875 338.773438 C 30.773438 338.316406 31.105469 337.871094 31.453125 337.445312 C 31.804688 337.015625 32.175781 336.609375 32.566406 336.21875 C 32.957031 335.828125 33.367188 335.457031 33.792969 335.105469 C 34.222656 334.753906 34.664062 334.425781 35.125 334.117188 C 35.585938 333.8125 36.058594 333.527344 36.546875 333.269531 C 37.03125 333.007812 37.53125 332.769531 38.042969 332.558594 C 38.554688 332.347656 39.074219 332.164062 39.601562 332 C 40.132812 331.839844 40.667969 331.707031 41.210938 331.597656 C 41.75 331.492188 42.296875 331.410156 42.847656 331.355469 C 43.398438 331.300781 43.949219 331.273438 44.503906 331.273438 C 45.054688 331.273438 45.605469 331.300781 46.15625 331.355469 C 46.707031 331.410156 47.253906 331.492188 47.796875 331.597656 C 48.335938 331.707031 48.871094 331.839844 49.402344 332 C 49.929688 332.164062 50.449219 332.347656 50.960938 332.558594 C 51.472656 332.769531 51.972656 333.007812 52.457031 333.269531 C 52.945312 333.527344 53.421875 333.8125 53.878906 334.117188 C 54.339844 334.425781 54.78125 334.753906 55.210938 335.105469 C 55.636719 335.457031 56.046875 335.828125 56.4375 336.21875 C 56.828125 336.609375 57.199219 337.015625 57.550781 337.445312 C 57.902344 337.871094 58.230469 338.316406 58.535156 338.773438 C 58.84375 339.234375 59.128906 339.707031 59.386719 340.195312 C 59.648438 340.683594 59.886719 341.179688 60.097656 341.691406 C 60.308594 342.203125 60.492188 342.722656 60.65625 343.25 C 60.816406 343.78125 60.949219 344.316406 61.058594 344.855469 C 61.164062 345.398438 61.246094 345.945312 61.300781 346.496094 C 61.355469 347.046875 61.382812 347.597656 61.382812 348.148438 Z M 61.382812 348.148438 " fill-opacity="1" fill-rule="nonzero"/><path fill="#172e58" d="M 581.089844 348.136719 C 581.089844 348.6875 581.0625 349.238281 581.007812 349.789062 C 580.953125 350.339844 580.871094 350.886719 580.765625 351.429688 C 580.65625 351.96875 580.523438 352.503906 580.359375 353.035156 C 580.199219 353.5625 580.015625 354.082031 579.804688 354.59375 C 579.589844 355.105469 579.355469 355.601562 579.09375 356.089844 C 578.835938 356.578125 578.550781 357.050781 578.242188 357.511719 C 577.9375 357.96875 577.605469 358.414062 577.257812 358.839844 C 576.90625 359.269531 576.535156 359.675781 576.144531 360.066406 C 575.753906 360.457031 575.34375 360.828125 574.917969 361.179688 C 574.488281 361.53125 574.046875 361.859375 573.585938 362.167969 C 573.125 362.472656 572.652344 362.757812 572.164062 363.015625 C 571.679688 363.277344 571.179688 363.515625 570.667969 363.726562 C 570.15625 363.9375 569.636719 364.121094 569.109375 364.285156 C 568.578125 364.445312 568.042969 364.578125 567.5 364.6875 C 566.960938 364.792969 566.414062 364.875 565.863281 364.929688 C 565.3125 364.984375 564.761719 365.011719 564.207031 365.011719 C 563.65625 365.011719 563.105469 364.984375 562.554688 364.929688 C 562.003906 364.875 561.457031 364.792969 560.914062 364.6875 C 560.375 364.578125 559.839844 364.445312 559.308594 364.285156 C 558.78125 364.121094 558.261719 363.9375 557.75 363.726562 C 557.238281 363.515625 556.738281 363.277344 556.253906 363.015625 C 555.765625 362.757812 555.289062 362.472656 554.832031 362.167969 C 554.371094 361.859375 553.929688 361.53125 553.5 361.179688 C 553.074219 360.828125 552.664062 360.457031 552.273438 360.066406 C 551.882812 359.675781 551.511719 359.269531 551.160156 358.839844 C 550.808594 358.414062 550.480469 357.96875 550.175781 357.511719 C 549.867188 357.050781 549.582031 356.578125 549.324219 356.089844 C 549.0625 355.601562 548.824219 355.105469 548.613281 354.59375 C 548.402344 354.082031 548.21875 353.5625 548.054688 353.035156 C 547.894531 352.503906 547.761719 351.96875 547.652344 351.429688 C 547.546875 350.886719 547.464844 350.339844 547.410156 349.789062 C 547.355469 349.238281 547.328125 348.6875 547.328125 348.136719 C 547.328125 347.582031 547.355469 347.03125 547.410156 346.480469 C 547.464844 345.933594 547.546875 345.386719 547.652344 344.84375 C 547.761719 344.300781 547.894531 343.765625 548.054688 343.238281 C 548.21875 342.707031 548.402344 342.1875 548.613281 341.679688 C 548.824219 341.167969 549.0625 340.667969 549.324219 340.179688 C 549.582031 339.695312 549.867188 339.21875 550.175781 338.761719 C 550.480469 338.300781 550.808594 337.859375 551.160156 337.429688 C 551.511719 337.003906 551.882812 336.59375 552.273438 336.203125 C 552.664062 335.8125 553.074219 335.441406 553.5 335.09375 C 553.929688 334.742188 554.371094 334.414062 554.832031 334.105469 C 555.289062 333.796875 555.765625 333.515625 556.253906 333.253906 C 556.738281 332.992188 557.238281 332.757812 557.75 332.546875 C 558.261719 332.335938 558.78125 332.148438 559.308594 331.988281 C 559.839844 331.828125 560.375 331.695312 560.914062 331.585938 C 561.457031 331.476562 562.003906 331.398438 562.554688 331.34375 C 563.105469 331.289062 563.65625 331.261719 564.207031 331.261719 C 564.761719 331.261719 565.3125 331.289062 565.863281 331.34375 C 566.414062 331.398438 566.960938 331.476562 567.5 331.585938 C 568.042969 331.695312 568.578125 331.828125 569.109375 331.988281 C 569.636719 332.148438 570.15625 332.335938 570.667969 332.546875 C 571.179688 332.757812 571.679688 332.992188 572.164062 333.253906 C 572.652344 333.515625 573.125 333.796875 573.585938 334.105469 C 574.046875 334.414062 574.488281 334.742188 574.917969 335.09375 C 575.34375 335.441406 575.753906 335.8125 576.144531 336.203125 C 576.535156 336.59375 576.90625 337.003906 577.257812 337.429688 C 577.605469 337.859375 577.9375 338.300781 578.242188 338.761719 C 578.550781 339.21875 578.835938 339.695312 579.09375 340.179688 C 579.355469 340.667969 579.589844 341.167969 579.804688 341.679688 C 580.015625 342.1875 580.199219 342.707031 580.359375 343.238281 C 580.523438 343.765625 580.65625 344.300781 580.765625 344.84375 C 580.871094 345.386719 580.953125 345.933594 581.007812 346.480469 C 581.0625 347.03125 581.089844 347.582031 581.089844 348.136719 Z M 581.089844 348.136719 " fill-opacity="1" fill-rule="nonzero"/><path fill="#172e58" d="M 45.640625 402.347656 C 45.640625 403.367188 45.542969 404.378906 45.34375 405.378906 C 45.144531 406.382812 44.847656 407.355469 44.457031 408.296875 C 44.066406 409.242188 43.585938 410.136719 43.019531 410.984375 C 42.453125 411.835938 41.808594 412.621094 41.085938 413.339844 C 40.363281 414.0625 39.578125 414.707031 38.730469 415.273438 C 37.878906 415.84375 36.984375 416.320312 36.039062 416.710938 C 35.097656 417.101562 34.125 417.398438 33.121094 417.597656 C 32.121094 417.796875 31.109375 417.894531 30.085938 417.894531 C 29.066406 417.894531 28.054688 417.796875 27.054688 417.597656 C 26.050781 417.398438 25.078125 417.101562 24.136719 416.710938 C 23.191406 416.320312 22.296875 415.84375 21.445312 415.273438 C 20.597656 414.707031 19.8125 414.0625 19.089844 413.339844 C 18.367188 412.621094 17.722656 411.835938 17.15625 410.984375 C 16.589844 410.136719 16.109375 409.242188 15.71875 408.296875 C 15.328125 407.355469 15.03125 406.382812 14.832031 405.378906 C 14.632812 404.378906 14.535156 403.367188 14.535156 402.347656 C 14.535156 401.328125 14.632812 400.316406 14.832031 399.3125 C 15.03125 398.3125 15.328125 397.339844 15.71875 396.398438 C 16.109375 395.453125 16.589844 394.558594 17.15625 393.710938 C 17.722656 392.859375 18.367188 392.074219 19.089844 391.351562 C 19.8125 390.632812 20.597656 389.988281 21.445312 389.417969 C 22.296875 388.851562 23.191406 388.375 24.136719 387.984375 C 25.078125 387.59375 26.050781 387.296875 27.054688 387.097656 C 28.054688 386.898438 29.066406 386.800781 30.085938 386.800781 C 31.109375 386.800781 32.121094 386.898438 33.121094 387.097656 C 34.125 387.296875 35.097656 387.59375 36.039062 387.984375 C 36.984375 388.375 37.878906 388.851562 38.730469 389.417969 C 39.578125 389.988281 40.363281 390.632812 41.085938 391.351562 C 41.808594 392.074219 42.453125 392.859375 43.019531 393.710938 C 43.585938 394.558594 44.066406 395.453125 44.457031 396.398438 C 44.847656 397.339844 45.144531 398.3125 45.34375 399.3125 C 45.542969 400.316406 45.640625 401.328125 45.640625 402.347656 Z M 45.640625 402.347656 " fill-opacity="1" fill-rule="nonzero"/><path fill="#172e58" d="M 586.984375 402.347656 C 586.980469 403.371094 586.882812 404.382812 586.683594 405.382812 C 586.484375 406.386719 586.1875 407.359375 585.796875 408.300781 C 585.40625 409.246094 584.925781 410.144531 584.359375 410.992188 C 583.792969 411.84375 583.144531 412.628906 582.421875 413.351562 C 581.699219 414.074219 580.914062 414.71875 580.0625 415.285156 C 579.214844 415.855469 578.316406 416.332031 577.371094 416.722656 C 576.429688 417.117188 575.457031 417.410156 574.453125 417.609375 C 573.449219 417.808594 572.4375 417.910156 571.417969 417.910156 C 570.394531 417.910156 569.382812 417.808594 568.378906 417.609375 C 567.375 417.410156 566.402344 417.117188 565.457031 416.722656 C 564.515625 416.332031 563.617188 415.855469 562.769531 415.285156 C 561.917969 414.71875 561.132812 414.074219 560.410156 413.351562 C 559.6875 412.628906 559.039062 411.84375 558.472656 410.992188 C 557.90625 410.144531 557.425781 409.246094 557.035156 408.300781 C 556.644531 407.359375 556.347656 406.386719 556.148438 405.382812 C 555.949219 404.382812 555.847656 403.371094 555.847656 402.347656 C 555.847656 401.324219 555.949219 400.3125 556.148438 399.3125 C 556.347656 398.308594 556.644531 397.335938 557.035156 396.390625 C 557.425781 395.449219 557.90625 394.550781 558.472656 393.703125 C 559.039062 392.851562 559.6875 392.066406 560.410156 391.34375 C 561.132812 390.621094 561.917969 389.976562 562.769531 389.410156 C 563.617188 388.839844 564.515625 388.359375 565.457031 387.96875 C 566.402344 387.578125 567.375 387.285156 568.378906 387.085938 C 569.382812 386.886719 570.394531 386.785156 571.417969 386.785156 C 572.4375 386.785156 573.449219 386.886719 574.453125 387.085938 C 575.457031 387.285156 576.429688 387.578125 577.371094 387.96875 C 578.316406 388.359375 579.214844 388.839844 580.0625 389.410156 C 580.914062 389.976562 581.699219 390.621094 582.421875 391.34375 C 583.144531 392.066406 583.792969 392.851562 584.359375 393.703125 C 584.925781 394.550781 585.40625 395.449219 585.796875 396.390625 C 586.1875 397.335938 586.484375 398.308594 586.683594 399.3125 C 586.882812 400.3125 586.980469 401.324219 586.984375 402.347656 Z M 586.984375 402.347656 " fill-opacity="1" fill-rule="nonzero"/><path fill="#172e58" d="M 38.40625 461.726562 C 38.40625 462.683594 38.3125 463.628906 38.128906 464.566406 C 37.941406 465.503906 37.664062 466.414062 37.296875 467.300781 C 36.933594 468.183594 36.484375 469.019531 35.953125 469.816406 C 35.421875 470.609375 34.816406 471.347656 34.140625 472.023438 C 33.464844 472.699219 32.730469 473.300781 31.933594 473.832031 C 31.140625 474.363281 30.300781 474.8125 29.417969 475.175781 C 28.535156 475.542969 27.625 475.820312 26.6875 476.003906 C 25.75 476.191406 24.800781 476.285156 23.84375 476.285156 C 22.890625 476.285156 21.941406 476.191406 21.003906 476.003906 C 20.066406 475.820312 19.15625 475.542969 18.273438 475.175781 C 17.390625 474.8125 16.550781 474.363281 15.753906 473.832031 C 14.960938 473.300781 14.222656 472.699219 13.546875 472.023438 C 12.871094 471.347656 12.269531 470.609375 11.738281 469.816406 C 11.207031 469.019531 10.757812 468.183594 10.390625 467.300781 C 10.027344 466.414062 9.75 465.503906 9.5625 464.566406 C 9.375 463.628906 9.285156 462.683594 9.285156 461.726562 C 9.285156 460.773438 9.375 459.824219 9.5625 458.886719 C 9.75 457.949219 10.027344 457.039062 10.390625 456.15625 C 10.757812 455.273438 11.207031 454.433594 11.738281 453.640625 C 12.269531 452.847656 12.871094 452.109375 13.546875 451.433594 C 14.222656 450.757812 14.960938 450.15625 15.753906 449.625 C 16.550781 449.09375 17.390625 448.644531 18.273438 448.277344 C 19.15625 447.914062 20.066406 447.636719 21.003906 447.449219 C 21.941406 447.265625 22.890625 447.171875 23.84375 447.171875 C 24.800781 447.171875 25.75 447.265625 26.6875 447.449219 C 27.625 447.636719 28.535156 447.914062 29.417969 448.277344 C 30.300781 448.644531 31.140625 449.09375 31.933594 449.625 C 32.730469 450.15625 33.464844 450.757812 34.140625 451.433594 C 34.816406 452.109375 35.421875 452.847656 35.953125 453.640625 C 36.484375 454.433594 36.933594 455.273438 37.296875 456.15625 C 37.664062 457.039062 37.941406 457.949219 38.128906 458.886719 C 38.3125 459.824219 38.40625 460.773438 38.40625 461.726562 Z M 38.40625 461.726562 " fill-opacity="1" fill-rule="nonzero"/><path fill="#172e58" d="M 589.609375 461.726562 C 589.609375 462.683594 589.515625 463.628906 589.328125 464.566406 C 589.140625 465.503906 588.867188 466.414062 588.5 467.300781 C 588.132812 468.183594 587.683594 469.019531 587.152344 469.816406 C 586.621094 470.609375 586.019531 471.347656 585.34375 472.023438 C 584.667969 472.699219 583.929688 473.300781 583.136719 473.832031 C 582.339844 474.363281 581.503906 474.8125 580.617188 475.175781 C 579.734375 475.542969 578.824219 475.820312 577.886719 476.003906 C 576.949219 476.191406 576.003906 476.285156 575.046875 476.285156 C 574.089844 476.285156 573.144531 476.191406 572.207031 476.003906 C 571.269531 475.820312 570.355469 475.542969 569.472656 475.175781 C 568.589844 474.8125 567.75 474.363281 566.957031 473.832031 C 566.160156 473.300781 565.425781 472.699219 564.75 472.023438 C 564.074219 471.347656 563.46875 470.609375 562.9375 469.816406 C 562.40625 469.019531 561.957031 468.183594 561.59375 467.300781 C 561.226562 466.414062 560.949219 465.503906 560.765625 464.566406 C 560.578125 463.628906 560.484375 462.683594 560.484375 461.726562 C 560.484375 460.773438 560.578125 459.824219 560.765625 458.886719 C 560.949219 457.949219 561.226562 457.039062 561.59375 456.15625 C 561.957031 455.273438 562.40625 454.433594 562.9375 453.640625 C 563.46875 452.847656 564.074219 452.109375 564.75 451.433594 C 565.425781 450.757812 566.160156 450.15625 566.957031 449.625 C 567.75 449.09375 568.589844 448.644531 569.472656 448.277344 C 570.355469 447.914062 571.269531 447.636719 572.207031 447.449219 C 573.144531 447.265625 574.089844 447.171875 575.046875 447.171875 C 576.003906 447.171875 576.949219 447.265625 577.886719 447.449219 C 578.824219 447.636719 579.734375 447.914062 580.617188 448.277344 C 581.503906 448.644531 582.339844 449.09375 583.136719 449.625 C 583.929688 450.15625 584.667969 450.757812 585.34375 451.433594 C 586.019531 452.109375 586.621094 452.847656 587.152344 453.640625 C 587.683594 454.433594 588.132812 455.273438 588.5 456.15625 C 588.867188 457.039062 589.140625 457.949219 589.328125 458.886719 C 589.515625 459.824219 589.609375 460.773438 589.609375 461.726562 Z M 589.609375 461.726562 " fill-opacity="1" fill-rule="nonzero"/></svg>