<svg width="44" height="36" viewBox="0 0 44 36" fill="none" xmlns="http://www.w3.org/2000/svg">
<path d="M32.4137 23.8779L37.6628 3.32503H43.4053V0.0944061H35.1536L33.9161 4.93939L0.511108 4.9155L4.06256 23.8778H32.4137V23.8779ZM33.0913 8.16945L29.9045 20.6473H6.74427L4.40344 8.14892L33.0913 8.16945Z" fill="white"/>
<path d="M27.9913 35.6513C30.84 35.6513 33.1575 33.3336 33.1575 30.4849C33.1575 27.6362 30.84 25.3187 27.9913 25.3187H8.52669C5.67799 25.3187 3.36035 27.6362 3.36035 30.4849C3.36035 33.3336 5.67794 35.6513 8.52669 35.6513C11.3754 35.6513 13.693 33.3336 13.693 30.4849C13.693 29.8008 13.559 29.1475 13.3164 28.5493H23.2016C22.9589 29.1475 22.8249 29.8008 22.8249 30.4849C22.825 33.3336 25.1426 35.6513 27.9913 35.6513ZM10.4624 30.4849C10.4624 31.5523 9.59403 32.4207 8.52669 32.4207C7.45935 32.4207 6.59098 31.5523 6.59098 30.4849C6.59098 29.4176 7.4593 28.5493 8.52669 28.5493C9.59403 28.5493 10.4624 29.4176 10.4624 30.4849ZM29.927 30.4849C29.927 31.5523 29.0586 32.4207 27.9913 32.4207C26.924 32.4207 26.0556 31.5523 26.0556 30.4849C26.0556 29.4176 26.924 28.5493 27.9913 28.5493C29.0586 28.5493 29.927 29.4176 29.927 30.4849Z" fill="white"/>
</svg>
