<svg width="94" height="94" viewBox="0 0 94 94" fill="none" xmlns="http://www.w3.org/2000/svg">
<path d="M47 94C21.0851 94 0 72.9149 0 47C0 21.0851 21.0851 0 47 0C72.9149 0 94 21.0851 94 47C94 72.9149 72.9149 94 47 94ZM47 6.815C24.8366 6.815 6.80888 24.8366 6.80888 47C6.80888 69.1573 24.8366 87.185 47 87.185C69.1573 87.185 87.1911 69.1573 87.1911 47C87.1911 24.8366 69.1573 6.815 47 6.815Z" fill="#172E58"/>
<path d="M47.9695 71.3899C47.6084 71.2522 47.2174 71.0289 47.2174 70.0827C47.2174 69.6923 47.2792 69.24 47.4175 68.6874L53.3537 39.9091C53.4859 39.2335 53.5538 38.5254 53.5538 37.8204C53.5538 35.9612 52.981 34.5451 51.8501 33.6082C49.3146 31.5256 44.879 31.9338 37.5004 34.4276L36.7837 34.6687L36.49 38.3816H37.7292C41.4862 38.3816 42.3944 38.6754 42.5822 38.7665C42.835 38.8865 42.9727 39.0309 42.9727 39.4538C42.9727 39.6888 42.9433 39.9532 42.8815 40.2469C42.8081 40.6374 42.7199 41.0896 42.6349 41.5774L37.195 68.0094C36.9422 69.3398 36.8101 70.4824 36.8101 71.393C36.8101 73.4994 37.4178 75.1267 38.605 76.2252C39.7678 77.2974 41.3632 77.8439 43.3429 77.8439C45.6605 77.8439 48.7712 77.2007 52.8488 75.8819L53.5771 75.6469L53.8708 71.8838H52.6401C49.8526 71.8838 48.5656 71.6133 47.9695 71.3899Z" fill="#172E58"/>
<path d="M55.7832 17.7688C54.6638 16.7027 53.2245 16.1562 51.5091 16.1562C49.7319 16.1562 48.2277 16.7407 47.0441 17.8894C45.8513 19.0436 45.2437 20.598 45.2437 22.5129C45.2437 24.2754 45.822 25.7386 46.959 26.872C48.0955 28.0152 49.5526 28.5935 51.2802 28.5935C53.0427 28.5935 54.5317 27.9797 55.7213 26.7814C56.9025 25.5826 57.4985 24.0257 57.4985 22.1518C57.4985 20.3214 56.9257 18.8471 55.7832 17.7688Z" fill="#172E58"/>
</svg>
