<svg width="94" height="94" viewBox="0 0 94 94" fill="none" xmlns="http://www.w3.org/2000/svg">
<g clip-path="url(#clip0_74_1153)">
<path d="M47 94C21.0851 94 0 72.9149 0 47C0 21.0851 21.0851 0 47 0C72.9149 0 94 21.0851 94 47C94 72.9149 72.9149 94 47 94ZM47 6.815C24.8366 6.815 6.80888 24.8366 6.80888 47C6.80888 69.1573 24.8366 87.185 47 87.185C69.1573 87.185 87.1911 69.1573 87.1911 47C87.1911 24.8366 69.1573 6.815 47 6.815Z" fill="#FF9F40"/>
<path d="M47.9695 71.3898C47.6084 71.2521 47.2174 71.0287 47.2174 70.0826C47.2174 69.6922 47.2792 69.2399 47.4175 68.6873L53.3537 39.909C53.4859 39.2334 53.5538 38.5253 53.5538 37.8203C53.5538 35.9611 52.981 34.545 51.8501 33.608C49.3146 31.5255 44.879 31.9337 37.5004 34.4275L36.7837 34.6686L36.49 38.3815H37.7292C41.4862 38.3815 42.3944 38.6752 42.5822 38.7664C42.835 38.8864 42.9727 39.0308 42.9727 39.4537C42.9727 39.6887 42.9433 39.953 42.8815 40.2468C42.8081 40.6372 42.7199 41.0895 42.6349 41.5772L37.195 68.0092C36.9422 69.3397 36.8101 70.4822 36.8101 71.3929C36.8101 73.4993 37.4178 75.1266 38.605 76.2251C39.7678 77.2972 41.3632 77.8437 43.3429 77.8437C45.6605 77.8437 48.7712 77.2006 52.8488 75.8817L53.5771 75.6467L53.8708 71.8837H52.6401C49.8526 71.8837 48.5656 71.6132 47.9695 71.3898Z" fill="#FF9F40"/>
<path d="M55.7832 17.7688C54.6638 16.7027 53.2245 16.1562 51.5091 16.1562C49.7319 16.1562 48.2277 16.7407 47.0441 17.8894C45.8513 19.0436 45.2437 20.598 45.2437 22.5129C45.2437 24.2754 45.822 25.7386 46.959 26.872C48.0955 28.0152 49.5526 28.5935 51.2802 28.5935C53.0427 28.5935 54.5317 27.9797 55.7213 26.7814C56.9025 25.5826 57.4985 24.0257 57.4985 22.1518C57.4985 20.3214 56.9257 18.8471 55.7832 17.7688Z" fill="#FF9F40"/>
</g>
<defs>
<clipPath id="clip0_74_1153">
<rect width="94" height="94" fill="white"/>
</clipPath>
</defs>
</svg>
