<svg width="57" height="57" viewBox="0 0 57 57" fill="none" xmlns="http://www.w3.org/2000/svg">
<g clip-path="url(#clip0_68_74)">
<path d="M20.8612 27.5482C20.8612 24.8656 19.5784 22.3557 17.2487 20.4783C17.035 20.3057 16.8096 20.1382 16.5802 19.9776C16.2815 19.7716 15.8867 19.7951 15.6191 20.0355C15.4417 20.1946 15.349 20.423 15.364 20.6612C15.3787 20.898 15.4982 21.1098 15.6932 21.2443C17.9961 22.8406 19.3159 25.1372 19.3159 27.5482C19.3159 29.9695 17.9862 32.2735 15.6675 33.8697C15.4689 34.0054 15.3468 34.2212 15.3307 34.4602C15.3157 34.6974 15.4084 34.9242 15.5847 35.0833L15.5884 35.087C15.7339 35.2153 15.9164 35.282 16.1004 35.282C16.2543 35.282 16.4097 35.2362 16.5443 35.1423C16.7862 34.9759 17.0229 34.7996 17.2487 34.6182C19.5784 32.7408 20.8612 30.2298 20.8612 27.5482Z" fill="#CFCFCF"/>
<path d="M11.0497 24.9126C10.7583 24.7176 10.3713 24.7461 10.1096 24.9804C9.93217 25.1409 9.83944 25.3689 9.85666 25.6071C9.87426 25.8476 9.99997 26.062 10.2023 26.1965C10.7191 26.5396 11.0149 27.0314 11.0149 27.5482C11.0149 28.0738 10.7092 28.5734 10.1763 28.9176C9.97029 29.0495 9.842 29.264 9.82221 29.507C9.80242 29.7474 9.89515 29.9769 10.0751 30.1385C10.2195 30.2679 10.4032 30.3346 10.5893 30.3346C10.7338 30.3346 10.8804 30.2939 11.0076 30.2114C11.9942 29.5722 12.5605 28.6016 12.5605 27.5482C12.5605 26.5124 12.0104 25.5514 11.0497 24.9126Z" fill="#CFCFCF"/>
<path d="M13.8185 22.4594C13.5227 22.2497 13.1279 22.2717 12.8578 22.5147C12.6826 22.6716 12.5902 22.8959 12.6038 23.1301C12.6173 23.3658 12.7343 23.578 12.9267 23.7151C14.2957 24.6868 15.0815 26.0843 15.0815 27.5482C15.0815 29.0235 14.2847 30.4284 12.8959 31.4026C12.7035 31.5383 12.584 31.7519 12.5704 31.9873C12.5554 32.2229 12.6481 32.4487 12.8244 32.6052C12.9699 32.7372 13.1536 32.8039 13.3387 32.8039C13.493 32.8039 13.6469 32.757 13.7814 32.662C15.5895 31.3917 16.6272 29.5268 16.6272 27.5482C16.6272 25.5848 15.6034 23.7298 13.8185 22.4594Z" fill="#CFCFCF"/>
<path d="M20.2594 18.2362C19.9523 17.9918 19.6279 17.7528 19.2936 17.5256C19.0001 17.3258 18.609 17.3544 18.3425 17.5923C18.1651 17.7513 18.0724 17.9797 18.0885 18.219C18.1046 18.4595 18.2292 18.6753 18.429 18.811C21.6717 21.0112 23.5314 24.196 23.5314 27.5482C23.5314 30.913 21.6607 34.1065 18.3957 36.3079C18.1959 36.4439 18.0713 36.6594 18.054 36.9002C18.0379 37.1392 18.1307 37.3675 18.3095 37.5277C18.4561 37.66 18.6412 37.7263 18.8263 37.7263C18.9755 37.7263 19.1258 37.6831 19.2566 37.5958C19.6034 37.3613 19.9413 37.1135 20.2594 36.8595C23.3665 34.384 25.0771 31.0772 25.0771 27.5482C25.0771 24.0182 23.3665 20.7114 20.2594 18.2362Z" fill="#CFCFCF"/>
<path d="M45.3269 36.0106C44.8449 36.0627 44.2453 36.0627 43.7728 35.8589C43.0009 35.5235 41.1408 34.2099 40.9312 34.0607L41.5627 33.1715C42.1055 33.5575 43.6409 34.6134 44.2061 34.8575C44.6353 35.0437 45.5157 34.903 45.876 34.8059L46.1597 35.8589C46.0893 35.8787 45.7539 35.9652 45.3269 36.0106Z" fill="#CFCFCF"/>
<path d="M45.3801 38.2838C44.8079 38.3593 44.0998 38.3751 43.5387 38.1482C42.5952 37.7648 39.9284 35.9542 39.6274 35.7493L40.2417 34.8476C41.0334 35.3879 43.2414 36.8496 43.9495 37.1381C44.4872 37.3565 45.5381 37.1886 46.0747 37.0321L46.3818 38.0793C46.2964 38.1039 45.8932 38.2175 45.3801 38.2838Z" fill="#CFCFCF"/>
<mask id="mask0_68_74" style="mask-type:luminance" maskUnits="userSpaceOnUse" x="0" y="13" width="34" height="29">
<path d="M0.383057 13.8244H33.5992V41.2934H0.383057V13.8244Z" fill="white"/>
</mask>
<g mask="url(#mask0_68_74)">
<path d="M17.4486 40.054C8.71715 40.054 1.61385 34.4494 1.61385 27.5598C1.61385 20.671 8.71715 15.0664 17.4486 15.0664C24.0754 15.0664 29.7653 18.297 32.121 22.8653L33.0362 21.9512C32.1877 20.4243 30.9851 19.0219 29.463 17.8095C26.2474 15.2467 21.9814 13.8356 17.4486 13.8356C12.9157 13.8356 8.64824 15.2467 5.4327 17.8095C2.17647 20.4049 0.383057 23.8667 0.383057 27.5598C0.383057 31.2526 2.17647 34.7159 5.4327 37.3109C8.64824 39.8729 12.9157 41.2852 17.4486 41.2852C21.9814 41.2852 26.2474 39.8729 29.463 37.3109C31.344 35.8126 32.7353 34.0254 33.5754 32.0714L32.6254 31.1217C30.678 36.281 24.612 40.054 17.4486 40.054Z" fill="#CFCFCF"/>
</g>
<path d="M37.6443 36.1404C37.9452 36.4413 38.341 36.5916 38.7358 36.5916C39.1305 36.5916 39.5264 36.4413 39.8262 36.1404L43.678 32.2882L42.8654 31.5595L39.0554 35.3696C38.8791 35.5459 38.5917 35.5459 38.4151 35.3696L33.9947 30.9478C33.8749 31.3275 33.7345 31.7025 33.5754 32.0712L37.6443 36.1404Z" fill="#CFCFCF"/>
<path d="M29.3371 27.8319L32.6252 31.1215C32.7711 30.7367 32.8943 30.3445 32.9918 29.945L30.1079 27.0611C30.0229 26.9761 29.9749 26.8625 29.9749 26.7419C29.9749 26.6195 30.0229 26.5073 30.1079 26.4212L32.5996 23.9295C32.4603 23.567 32.3009 23.213 32.1209 22.8651L29.3371 25.65C28.7353 26.2522 28.7353 27.2301 29.3371 27.8319Z" fill="#CFCFCF"/>
<path d="M45.1876 28.5969L36.8795 20.2899C36.2777 19.6877 35.2994 19.6877 34.6976 20.2899L33.0361 21.951C33.2249 22.2878 33.3939 22.632 33.5467 22.9824L35.4684 21.0607C35.5549 20.9757 35.6671 20.9273 35.7891 20.9273C35.9101 20.9273 36.0222 20.9757 36.1087 21.0607L44.4157 29.3688C44.592 29.544 44.592 29.8313 44.4157 30.0076L43.8864 30.5369L44.8042 31.1622L45.1876 30.7788C45.7883 30.1781 45.7883 29.1987 45.1876 28.5969Z" fill="#CFCFCF"/>
<path d="M32.1211 22.8651C32.3011 23.213 32.4605 23.567 32.5998 23.9295L33.5469 22.9824C33.394 22.632 33.2251 22.2878 33.0363 21.951L32.1211 22.8651Z" fill="#CFCFCF"/>
<path d="M32.6252 31.1215L33.5753 32.0712C33.7344 31.7025 33.8747 31.3275 33.9946 30.9478L32.9918 29.945C32.8943 30.3445 32.7711 30.7367 32.6252 31.1215Z" fill="#CFCFCF"/>
<mask id="mask1_68_74" style="mask-type:luminance" maskUnits="userSpaceOnUse" x="40" y="24" width="17" height="18">
<path d="M40.355 24.873H56.6658V41.481H40.355V24.873Z" fill="white"/>
</mask>
<g mask="url(#mask1_68_74)">
<path d="M56.3451 41.4154C56.0702 41.5401 55.748 41.4191 55.6234 41.1442L50.6346 30.1249C50.0031 28.731 48.7312 27.7234 47.2303 27.4288L41.3713 26.2016L40.3748 24.8781L47.4473 26.3592C49.2876 26.7221 50.8516 27.9617 51.6286 29.6748L56.6163 40.6941C56.7409 40.969 56.6189 41.2923 56.3451 41.4154Z" fill="#CFCFCF"/>
</g>
<mask id="mask2_68_74" style="mask-type:luminance" maskUnits="userSpaceOnUse" x="40" y="28" width="12" height="16">
<path d="M40.7305 28.3447H51.3334V43.2312H40.7305V28.3447Z" fill="white"/>
</mask>
<g mask="url(#mask2_68_74)">
<path d="M51.1882 43.0164C51.0057 43.2558 50.663 43.3016 50.4236 43.119L47.7916 41.1072C47.4892 40.8766 47.2304 40.6248 47.0245 40.3609C46.5395 39.7404 46.2386 38.9982 46.1562 38.2149L45.9304 36.081C45.886 35.6642 45.6863 35.2842 45.3678 35.0104L42.0771 32.1921C41.3543 31.5716 40.8994 30.7147 40.7895 29.7709C40.7316 29.2727 40.9573 28.7721 41.3902 28.5203C41.7985 28.2824 42.2955 28.2945 42.6914 28.5547L48.5686 32.4165C48.8201 32.5818 48.8904 32.9197 48.7251 33.1715C48.5598 33.4229 48.2219 33.4933 47.9705 33.328L42.0932 29.4663C42.0291 29.4245 41.9737 29.4417 41.9378 29.4637C41.9008 29.485 41.8601 29.5268 41.8674 29.6034C41.9367 30.2891 42.2633 30.9144 42.7878 31.3634L46.077 34.1827C46.6074 34.638 46.9405 35.2706 47.0146 35.9663L47.2403 38.1002C47.3019 38.6797 47.524 39.2298 47.884 39.6902C48.0331 39.88 48.2245 40.0662 48.4539 40.2414L51.0859 42.2518C51.3253 42.4344 51.3707 42.7771 51.1882 43.0164Z" fill="#CFCFCF"/>
</g>
</g>
<defs>
<clipPath id="clip0_68_74">
<rect width="56.2986" height="56.2986" fill="white" transform="translate(0.383057 0.383087)"/>
</clipPath>
</defs>
</svg>
