<svg width="48" height="48" viewBox="0 0 48 48" fill="none" xmlns="http://www.w3.org/2000/svg">
<g clip-path="url(#clip0_67_12)">
<path d="M23.8623 0.744843C10.9281 0.744843 0.404541 11.2684 0.404541 24.2026C0.404541 37.1367 10.9281 47.6603 23.8623 47.6603C36.7964 47.6603 47.32 37.1367 47.32 24.2026C47.32 11.2684 36.7964 0.744843 23.8623 0.744843ZM10.6878 39.9208C10.9062 32.8349 16.7239 27.1348 23.8623 27.1348C31.0007 27.1348 36.8184 32.8349 37.0368 39.9208C33.4683 42.9159 28.8748 44.7281 23.8623 44.7281C18.8497 44.7281 14.2562 42.9159 10.6878 39.9208ZM16.5317 16.872C16.5317 12.8299 19.8201 9.54149 23.8623 9.54149C27.9045 9.54149 31.1928 12.8299 31.1928 16.872C31.1928 20.9142 27.9045 24.2026 23.8623 24.2026C19.8201 24.2026 16.5317 20.9142 16.5317 16.872ZM39.6874 37.2583C38.626 31.7781 34.7817 27.2918 29.6901 25.308C32.3657 23.4549 34.125 20.3657 34.125 16.872C34.125 11.2144 29.5199 6.60928 23.8623 6.60928C18.2046 6.60928 13.5995 11.2144 13.5995 16.872C13.5995 20.3657 15.3588 23.4549 18.0345 25.3095C12.9428 27.293 9.09856 31.7793 8.03564 37.2598C5.10189 33.7088 3.33676 29.158 3.33676 24.2026C3.33676 12.8842 12.5439 3.67706 23.8623 3.67706C35.1806 3.67706 44.3878 12.8842 44.3878 24.2026C44.3878 29.158 42.6227 33.7088 39.6874 37.2583Z" fill="#CFCFCF"/>
</g>
<defs>
<clipPath id="clip0_67_12">
<rect width="46.9155" height="46.9155" fill="white" transform="translate(0.404541 0.744843)"/>
</clipPath>
</defs>
</svg>
