<svg width="1600" height="280" viewBox="0 0 1600 280" fill="none" xmlns="http://www.w3.org/2000/svg">
<path d="M85.1979 51.0635C85.1979 50.5451 85.7163 49.7675 86.2348 48.9898C86.7532 48.2122 87.5308 47.6938 88.3084 46.9162C89.086 46.3978 90.1228 45.8794 90.9004 45.361C91.9373 45.1018 92.7149 44.8425 93.4925 44.8425H133.151C134.966 44.8425 136.521 45.361 137.558 46.3978C138.594 47.4346 139.631 48.4715 140.409 49.2491L144.297 58.0621L225.947 268.278C226.725 270.352 226.725 271.907 225.429 273.203C224.392 274.5 222.318 275.277 219.467 275.277H174.883C172.55 275.277 170.736 274.759 169.44 273.981C168.144 273.203 167.107 271.648 166.33 269.575C164.256 264.39 162.182 258.947 160.368 253.763C158.294 248.579 156.48 243.395 154.406 237.951H71.9784C69.9047 243.135 68.0903 248.579 66.0166 253.763C63.9429 258.947 62.1285 264.131 60.0549 269.575C58.7589 273.463 56.1668 275.277 52.0195 275.277H6.13994C4.06629 275.277 2.51107 274.759 1.21504 273.722C-0.0809966 272.685 -0.340211 271.13 0.437408 269.056L85.1979 51.0635ZM113.451 117.68C111.378 122.864 109.563 128.566 107.49 134.787C105.416 141.008 103.602 146.97 101.528 153.191C99.4543 159.412 97.6398 165.633 95.5662 171.595C93.4925 177.556 91.6781 183.259 89.6044 188.702H137.298L113.451 117.68Z" fill="#7B6658"/>
<path d="M280.121 214.364C282.972 217.215 285.823 219.548 289.193 221.362C292.563 223.177 295.673 224.732 298.525 226.028C301.635 227.324 304.227 228.101 306.56 228.62C308.893 229.138 310.448 229.397 311.226 229.397C313.299 229.397 315.632 229.398 318.743 229.138C321.853 228.879 324.704 228.62 327.556 227.842C330.407 227.065 332.74 225.769 334.813 223.954C336.887 222.14 337.924 219.807 337.924 216.437C337.924 213.586 337.405 211.253 336.109 209.439C335.073 207.624 333.258 206.328 331.185 205.032C329.111 203.736 326.26 202.699 323.149 201.922C320.039 200.885 316.41 199.848 312.522 198.552C300.08 195.182 289.712 191.294 281.676 186.628C273.641 181.963 267.161 176.779 262.495 171.076C257.829 165.374 254.459 159.153 252.645 152.413C250.831 145.674 249.794 138.675 249.794 131.418C249.794 122.864 251.608 115.088 254.978 108.089C258.348 101.09 263.272 95.1286 269.493 89.9445C275.714 85.0196 283.491 81.1315 292.304 78.2802C301.117 75.4289 310.966 74.1328 321.594 74.1328C328.074 74.1328 334.295 74.6513 339.998 75.6881C345.7 76.725 351.143 78.5394 356.328 80.8723C361.512 83.2051 366.437 86.3156 371.362 89.9445C376.286 93.5734 381.211 97.9798 386.136 103.164C387.951 105.238 388.728 107.052 388.728 108.867C388.728 110.681 387.692 112.495 385.359 114.569C381.211 117.939 377.582 121.049 373.694 124.419C370.066 127.529 366.177 131.158 362.289 135.046C360.993 136.083 359.697 136.602 358.66 136.861C357.364 137.12 356.328 137.12 355.032 136.861C353.995 136.602 352.699 136.083 351.662 135.306C350.625 134.528 349.588 133.75 348.811 132.714C345.182 128.566 341.034 125.974 336.369 124.678C331.703 123.382 327.296 122.604 323.408 122.604C318.224 122.604 314.336 123.382 311.226 125.196C308.115 127.011 306.819 129.603 307.078 133.232C307.338 135.824 308.374 137.898 310.189 139.453C312.003 141.008 314.336 142.045 316.928 143.082C319.52 144.119 322.371 144.637 325.223 145.415C328.074 145.933 330.925 146.711 333.258 147.229C342.59 150.34 351.143 153.45 358.92 157.079C366.696 160.708 373.435 164.855 379.138 170.039C384.84 175.223 389.247 181.185 392.357 188.443C395.468 195.701 397.023 204.254 397.023 214.623C397.023 224.991 394.949 234.063 390.802 242.099C386.655 250.134 381.211 256.873 373.954 262.576C366.696 268.019 358.401 272.167 348.551 275.277C338.701 278.128 328.333 279.684 316.928 279.684C310.448 279.684 303.968 279.165 297.229 277.869C290.489 276.832 284.268 275.018 278.047 272.426C271.826 269.834 265.865 266.723 260.421 262.576C254.978 258.429 249.794 253.763 245.387 248.06C244.35 246.505 243.314 245.209 242.795 243.395C242.277 241.839 242.018 240.284 242.018 238.729C242.018 237.174 242.277 235.878 243.054 234.582C243.573 233.286 244.61 232.249 245.646 231.212L265.605 211.253C268.197 209.179 270.271 208.402 272.085 209.179C274.678 209.698 277.01 211.512 280.121 214.364Z" fill="#7B6658"/>
<path d="M430.202 11.9235C430.202 7.517 431.239 4.40651 433.053 2.59206C434.867 0.777619 437.719 0 441.866 0H477.896C481.525 0 484.376 1.03683 486.709 2.59206C489.042 4.40651 490.078 7.517 490.078 11.9235V42.2506C490.078 43.5466 489.819 44.8427 489.301 46.3979C488.782 47.9532 488.005 49.2492 486.968 50.5453C485.931 51.8413 484.635 52.8781 483.08 53.9149C481.525 54.6925 479.969 55.2109 478.155 55.2109H442.125C434.349 55.2109 430.72 50.8044 430.72 42.2506V11.9235H430.202Z" fill="#7B6658"/>
<path d="M430.202 90.7225C430.202 87.3528 431.239 84.5016 433.053 82.1687C434.867 79.8359 437.719 78.5398 441.866 78.5398H477.377C478.673 78.5398 479.969 78.799 481.525 79.3174C483.08 79.8358 484.376 80.6134 485.672 81.9094C486.968 83.2055 488.005 84.2423 488.782 85.7975C489.56 87.3528 490.078 88.9081 490.078 90.7225V263.872C490.078 267.76 489.042 270.871 486.709 272.685C484.635 274.759 481.525 275.796 477.377 275.796H441.866C434.09 275.796 430.461 271.908 430.461 263.872V90.7225H430.202Z" fill="#7B6658"/>
<path d="M531.292 81.3908C532.588 80.354 534.143 79.5762 535.439 79.317C536.994 79.0578 538.291 78.7987 539.587 78.7987H562.915C564.73 78.7987 566.285 79.0579 567.84 79.8355C569.136 80.6131 570.432 81.3907 571.21 82.4275C572.247 83.4644 572.765 84.7604 573.543 86.3156C574.061 87.8709 574.579 89.1669 575.098 90.7222L578.468 104.46C580.023 101.35 582.615 97.9799 585.984 94.6103C589.354 91.2406 593.761 88.1302 598.945 85.2789C604.129 82.4276 610.091 80.0947 616.83 78.2803C623.569 76.4659 631.086 75.6882 639.381 75.6882C651.305 75.6882 661.673 78.021 671.004 82.4275C680.336 87.0932 688.112 93.055 694.592 101.09C701.072 108.867 705.997 118.198 709.367 128.566C712.736 138.934 714.292 150.34 714.292 162.263V264.131C714.292 268.019 713.514 271.13 711.7 272.944C709.885 275.018 707.293 276.055 703.664 276.055H667.894C663.487 276.055 660.377 275.277 658.821 273.722C657.266 272.167 656.229 269.315 656.229 264.909V163.818C656.229 159.412 655.193 155.265 653.119 151.117C651.045 147.229 648.453 143.6 645.084 140.49C641.714 137.379 638.085 135.047 633.938 133.232C629.79 131.418 625.384 130.64 621.237 130.64C617.608 130.64 613.72 131.418 609.831 133.232C605.943 134.787 602.314 137.12 599.204 140.231C595.834 143.082 593.242 146.711 590.909 150.599C588.577 154.487 587.54 158.893 587.021 163.559V264.65C587.021 266.464 586.762 268.278 585.984 269.834C585.207 271.648 584.429 272.944 582.874 273.981C581.578 274.759 580.282 275.277 578.986 275.796C577.69 276.055 576.394 276.314 574.839 276.314H539.846C535.439 276.314 532.07 275.277 530.255 272.944C528.181 270.871 527.404 267.76 527.404 264.131V90.463C527.404 88.3894 527.922 86.5748 528.7 85.0196C529.477 83.4644 530.774 82.1683 532.329 81.1315L531.292 81.3908Z" fill="#7B6658"/>
<path d="M878.11 215.141C879.665 214.104 880.961 213.586 882.257 213.068C883.553 212.808 884.59 212.808 885.368 212.808C887.182 212.808 888.737 213.068 890.293 213.845C891.848 214.623 893.144 216.178 894.699 218.511L912.066 244.691C912.584 245.468 913.103 246.505 913.621 247.542C914.14 248.579 914.399 249.356 914.399 250.134C914.399 252.467 913.621 254.541 912.066 255.837C910.511 257.133 908.955 258.688 907.141 259.725C898.587 265.687 889.256 270.352 879.147 273.981C869.038 277.61 858.41 279.424 847.005 279.424C837.674 279.424 828.601 278.128 820.048 275.796C811.494 273.463 803.458 270.093 795.942 265.686C788.425 261.28 781.685 256.096 775.464 249.875C769.243 243.654 764.059 236.915 759.653 229.398C755.246 221.881 751.876 213.586 749.544 205.032C747.211 196.219 745.915 187.147 745.915 177.556C745.915 167.966 747.211 158.894 749.544 150.08C751.876 141.267 755.246 133.232 759.653 125.715C764.059 118.198 769.243 111.459 775.464 105.238C781.685 99.0167 788.425 93.8326 795.942 89.4261C803.458 85.0196 811.494 81.6499 820.048 79.317C828.601 76.9842 837.674 75.6882 847.005 75.6882C858.41 75.6882 868.778 77.2435 878.369 80.0948C887.96 83.2052 897.032 87.6116 905.326 93.5734L904.808 93.0551C907.141 94.3511 908.955 95.9063 910.251 97.7208C911.547 99.5352 912.325 101.868 912.325 104.46C912.325 106.275 911.807 108.348 910.511 110.163L896.773 133.491C893.921 138.675 890.293 141.008 886.145 141.008C885.108 141.008 884.072 140.749 882.776 140.231C881.48 139.712 879.924 138.935 878.369 137.898C873.703 134.787 869.038 132.454 863.594 130.64C858.41 128.826 852.708 127.789 847.005 127.789C840.525 127.789 834.563 129.085 828.861 131.677C823.417 134.269 818.752 137.898 814.864 142.563C810.975 147.229 807.865 152.413 805.791 158.375C803.718 164.337 802.422 170.817 802.422 177.297C802.422 184.037 803.458 190.517 805.791 196.478C807.865 202.44 810.975 207.624 814.864 212.031C818.752 216.437 823.417 219.807 828.861 222.399C834.304 224.991 840.266 226.287 847.005 226.287C852.967 226.287 858.41 225.25 863.594 223.177C868.519 220.844 873.444 218.252 878.11 215.141Z" fill="#7B6658"/>
<path d="M937.469 177.297C937.469 167.707 938.765 158.634 941.098 149.821C943.431 141.008 947.059 132.973 951.466 125.456C955.872 117.939 961.057 111.2 967.277 104.979C973.498 98.7578 980.238 93.5738 987.755 89.1673C995.272 84.7608 1003.57 81.391 1012.12 79.0582C1020.93 76.7253 1030.01 75.4292 1039.6 75.4292C1053.59 75.4292 1066.81 78.0213 1079.25 83.2054C1091.7 88.3895 1102.32 95.6474 1111.66 104.72C1120.73 113.792 1127.99 124.679 1133.43 137.12C1138.87 149.562 1141.46 162.782 1141.46 177.297C1141.46 186.888 1140.17 195.96 1137.84 204.773C1135.5 213.586 1131.87 221.622 1127.47 229.139C1123.06 236.656 1117.88 243.654 1111.66 249.616C1105.43 255.837 1098.7 261.021 1091.18 265.428C1083.66 269.834 1075.63 273.204 1066.81 275.537C1058.26 277.869 1049.19 279.166 1039.6 279.166C1030.01 279.166 1020.93 277.869 1012.12 275.537C1003.31 273.204 995.272 269.834 987.755 265.428C980.238 261.021 973.239 255.837 967.277 249.616C961.057 243.395 955.872 236.656 951.466 229.139C947.059 221.622 943.69 213.327 941.098 204.773C938.765 195.96 937.469 186.888 937.469 177.297ZM994.235 177.297C994.235 184.037 995.272 190.517 997.345 196.479C999.419 202.44 1002.53 207.625 1006.42 212.031C1010.31 216.438 1014.97 219.807 1020.67 222.399C1026.38 224.991 1032.34 226.287 1039.34 226.287C1046.08 226.287 1052.04 224.991 1057.48 222.399C1062.92 219.807 1067.59 216.438 1071.22 212.031C1075.11 207.625 1077.96 202.44 1080.03 196.479C1082.11 190.517 1083.14 184.037 1083.14 177.297C1083.14 170.558 1082.11 164.337 1080.03 158.375C1077.96 152.414 1075.11 146.97 1071.22 142.564C1067.33 137.898 1062.92 134.528 1057.48 131.677C1052.04 129.085 1046.08 127.789 1039.34 127.789C1032.34 127.789 1026.12 129.085 1020.67 131.677C1015.23 134.269 1010.31 137.898 1006.42 142.564C1002.53 147.229 999.419 152.414 997.345 158.375C995.272 164.337 994.235 170.817 994.235 177.297Z" fill="#7B6658"/>
<path d="M1313.06 256.355C1310.21 259.206 1307.1 261.798 1303.47 264.65C1299.84 267.501 1295.95 269.834 1291.8 271.908C1287.66 273.981 1282.99 275.796 1278.32 277.092C1273.4 278.388 1268.47 279.165 1263.03 279.165C1249.03 279.165 1236.07 276.573 1224.15 271.13C1212.23 265.946 1202.12 258.688 1193.56 249.357C1185.01 240.284 1178.27 229.398 1173.61 216.956C1168.68 204.514 1166.35 191.294 1166.35 176.779C1166.35 162.263 1168.68 149.044 1173.61 136.602C1178.53 124.16 1185.01 113.532 1193.56 104.201C1202.12 95.1287 1212.23 87.871 1224.15 82.6869C1236.07 77.5027 1249.03 74.9107 1263.03 74.9107C1268.73 74.9107 1273.92 75.429 1278.58 76.4658C1283.25 77.5027 1287.66 78.7986 1291.54 80.6131C1295.43 82.4275 1299.06 84.7605 1302.17 87.3525C1305.54 89.9446 1308.39 92.7959 1311.5 95.9063V31.1047C1311.5 27.735 1312.54 24.8837 1314.61 22.8101C1316.69 20.4772 1319.54 19.4404 1323.69 19.4404H1358.68C1359.97 19.4404 1361.53 19.6996 1362.83 20.218C1364.38 20.7364 1365.68 21.5141 1366.97 22.5509C1368.27 23.5878 1369.31 24.8838 1370.08 26.1798C1370.86 27.7351 1371.12 29.2903 1371.12 31.1047V263.354C1371.12 271.389 1366.97 275.277 1358.42 275.277H1328.09C1326.02 275.277 1324.46 275.018 1323.17 274.5C1322.13 273.981 1321.09 273.204 1320.32 272.167C1319.54 271.13 1318.76 269.834 1318.24 268.538C1317.72 266.983 1316.95 265.427 1315.91 263.354L1313.06 256.355ZM1222.08 177.297C1222.08 184.037 1223.11 190.517 1225.19 196.478C1227.26 202.44 1230.37 207.624 1234.26 212.031C1238.15 216.437 1242.81 219.807 1248.52 222.399C1253.96 224.991 1260.18 226.287 1266.92 226.287C1273.66 226.287 1279.88 224.991 1285.58 222.658C1291.54 220.325 1296.47 216.956 1300.88 212.808C1305.28 208.661 1308.65 203.736 1311.24 198.034C1313.84 192.331 1315.39 186.11 1315.65 179.63V177.556C1315.65 170.817 1314.35 164.596 1312.02 158.634C1309.43 152.673 1306.06 147.229 1301.65 142.823C1297.25 138.157 1292.06 134.787 1286.1 131.936C1280.14 129.344 1273.66 128.048 1266.66 128.048C1259.92 128.048 1253.7 129.344 1248.26 131.936C1242.81 134.528 1237.89 138.157 1234 142.823C1230.11 147.488 1227 152.673 1224.93 158.634C1223.11 164.337 1222.08 170.817 1222.08 177.297Z" fill="#7B6658"/>
<path d="M1577.71 252.208C1568.64 260.502 1558.27 267.242 1546.86 271.908C1535.46 276.573 1523.28 278.906 1510.57 278.906C1496.32 278.906 1483.1 276.314 1470.4 271.13C1457.7 265.946 1446.55 258.688 1437.22 249.616C1427.63 240.543 1420.11 229.657 1414.41 217.215C1408.71 204.773 1406.11 191.294 1406.11 176.779C1406.11 167.707 1407.15 158.893 1409.48 150.34C1411.82 141.786 1414.93 133.75 1419.07 126.233C1423.22 118.716 1428.15 111.977 1434.11 105.756C1440.07 99.5352 1446.55 94.0918 1453.81 89.6853C1461.07 85.2788 1468.84 81.6499 1477.4 79.317C1485.95 76.725 1494.76 75.6882 1504.35 75.6882C1512.91 75.6882 1521.2 76.725 1529.24 79.0579C1537.27 81.3907 1544.79 84.5012 1552.05 88.6486C1559.05 92.7959 1565.53 97.7207 1571.49 103.682C1577.45 109.385 1582.37 115.865 1586.78 122.605C1590.93 129.603 1594.3 136.861 1596.63 144.637C1598.96 152.413 1600 160.449 1600 168.743C1600 174.187 1600 178.593 1599.74 181.963C1599.48 185.333 1598.7 188.184 1597.41 189.998C1595.85 192.072 1593.52 193.368 1590.15 194.146C1586.78 194.923 1581.86 195.182 1575.38 195.182H1463.4C1464.44 201.922 1466.51 207.365 1469.62 211.772C1472.73 216.178 1476.36 219.807 1480.51 222.399C1484.65 224.991 1489.06 226.806 1493.73 228.102C1498.39 229.138 1502.8 229.916 1506.95 229.916C1510.57 229.916 1514.46 229.398 1518.35 228.62C1522.24 227.842 1526.13 226.806 1529.76 225.509C1533.38 224.213 1536.75 222.658 1539.86 221.103C1542.97 219.548 1545.31 217.733 1547.12 215.66C1548.68 214.364 1550.23 213.327 1551.27 212.549C1552.57 211.772 1553.6 211.512 1555.16 211.512C1556.71 211.512 1557.75 212.031 1559.3 212.808C1560.6 213.845 1562.16 215.141 1563.97 216.956L1580.56 235.619C1581.6 236.915 1582.37 238.211 1582.63 239.247C1582.89 240.284 1583.15 241.321 1583.15 242.617C1583.15 244.691 1582.63 246.505 1581.34 248.06C1580.56 249.875 1579.26 251.171 1577.71 252.208ZM1503.06 122.864C1498.91 122.864 1495.02 123.641 1491.39 125.197C1487.5 126.752 1484.13 128.825 1480.77 131.677C1477.4 134.269 1474.54 137.379 1471.95 140.749C1469.36 144.119 1467.29 147.748 1465.47 151.117H1544.79C1542.72 146.97 1540.38 143.341 1537.79 139.971C1535.2 136.602 1532.35 133.491 1528.98 130.899C1525.61 128.307 1521.98 126.233 1517.83 124.937C1513.43 123.641 1508.5 122.864 1503.06 122.864Z" fill="#7B6658"/>
</svg>
