<?xml version="1.0" encoding="UTF-8"?>
<svg id="Capa_2" data-name="Capa 2" xmlns="http://www.w3.org/2000/svg" viewBox="0 0 492.07 378.02">
  <defs>
    <style>
      .cls-1 {
        fill: #fed700;
      }

      .cls-2 {
        fill: #fe7e00;
      }

      .cls-3 {
        fill: #01d1a0;
      }

      .cls-4 {
        fill: #dc3731;
      }

      .cls-5 {
        fill: #172e58;
      }
    </style>
  </defs>
  <g id="Capa_1-2" data-name="Capa 1">
    <g>
      <circle class="cls-5" cx="262.99" cy="14.01" r="14.01"/>
      <circle class="cls-5" cx="308.49" cy="16.96" r="13.43"/>
      <circle class="cls-5" cx="211.4" cy="19.04" r="14.66"/>
      <circle class="cls-5" cx="164.73" cy="35.31" r="14"/>
      <circle class="cls-5" cx="348.99" cy="33.91" r="12.59"/>
      <path class="cls-1" d="m389.14,119.55c8.28,18.66,13.56,38.42,17.47,58.42,5.39,27.52,8.68,55.3,9.87,83.33.3,6.9,1.18,21.52-9.01,21.87-4.18.14-10.27-.6-12.43-4.33-.63-1.1-.93-2.85-.89-5.24.21-13.02-.55-23.77-1.24-35.66-.38-6.71-1.26-13.33-2.05-20-3.5-30.02-10.43-59.7-22.15-87.21-2.41-5.65-4.77-10.43-7.07-14.33-31.16-52.83-96.37-63.13-150.89-45.24-22.91,7.52-43.42,18.99-61.53,34.43-14.97,12.75-26.2,30.56-34.28,48.45-17.47,38.65-25.89,79.76-30.58,123.07-.23,2.12-1.11,3.98-2.65,5.6-7.34,7.7-19.21,2.39-20.73-7.41-.44-2.82-.41-8.48.07-16.99.31-5.43,1.01-11.73,2.09-18.88,5.94-39.15,21.87-77.85,41.76-111.97,15.16-25.99,36.1-47.87,61.78-62.56,23.72-13.57,48.89-21.66,75.49-24.26,8.51-.84,18.03-1.01,28.56-.51,51.8,2.43,97.26,31.8,118.4,79.44Z"/>
      <circle class="cls-5" cx="385.24" cy="58.91" r="12.6"/>
      <circle class="cls-5" cx="121.95" cy="63.49" r="12.61"/>
      <path class="cls-2" d="m234.82,97.47c-58.4,9.87-92.32,51.87-109.47,105.67-7.94,24.9-12.86,50.38-14.74,76.44-.19,2.57-.54,4.45-1.07,5.63-4.52,10.16-19.01,7.89-20.87-2.69-.2-1.15-.17-4.11.08-8.88,1.27-24.1,5.32-47.74,12.13-70.91,17.81-60.58,56.65-109.06,120.12-124.67,17.34-4.26,35.26-6.02,53.76-5.26,2.88.12,7.46.82,13.76,2.11,84.45,17.3,98.81,139.32,97.51,206.78-.14,7.23-5.04,9.82-11.74,9.74-6.58-.07-9.15-5.44-10.16-11.14-1.81-10.24-1.71-20.56-2.04-30.91-.24-7.52-1.02-15.1-1.54-22.67-.54-7.66-2.05-17.87-4.52-30.63-2.84-14.65-6.97-28.61-12.39-41.86-4.8-11.73-11.71-24.26-20.31-33.51-23.4-25.18-55.93-28.75-88.5-23.24Z"/>
      <circle class="cls-5" cx="409.12" cy="98" r="12.6"/>
      <circle class="cls-5" cx="90.64" cy="102.72" r="12.61"/>
      <path class="cls-4" d="m142.42,175.53c15.91-34.12,44.86-57.86,81.56-66.76,40.93-9.92,84.45,2.97,106.24,40.28,10.57,18.09,17.19,38.32,21.15,58.83,4.61,23.83,6.67,47.88,6.2,72.14-.04,2.25.32,7.09-.3,9.08-2.85,9.16-17.3,8.55-20.84.41-.64-1.46-.94-3.92-.91-7.38.41-47.9-8.92-138.83-68.16-153.76-15.01-3.78-31.85-2.4-46.74,1.76-64.19,17.9-77.97,96.29-77.55,152.16.06,8.19-10.38,9.23-15.62,5.76-4.21-2.78-4.92-6.66-5.01-11.86-.59-33.88,5.37-69.33,19.99-100.66Z"/>
      <circle class="cls-5" cx="67.96" cy="144.12" r="12.61"/>
      <circle class="cls-5" cx="429.96" cy="144.12" r="12.61"/>
      <path class="cls-3" d="m237.79,159.94c-40.67,2.02-58.31,37.96-64.41,73.26-2.79,16.18-3.97,32.47-3.52,48.89.22,8.25-7.7,13.24-14.56,8.08-2.72-2.04-4.41-4.73-5.07-8.09-.91-4.57-1.26-11.24-1.06-19.99,1.04-46.66,19.56-112.31,72.59-124.92,11.6-2.76,23.6-2.93,36.02-.52,51.13,9.94,67.28,62.34,71.05,106.87,1.34,15.86,1.97,32.66,0,47.89-1.66,12.82-21.24,12.18-23.93.52-.29-1.28-.33-3.72-.1-7.32.69-11.16.79-22.33.3-33.5-.26-6.06-1.06-12.26-1.81-18.4-3.85-30.88-16.12-66.58-51.51-72.54-2.86-.49-7.53-.57-13.99-.24Z"/>
      <path class="cls-5" d="m208.05,219.97c-7.91,18.81-8.9,38.63-8.84,59.51.03,13.28-16.83,15.57-20.71,3.16-.54-1.73-.92-4.12-1.12-7.16-.8-11.93.26-21.05,1.42-31.77.73-6.73,2.52-14.79,5.36-24.19,7.31-24.19,24.03-48.47,52.02-49.4,35.34-1.17,52.03,28.81,57.72,59.02,3.15,16.73,4.31,33.78,3.48,51.16-.18,3.69-.3,7.58-1.93,10.67-4.92,9.28-18.46,7.46-21.79-1.98-.64-1.82-.86-5.11-.67-9.89.57-14.28.25-28.04-2.04-42.17-1.81-11.24-5.93-25.22-14.03-33.12-6.65-6.48-13.8-7.48-22.94-6.64-12.1,1.1-21.39,12.06-25.93,22.82Z"/>
      <circle class="cls-5" cx="51.42" cy="187.37" r="12.6"/>
      <circle class="cls-5" cx="439.37" cy="187.36" r="12.6"/>
      <circle class="cls-5" cx="40.66" cy="227.84" r="11.61"/>
      <circle class="cls-5" cx="444.75" cy="227.84" r="11.62"/>
      <circle class="cls-5" cx="36" cy="272.18" r="10.87"/>
      <circle class="cls-5" cx="447.46" cy="272.18" r="10.87"/>
      <path class="cls-5" d="m29.01,335.77c1.11.55,2.25.99,3.17,1.65,6.8,4.84,7.04,13.97,4.75,21.19-4.23,13.31-16.71,19.05-30.2,17.38-2.99-.38-3.93-2.69-4.55-5.2-1.23-4.98-1.92-10.04-2.07-15.17-.41-13.44.23-26.83,1.92-40.17.14-1.11.63-2.48,1.47-4.09,2.56-4.92,6.28-4.41,11.07-3.66.27.04.52,0,.77-.1,7.54-3.14,20.47-2.85,23.1,6.52,2.26,8.03-3.81,15.9-9.52,21.01-.28.25-.25.46.09.62Zm-13.91-2.85c4.66-2.4,12.45-8.75,11.06-14.83-.91-4.05-4.81-3.4-7.59-1.99-.21.1-.36.29-.41.52l-3.51,15.96c-.03.17.07.33.24.37.07.01.14,0,.2-.02Zm9.31,26.17c1.26-3.69,2.14-10.53-.77-13.67-2.3-2.49-6.23-2.17-9.39-1.85-.24.02-.42.21-.44.45-.63,7.15.42,14.96,1.26,22.19.05.42.43.71.84.66.03,0,.06,0,.09-.02,4.19-1.04,6.99-3.63,8.39-7.75Z"/>
      <path class="cls-5" d="m116.7,340.14c3.97,2.02,6.6,4.92,7.91,8.69,2.27,6.52,3.79,16.84-.08,23.08-1.61,2.6-5.19,3.07-7.83,2.28-3.19-.96-5.04-4.06-5.4-7.27-.53-4.6,2.86-10.54.46-15-1.79-3.33-6.51-3.25-9.96-2.68-.22.04-.38.24-.37.46.15,5.95.69,11.85,1.63,17.71.28,1.74-.09,3.53-1.13,5.36-1.66,2.93-4.06,3.72-7.3,3.31-3.65-.46-4.68-3.95-5.29-7.46-2.82-16.1-1.3-32.44-.2-48.71.46-6.81,2.41-14.09,11.31-12.39,1.22.24,2.2.49,3.41-.02,8.41-3.49,20.46-1.93,22.5,8.78,1.55,8.13-3.73,17.52-9.76,23.26-.26.25-.23.45.09.61Zm-3.74-14.02c2.65-5.36.87-12.59-6.89-8.44-.23.12-.38.31-.44.56-1.71,6.24-2.97,12.56-3.78,18.97-.06.5.12.63.56.38,4.56-2.66,8.08-6.48,10.55-11.46Z"/>
      <path class="cls-5" d="m160.96,340.14c4.19,2.17,6.97,5.53,8.35,10.08,1.63,5.41,4.08,21.35-3.31,23.85-5.26,1.77-9.82-1.59-10.51-6.84-.69-5.16,4.43-14.05-1.7-17.4-2.02-1.1-5.09-.98-7.39-.71-.64.07-.94.43-.88,1.08.59,6.28,1.1,12.21,1.51,17.8.42,5.68-2.3,8.41-8.15,8.19-8.59-.34-6.74-31.96-6.68-37.58.08-7.85.86-15.28,1.73-22.94.66-5.79,4.48-9.31,10.49-8.21.82.15,1.65.27,2.48.38.26.03.51,0,.76-.11,8.19-3.71,19.85-2.33,22.55,7.16,2.52,8.89-3.13,18.44-9.34,24.65-.25.25-.21.45.1.61Zm-14.27-2.5c5.32-3.41,14.45-12.59,10.67-19.69-1.3-2.45-5.24-1.34-7.11-.19-.19.12-.32.29-.38.51-1.81,6.23-3.06,12.56-3.75,19.01-.02.21.12.39.33.42.09,0,.17-.01.25-.06Z"/>
      <path class="cls-5" d="m200.19,345.28c-4.58-.77-8.68-2.88-12.32-6.31-7.68-7.24-11.02-16.48-10.05-27.72.41-4.72,3.24-5.88,7.41-5.4,4.14.47,5.16,3.02,5.04,6.8-.16,5.17.7,11.76,3.98,15.94,2.7,3.44,6.88,2.46,7.17-2.13.44-6.8.02-20,10.36-19.26,11.59.83,6.04,12.62,4.64,19.07-2.01,9.31-2.7,18.69-2.08,28.17.27,4,1.21,9.39,1.46,13.59.2,3.26-1.73,7.22-5.17,7.98-6.87,1.5-8.22-4.17-8.9-9.35-.9-6.92-1.28-13.88-1.15-20.87,0-.28-.13-.44-.41-.49Z"/>
      <path class="cls-5" d="m434.28,308.4c12.35,5.42,16.33,20.65,14.75,33.05-1.77,13.97-10.52,25.63-23.32,31.71-1.89.9-4.15,1.18-6.22,1.57-3.55.69-8.47,3.73-10.31-1.75-1.32-3.94-2.06-7.99-2.21-12.15-.45-12.33-.3-24.66.44-36.97.27-4.56.82-8.35,1.65-11.39,1.07-3.93,3.77-4.91,7.66-5.42,6.35-.84,11.14-1.47,17.57,1.35Zm-.55,38.29c3.31-8.35,2.17-18.77-6.54-23.19-1.79-.91-3.62-.31-3.92,1.76-1.34,9.52-2.25,19.64-2.73,30.37-.05,1.09.15,2.1.62,3.04.32.66,1.09.96,1.77.7,4.61-1.73,9.07-8.27,10.8-12.68Z"/>
      <path class="cls-5" d="m297.32,372.25c-2.25-7.56-2.5-13.88-2.6-22.77-.1-9.95.46-20.55,1.68-31.82.56-5.12,2.25-10.21,8.19-10.51,12.92-.66,7.51,12.04,6.05,18.67-3.08,14.06-2.52,27.05-.94,40.81.65,5.66-2.09,10.54-8.41,9.49-1.97-.33-3.29-1.61-3.97-3.86Z"/>
      <path class="cls-5" d="m334.63,336.6c3.53.08,6.64-.9,9.94-1.72,4.75-1.17,6.12,6.25,5.26,9.31-1.21,4.33-12.1,5.37-15.56,5.24-.34-.01-.62.25-.63.58,0,.03,0,.06,0,.08l1.05,12.02c.05.54.5.95,1.04.94,4.96-.07,9.57-1.12,13.84-3.15,6.33-3.01,8.52,3.73,7.69,8.32-.89,4.91-16.05,7.32-19.99,7.56-2.39.15-5.44.27-9.15.37-2.58.06-4.31-1.04-5.18-3.33-.94-2.45-1.57-4.98-1.89-7.6-1.88-15.34-.48-30.94.62-46.39.3-4.2,1.69-9.82,6-11.25.86-.29,2.52-.4,4.96-.33,7.16.21,17.1-.9,23.12,3.31,2.88,2.01,1.87,10.1-1.6,11.23-.86.28-2.19.15-4-.4-4.05-1.22-8.07-1.79-12.3-1.3-.35.04-.56.23-.63.58l-2.97,15.42c-.06.31.06.47.38.48Z"/>
      <path class="cls-5" d="m379.25,360.23c.34,2.72,2.39,2.73,4.61,2.33,2.71-.5,5.31-1.34,7.81-2.52,1.62-.76,3.02-1.11,4.19-1.03,3.56.22,4.56,7.27,4.01,9.43-1.04,4.17-10.9,5.69-14.25,6.45-4.61,1.05-8.93,1.2-13.54,1.19-6.16-.02-7-5.8-7.2-10.64-.68-16.03-.14-32.01,1.64-47.94.62-5.53,2.72-10.34,8.95-10.31,7.19.03,8.78,4.65,7.29,10.69-.66,2.7-1.3,5.39-1.9,8.07-2.56,11.32-3.1,22.75-1.61,34.27Z"/>
      <path class="cls-5" d="m59.91,336.67c2.69-.09,5.61-.63,8.78-1.63,5.6-1.76,7.34,5.7,6.08,9.46-1.46,4.36-12.06,4.66-15.51,5.12-.4.05-.58.27-.54.68l1.1,12.02c.04.44.29.66.73.68,4.74.15,9.3-.83,13.7-2.95,1.68-.81,3.09-1.15,4.24-1.03,3.33.35,4.3,7,3.85,9.23-.62,3.09-7.04,5.14-9.75,5.75-6.76,1.51-10.57,2.05-17.4,2.11-3.89.04-5.87.26-7.32-3.88-2.83-8.02-2.89-19.16-2.46-27.58.17-3.4-.09-6.92.15-10.12.41-5.35.79-10.71,1.16-16.06.33-4.76,2.69-11.62,8.78-11.28,7.83.44,19-1.08,25.34,3.33,2.91,2.03,1.92,10.47-1.85,11.42-.79.2-2.09.02-3.89-.56-3.9-1.24-7.9-1.67-12.02-1.3-.28.02-.45.17-.52.44-1.39,5.16-2.4,10.4-3.04,15.71-.04.31.1.46.41.45Z"/>
      <path class="cls-5" d="m267.57,350.06c.1,5.79.61,11.54,1.55,17.25.11.69-.03,1.79-.42,3.31-1.2,4.62-4.21,6.38-9.03,5.28-6.81-1.54-5.7-28.53-5.72-33.91-.02-8.11.91-16.33,1.53-24.54.24-3.22,1.87-8.03,5.25-9.57.93-.43,2.46-.64,4.57-.64,7.25-.02,17-.61,23.45,2.8,3.74,1.97,2.48,8.72.38,11.16-1.05,1.22-3.14.9-4.75.37-4.16-1.39-8.44-1.9-12.84-1.52-.32.03-.51.2-.57.51l-3.08,15.54c-.07.37.08.55.46.54,2.16-.04,4.3-.33,6.42-.87,2.47-.63,3.99-.92,4.56-.86,3.85.42,5.07,5.79,4.34,8.87-1.23,5.15-11.82,5.25-15.67,5.76-.29.04-.44.21-.43.5Z"/>
      <path class="cls-5" d="m471.47,322.31c-2.62,1.26-3.01,6.42-2.68,8.95.37,2.87,1.83,4.89,4.37,6.05,3.06,1.4,6.12,2.83,9.15,4.29,7.7,3.7,10.68,10.88,9.1,19.12-1.86,9.7-10.13,16.52-19.98,17.23-3.57.26-12.79-.08-15.01-2.83-3.46-4.29,1.66-9.25,5.84-9.57.67-.05,1.94.17,3.83.66,7.52,1.98,13.23-.82,12.54-9.2-.41-4.82-6.4-6.52-10.82-8.35-11.29-4.68-15.34-15.35-10.42-26.61,5.25-12,18.58-13.7,30.04-10.59,4.09,1.11,6.07,4.41,3.43,8.03-5,6.89-12.93-.27-19.4,2.81Z"/>
    </g>
  </g>
</svg>