<svg xmlns="http://www.w3.org/2000/svg" xmlns:xlink="http://www.w3.org/1999/xlink" width="2048" zoomAndPan="magnify" viewBox="0 0 1536 397.499983" height="530" preserveAspectRatio="xMidYMid meet" version="1.0"><defs><clipPath id="7074860465"><path d="M 496.746094 123 L 578.746094 123 L 578.746094 272.410156 L 496.746094 272.410156 Z M 496.746094 123 " clip-rule="nonzero"/></clipPath><clipPath id="2a85edaafe"><path d="M 1455 133 L 1532.472656 133 L 1532.472656 275.863281 L 1455 275.863281 Z M 1455 133 " clip-rule="nonzero"/></clipPath><clipPath id="9b49ef42b2"><path d="M 238 54.039062 L 266 54.039062 L 266 81 L 238 81 Z M 238 54.039062 " clip-rule="nonzero"/></clipPath></defs><g clip-path="url(#7074860465)"><path fill="#3a2618" d="M 557.847656 186.976562 C 560.179688 188.136719 562.585938 189.058594 564.519531 190.453125 C 578.84375 200.625 579.347656 219.824219 574.519531 235.003906 C 565.617188 262.996094 539.332031 275.0625 510.921875 271.554688 C 504.628906 270.753906 502.644531 265.894531 501.339844 260.613281 C 498.746094 250.144531 497.296875 239.503906 496.984375 228.722656 C 496.121094 200.460938 497.460938 172.304688 501.027344 144.25 C 501.316406 141.917969 502.355469 139.035156 504.117188 135.648438 C 509.511719 125.304688 517.347656 126.375 527.4375 127.957031 C 528.003906 128.039062 528.53125 127.957031 529.050781 127.742188 C 544.933594 121.144531 572.164062 121.753906 577.707031 141.457031 C 582.460938 158.34375 569.675781 174.890625 557.660156 185.632812 C 557.066406 186.160156 557.132812 186.597656 557.847656 186.933594 Z M 528.546875 180.988281 C 538.367188 175.9375 554.765625 162.585938 551.84375 149.800781 C 549.921875 141.285156 541.710938 142.652344 535.855469 145.617188 C 535.417969 145.832031 535.097656 146.226562 534.988281 146.710938 L 527.601562 180.269531 C 527.535156 180.632812 527.75 180.960938 528.105469 181.054688 C 528.253906 181.070312 528.398438 181.054688 528.53125 181.003906 Z M 548.152344 236.019531 C 550.8125 228.257812 552.667969 213.878906 546.539062 207.273438 C 541.695312 202.03125 533.417969 202.707031 526.761719 203.382812 C 526.25 203.425781 525.871094 203.820312 525.832031 204.332031 C 524.503906 219.363281 526.71875 235.789062 528.484375 250.984375 C 528.589844 251.867188 529.390625 252.476562 530.253906 252.378906 C 530.320312 252.378906 530.386719 252.378906 530.441406 252.335938 C 539.273438 250.144531 545.164062 244.699219 548.113281 236.035156 Z M 548.152344 236.019531 " fill-opacity="1" fill-rule="nonzero"/></g><path fill="#3a2618" d="M 742.515625 196.167969 C 750.875 200.417969 756.417969 206.515625 759.179688 214.4375 C 763.957031 228.152344 767.160156 249.847656 759.003906 262.96875 C 755.621094 268.441406 748.074219 269.429688 742.515625 267.765625 C 735.800781 265.746094 731.90625 259.230469 731.148438 252.476562 C 730.027344 242.804688 737.167969 230.320312 732.109375 220.9375 C 728.347656 213.933594 718.40625 214.109375 711.140625 215.300781 C 710.679688 215.386719 710.339844 215.804688 710.355469 216.273438 C 710.679688 228.777344 711.816406 241.191406 713.792969 253.515625 C 714.386719 257.171875 713.601562 260.9375 711.410156 264.78125 C 707.917969 270.945312 702.859375 272.601562 696.039062 271.742188 C 688.355469 270.769531 686.179688 263.433594 684.894531 256.050781 C 678.957031 222.195312 682.160156 187.839844 684.476562 153.632812 C 685.449219 139.308594 689.550781 124.003906 708.296875 127.578125 C 710.867188 128.082031 712.925781 128.609375 715.480469 127.535156 C 733.191406 120.199219 758.570312 123.476562 762.859375 145.996094 C 766.121094 163.089844 755.011719 182.839844 742.308594 194.90625 C 741.757812 195.433594 741.824219 195.855469 742.496094 196.191406 Z M 734.640625 166.6875 C 740.222656 155.417969 736.476562 140.214844 720.132812 148.9375 C 719.648438 149.191406 719.328125 149.59375 719.203125 150.113281 C 715.605469 163.234375 712.953125 176.53125 711.246094 190.007812 C 711.113281 191.0625 711.492188 191.332031 712.425781 190.804688 C 722.027344 185.210938 729.441406 177.179688 734.640625 166.710938 Z M 734.640625 166.6875 " fill-opacity="1" fill-rule="nonzero"/><path fill="#3a2618" d="M 835.726562 196.167969 C 844.554688 200.730469 850.402344 207.796875 853.3125 217.363281 C 856.746094 228.738281 861.902344 262.261719 846.34375 267.515625 C 835.265625 271.242188 825.660156 264.171875 824.210938 253.136719 C 822.761719 242.277344 833.542969 223.589844 820.625 216.546875 C 816.375 214.230469 809.910156 214.488281 805.066406 215.046875 C 803.714844 215.195312 803.089844 215.953125 803.214844 217.320312 C 804.457031 230.523438 805.527344 242.996094 806.394531 254.75 C 807.273438 266.695312 801.550781 272.433594 789.226562 271.972656 C 771.136719 271.257812 775.035156 204.765625 775.15625 192.945312 C 775.332031 176.449219 776.96875 160.824219 778.808594 144.710938 C 780.191406 132.535156 788.238281 125.140625 800.898438 127.445312 C 802.621094 127.765625 804.375 128.015625 806.121094 128.246094 C 806.664062 128.3125 807.191406 128.246094 807.71875 128.015625 C 824.96875 120.214844 849.523438 123.121094 855.207031 143.070312 C 860.519531 161.769531 848.617188 181.851562 835.535156 194.90625 C 835.015625 195.433594 835.097656 195.855469 835.75 196.191406 Z M 805.675781 190.914062 C 816.878906 183.738281 836.105469 164.4375 828.148438 149.503906 C 825.414062 144.355469 817.109375 146.6875 813.171875 149.109375 C 812.777344 149.355469 812.496094 149.71875 812.371094 150.179688 C 808.558594 163.277344 805.929688 176.589844 804.472656 190.15625 C 804.433594 190.601562 804.730469 190.980469 805.171875 191.035156 C 805.363281 191.035156 805.527344 191.019531 805.699219 190.914062 Z M 805.675781 190.914062 " fill-opacity="1" fill-rule="nonzero"/><path fill="#3a2618" d="M 918.34375 206.976562 C 908.695312 205.359375 900.066406 200.921875 892.402344 193.703125 C 876.226562 178.484375 869.191406 159.050781 871.234375 135.417969 C 872.101562 125.492188 878.054688 123.054688 886.84375 124.0625 C 895.558594 125.050781 897.707031 130.410156 897.453125 138.359375 C 897.117188 149.234375 898.929688 163.089844 905.839844 171.886719 C 911.523438 179.117188 920.328125 177.058594 920.9375 167.402344 C 921.859375 153.105469 920.980469 125.347656 942.757812 126.902344 C 967.164062 128.648438 955.476562 153.441406 952.527344 167 C 948.292969 186.578125 946.84375 206.300781 948.144531 226.242188 C 948.710938 234.652344 950.699219 245.984375 951.226562 254.816406 C 951.644531 261.667969 947.574219 269.996094 940.335938 271.59375 C 925.863281 274.75 923.019531 262.820312 921.589844 251.933594 C 919.695312 237.386719 918.894531 222.75 919.167969 208.046875 C 919.167969 207.460938 918.894531 207.125 918.300781 207.015625 Z M 918.34375 206.976562 " fill-opacity="1" fill-rule="nonzero"/><path fill="#3a2618" d="M 1411.339844 129.421875 C 1437.34375 140.824219 1445.730469 172.847656 1442.402344 198.917969 C 1438.667969 228.300781 1420.242188 252.8125 1393.292969 265.597656 C 1389.304688 267.492188 1384.550781 268.085938 1380.1875 268.902344 C 1372.714844 270.351562 1362.351562 276.742188 1358.472656 265.21875 C 1355.699219 256.941406 1354.140625 248.425781 1353.820312 239.675781 C 1352.871094 213.746094 1353.195312 187.824219 1354.75 161.933594 C 1355.320312 152.347656 1356.472656 144.375 1358.226562 137.980469 C 1360.476562 129.71875 1366.167969 127.660156 1374.355469 126.589844 C 1387.730469 124.820312 1397.8125 123.5 1411.355469 129.421875 Z M 1410.175781 209.941406 C 1417.144531 192.386719 1414.75 170.476562 1396.40625 161.175781 C 1392.632812 159.265625 1388.777344 160.527344 1388.152344 164.875 C 1385.328125 184.898438 1383.414062 206.175781 1382.402344 228.738281 C 1382.296875 231.035156 1382.714844 233.152344 1383.703125 235.128906 C 1384.378906 236.519531 1386 237.148438 1387.433594 236.605469 C 1397.136719 232.964844 1406.535156 219.214844 1410.175781 209.941406 Z M 1410.175781 209.941406 " fill-opacity="1" fill-rule="nonzero"/><path fill="#3a2618" d="M 1122.902344 263.6875 C 1118.164062 247.789062 1117.636719 234.503906 1117.425781 215.804688 C 1117.21875 194.882812 1118.394531 172.59375 1120.964844 148.894531 C 1122.144531 138.128906 1125.703125 127.429688 1138.214844 126.796875 C 1165.421875 125.410156 1154.03125 152.117188 1150.949219 166.054688 C 1144.464844 195.625 1145.644531 222.9375 1148.972656 251.867188 C 1150.339844 263.769531 1144.574219 274.03125 1131.261719 271.824219 C 1127.109375 271.132812 1124.335938 268.441406 1122.902344 263.710938 Z M 1122.902344 263.6875 " fill-opacity="1" fill-rule="nonzero"/><path fill="#3a2618" d="M 1201.476562 188.722656 C 1208.914062 188.894531 1215.460938 186.835938 1222.40625 185.105469 C 1232.414062 182.652344 1235.296875 198.25 1233.484375 204.683594 C 1230.9375 213.785156 1208.007812 215.976562 1200.71875 215.707031 C 1200 215.679688 1199.40625 216.226562 1199.390625 216.925781 C 1199.390625 216.984375 1199.390625 217.050781 1199.390625 217.089844 L 1201.597656 242.371094 C 1201.707031 243.5 1202.652344 244.363281 1203.789062 244.347656 C 1214.234375 244.199219 1223.945312 241.992188 1232.941406 237.714844 C 1246.269531 231.390625 1250.882812 245.566406 1249.136719 255.210938 C 1247.257812 265.539062 1215.328125 270.605469 1207.035156 271.109375 C 1202.003906 271.429688 1195.578125 271.675781 1187.769531 271.890625 C 1182.332031 272.015625 1178.691406 269.699219 1176.855469 264.890625 C 1174.878906 259.734375 1173.550781 254.414062 1172.875 248.902344 C 1168.914062 216.644531 1171.863281 183.84375 1174.175781 151.359375 C 1174.8125 142.527344 1177.746094 130.707031 1186.820312 127.703125 C 1188.625 127.09375 1192.125 126.859375 1197.265625 127.007812 C 1212.339844 127.445312 1233.277344 125.113281 1245.957031 133.96875 C 1252.019531 138.195312 1249.894531 155.203125 1242.585938 157.585938 C 1240.773438 158.171875 1237.972656 157.898438 1234.160156 156.746094 C 1225.632812 154.175781 1217.167969 152.980469 1208.253906 154.011719 C 1207.519531 154.09375 1207.078125 154.488281 1206.929688 155.230469 L 1200.675781 187.652344 C 1200.550781 188.300781 1200.800781 188.640625 1201.476562 188.664062 Z M 1201.476562 188.722656 " fill-opacity="1" fill-rule="nonzero"/><path fill="#3a2618" d="M 1295.445312 238.414062 C 1296.160156 244.132812 1300.476562 244.15625 1305.15625 243.308594 C 1310.863281 242.261719 1316.332031 240.492188 1321.605469 238.011719 C 1325.015625 236.414062 1327.964844 235.679688 1330.425781 235.847656 C 1337.921875 236.308594 1340.03125 251.132812 1338.871094 255.671875 C 1336.679688 264.445312 1315.914062 267.640625 1308.863281 269.238281 C 1299.148438 271.445312 1290.054688 271.757812 1280.34375 271.742188 C 1267.371094 271.703125 1265.601562 259.542969 1265.179688 249.371094 C 1263.746094 215.65625 1264.882812 182.058594 1268.632812 148.558594 C 1269.941406 136.933594 1274.363281 126.820312 1287.488281 126.886719 C 1302.625 126.945312 1305.96875 136.664062 1302.832031 149.355469 C 1301.449219 155.039062 1300.097656 160.691406 1298.835938 166.332031 C 1293.441406 190.128906 1292.304688 214.164062 1295.445312 238.390625 Z M 1295.445312 238.414062 " fill-opacity="1" fill-rule="nonzero"/><path fill="#3a2618" d="M 622.921875 188.871094 C 628.585938 188.679688 634.734375 187.542969 641.414062 185.441406 C 653.199219 181.746094 656.867188 197.429688 654.214844 205.335938 C 651.140625 214.503906 628.816406 215.136719 621.554688 216.101562 C 620.703125 216.207031 620.324219 216.671875 620.417969 217.535156 L 622.730469 242.804688 C 622.8125 243.730469 623.339844 244.199219 624.261719 244.238281 C 634.246094 244.550781 643.851562 242.492188 653.117188 238.035156 C 656.660156 236.332031 659.625 235.613281 662.046875 235.871094 C 669.066406 236.605469 671.105469 250.589844 670.160156 255.277344 C 668.851562 261.777344 655.332031 266.085938 649.625 267.367188 C 635.382812 270.539062 627.359375 271.675781 612.976562 271.800781 C 604.78125 271.890625 600.613281 272.351562 597.566406 263.644531 C 591.601562 246.785156 591.480469 223.359375 592.386719 205.648438 C 592.738281 198.5 592.195312 191.101562 592.699219 184.371094 C 593.5625 173.121094 594.363281 161.851562 595.136719 150.601562 C 595.835938 140.59375 600.804688 126.167969 613.628906 126.886719 C 630.121094 127.808594 653.644531 124.613281 666.996094 133.886719 C 673.125 138.15625 671.042969 155.898438 663.101562 157.898438 C 661.4375 158.320312 658.703125 157.941406 654.90625 156.71875 C 646.691406 154.109375 638.273438 153.210938 629.59375 153.984375 C 629.007812 154.027344 628.644531 154.347656 628.496094 154.910156 C 625.574219 165.765625 623.449219 176.777344 622.097656 187.949219 C 622.015625 188.597656 622.3125 188.910156 622.960938 188.894531 Z M 622.921875 188.871094 " fill-opacity="1" fill-rule="nonzero"/><path fill="#3a2618" d="M 1060.25 217.023438 C 1060.457031 229.207031 1061.535156 241.289062 1063.511719 253.300781 C 1063.742188 254.75 1063.445312 257.066406 1062.632812 260.261719 C 1060.101562 269.972656 1053.761719 273.679688 1043.613281 271.363281 C 1029.269531 268.125 1031.601562 211.375 1031.5625 200.054688 C 1031.519531 183.003906 1033.480469 165.722656 1034.789062 148.457031 C 1035.292969 141.6875 1038.726562 131.574219 1045.84375 128.335938 C 1047.804688 127.429688 1051.023438 126.984375 1055.464844 126.984375 C 1070.738281 126.945312 1091.273438 125.707031 1104.855469 132.875 C 1112.730469 137.019531 1110.078125 151.210938 1105.652344 156.339844 C 1103.4375 158.902344 1099.039062 158.234375 1095.644531 157.117188 C 1086.890625 154.199219 1077.878906 153.121094 1068.613281 153.921875 C 1067.9375 153.984375 1067.53125 154.347656 1067.410156 155 L 1060.917969 187.675781 C 1060.777344 188.449219 1061.089844 188.828125 1061.890625 188.8125 C 1066.4375 188.722656 1070.941406 188.113281 1075.40625 186.976562 C 1080.613281 185.65625 1083.816406 185.046875 1085.011719 185.171875 C 1093.125 186.054688 1095.695312 197.347656 1094.15625 203.820312 C 1091.558594 214.652344 1069.261719 214.859375 1061.15625 215.9375 C 1060.539062 216.019531 1060.226562 216.375 1060.25 216.984375 Z M 1060.25 217.023438 " fill-opacity="1" fill-rule="nonzero"/><g clip-path="url(#2a85edaafe)"><path fill="#3a2618" d="M 1489.65625 158.671875 C 1484.136719 161.324219 1483.324219 172.171875 1484.015625 177.496094 C 1484.796875 183.53125 1487.871094 187.773438 1493.214844 190.222656 C 1499.664062 193.160156 1506.105469 196.167969 1512.488281 199.242188 C 1528.699219 207.015625 1534.976562 222.113281 1531.648438 239.445312 C 1527.738281 259.839844 1510.316406 274.179688 1489.574219 275.671875 C 1482.054688 276.222656 1462.640625 275.507812 1457.960938 269.726562 C 1450.679688 260.707031 1461.460938 250.269531 1470.257812 249.601562 C 1471.675781 249.496094 1474.34375 249.957031 1478.332031 250.984375 C 1494.164062 255.152344 1506.1875 249.265625 1504.738281 231.644531 C 1503.875 221.503906 1491.253906 217.929688 1481.945312 214.082031 C 1458.175781 204.242188 1449.640625 181.800781 1460.003906 158.128906 C 1471.066406 132.898438 1499.136719 129.324219 1523.273438 135.863281 C 1531.878906 138.195312 1536.054688 145.132812 1530.496094 152.742188 C 1519.960938 167.230469 1503.265625 152.183594 1489.640625 158.65625 Z M 1489.65625 158.671875 " fill-opacity="1" fill-rule="nonzero"/></g><g clip-path="url(#9b49ef42b2)"><path fill="#3a2618" d="M 265.265625 67.308594 C 265.265625 68.179688 265.175781 69.039062 265.011719 69.894531 C 264.839844 70.75 264.59375 71.582031 264.253906 72.382812 C 263.925781 73.1875 263.511719 73.953125 263.027344 74.679688 C 262.539062 75.40625 261.988281 76.070312 261.378906 76.6875 C 260.761719 77.308594 260.085938 77.851562 259.363281 78.335938 C 258.636719 78.824219 257.878906 79.234375 257.070312 79.5625 C 256.265625 79.902344 255.433594 80.148438 254.574219 80.320312 C 253.726562 80.488281 252.863281 80.578125 251.988281 80.578125 C 251.117188 80.578125 250.25 80.488281 249.394531 80.320312 C 248.546875 80.148438 247.714844 79.902344 246.90625 79.5625 C 246.101562 79.234375 245.332031 78.824219 244.609375 78.335938 C 243.882812 77.851562 243.21875 77.308594 242.597656 76.6875 C 241.980469 76.070312 241.4375 75.40625 240.953125 74.679688 C 240.464844 73.953125 240.054688 73.1875 239.722656 72.382812 C 239.386719 71.582031 239.140625 70.75 238.964844 69.894531 C 238.792969 69.039062 238.710938 68.179688 238.710938 67.308594 C 238.710938 66.433594 238.792969 65.570312 238.964844 64.710938 C 239.140625 63.863281 239.386719 63.03125 239.722656 62.226562 C 240.054688 61.425781 240.464844 60.660156 240.953125 59.933594 C 241.4375 59.210938 241.980469 58.535156 242.597656 57.925781 C 243.21875 57.308594 243.882812 56.753906 244.609375 56.269531 C 245.332031 55.792969 246.101562 55.378906 246.90625 55.042969 C 247.714844 54.714844 248.546875 54.457031 249.394531 54.292969 C 250.25 54.121094 251.117188 54.039062 251.988281 54.039062 C 252.863281 54.039062 253.726562 54.121094 254.574219 54.292969 C 255.433594 54.457031 256.265625 54.714844 257.070312 55.042969 C 257.878906 55.378906 258.636719 55.792969 259.363281 56.269531 C 260.085938 56.753906 260.761719 57.308594 261.378906 57.925781 C 261.988281 58.535156 262.539062 59.210938 263.027344 59.933594 C 263.511719 60.660156 263.925781 61.425781 264.253906 62.226562 C 264.59375 63.03125 264.839844 63.863281 265.011719 64.710938 C 265.175781 65.570312 265.265625 66.433594 265.265625 67.308594 Z M 265.265625 67.308594 " fill-opacity="1" fill-rule="nonzero"/></g><path fill="#3a2618" d="M 307.835938 70.101562 C 307.835938 70.933594 307.753906 71.761719 307.589844 72.578125 C 307.425781 73.402344 307.1875 74.195312 306.863281 74.96875 C 306.542969 75.742188 306.15625 76.476562 305.6875 77.167969 C 305.226562 77.859375 304.699219 78.5 304.105469 79.09375 C 303.511719 79.6875 302.871094 80.214844 302.175781 80.675781 C 301.484375 81.136719 300.753906 81.53125 299.976562 81.855469 C 299.203125 82.175781 298.414062 82.414062 297.589844 82.578125 C 296.773438 82.734375 295.941406 82.816406 295.109375 82.816406 C 294.269531 82.816406 293.445312 82.734375 292.621094 82.578125 C 291.808594 82.414062 291.007812 82.175781 290.234375 81.855469 C 289.46875 81.53125 288.734375 81.136719 288.035156 80.675781 C 287.34375 80.214844 286.699219 79.6875 286.105469 79.09375 C 285.515625 78.5 284.988281 77.859375 284.527344 77.167969 C 284.0625 76.476562 283.667969 75.742188 283.347656 74.96875 C 283.027344 74.195312 282.789062 73.402344 282.621094 72.578125 C 282.457031 71.761719 282.382812 70.933594 282.382812 70.101562 C 282.382812 69.269531 282.457031 68.4375 282.621094 67.621094 C 282.789062 66.796875 283.027344 66.007812 283.347656 65.230469 C 283.667969 64.457031 284.0625 63.722656 284.527344 63.03125 C 284.988281 62.339844 285.515625 61.699219 286.105469 61.105469 C 286.699219 60.511719 287.34375 59.984375 288.035156 59.523438 C 288.734375 59.0625 289.46875 58.667969 290.234375 58.34375 C 291.007812 58.023438 291.808594 57.785156 292.621094 57.621094 C 293.445312 57.464844 294.269531 57.382812 295.109375 57.382812 C 295.941406 57.382812 296.773438 57.464844 297.589844 57.621094 C 298.414062 57.785156 299.203125 58.023438 299.976562 58.34375 C 300.753906 58.667969 301.484375 59.0625 302.175781 59.523438 C 302.871094 59.984375 303.511719 60.511719 304.105469 61.105469 C 304.699219 61.699219 305.226562 62.339844 305.6875 63.03125 C 306.15625 63.722656 306.542969 64.457031 306.863281 65.230469 C 307.1875 66.007812 307.425781 66.796875 307.589844 67.621094 C 307.753906 68.4375 307.835938 69.269531 307.835938 70.101562 Z M 307.835938 70.101562 " fill-opacity="1" fill-rule="nonzero"/><path fill="#3a2618" d="M 216.988281 72.070312 C 216.988281 72.984375 216.898438 73.878906 216.726562 74.777344 C 216.546875 75.675781 216.28125 76.542969 215.9375 77.382812 C 215.582031 78.230469 215.152344 79.027344 214.652344 79.785156 C 214.140625 80.542969 213.5625 81.246094 212.921875 81.886719 C 212.277344 82.53125 211.578125 83.105469 210.820312 83.617188 C 210.054688 84.121094 209.253906 84.546875 208.414062 84.902344 C 207.574219 85.246094 206.703125 85.511719 205.8125 85.691406 C 204.914062 85.867188 204.007812 85.957031 203.101562 85.957031 C 202.1875 85.957031 201.28125 85.867188 200.382812 85.691406 C 199.496094 85.511719 198.621094 85.246094 197.78125 84.902344 C 196.941406 84.546875 196.140625 84.121094 195.382812 83.617188 C 194.617188 83.105469 193.917969 82.53125 193.277344 81.886719 C 192.632812 81.246094 192.054688 80.542969 191.546875 79.785156 C 191.042969 79.027344 190.613281 78.230469 190.261719 77.382812 C 189.914062 76.542969 189.652344 75.675781 189.46875 74.777344 C 189.296875 73.878906 189.207031 72.984375 189.207031 72.070312 C 189.207031 71.152344 189.296875 70.257812 189.46875 69.359375 C 189.652344 68.46875 189.914062 67.59375 190.261719 66.753906 C 190.613281 65.914062 191.042969 65.117188 191.546875 64.359375 C 192.054688 63.601562 192.632812 62.890625 193.277344 62.25 C 193.917969 61.605469 194.617188 61.03125 195.382812 60.527344 C 196.140625 60.015625 196.941406 59.589844 197.78125 59.242188 C 198.621094 58.890625 199.496094 58.625 200.382812 58.453125 C 201.28125 58.269531 202.1875 58.179688 203.101562 58.179688 C 204.007812 58.179688 204.914062 58.269531 205.8125 58.453125 C 206.703125 58.625 207.574219 58.890625 208.414062 59.242188 C 209.253906 59.589844 210.054688 60.015625 210.820312 60.527344 C 211.578125 61.03125 212.277344 61.605469 212.921875 62.25 C 213.5625 62.890625 214.140625 63.601562 214.652344 64.359375 C 215.152344 65.117188 215.582031 65.914062 215.9375 66.753906 C 216.28125 67.59375 216.546875 68.46875 216.726562 69.359375 C 216.898438 70.257812 216.988281 71.152344 216.988281 72.070312 Z M 216.988281 72.070312 " fill-opacity="1" fill-rule="nonzero"/><path fill="#3a2618" d="M 172.140625 87.480469 C 172.140625 88.351562 172.058594 89.210938 171.882812 90.066406 C 171.710938 90.921875 171.464844 91.746094 171.125 92.554688 C 170.796875 93.359375 170.382812 94.128906 169.898438 94.84375 C 169.421875 95.570312 168.867188 96.246094 168.25 96.855469 C 167.632812 97.472656 166.964844 98.023438 166.242188 98.507812 C 165.515625 98.988281 164.75 99.398438 163.953125 99.726562 C 163.144531 100.066406 162.3125 100.3125 161.457031 100.484375 C 160.605469 100.660156 159.742188 100.742188 158.871094 100.742188 C 157.996094 100.742188 157.140625 100.660156 156.28125 100.484375 C 155.425781 100.3125 154.601562 100.066406 153.796875 99.726562 C 152.988281 99.398438 152.222656 98.988281 151.496094 98.507812 C 150.773438 98.023438 150.105469 97.472656 149.488281 96.855469 C 148.878906 96.246094 148.324219 95.570312 147.839844 94.84375 C 147.355469 94.128906 146.949219 93.359375 146.613281 92.554688 C 146.28125 91.746094 146.027344 90.921875 145.855469 90.066406 C 145.691406 89.210938 145.609375 88.351562 145.609375 87.480469 C 145.609375 86.605469 145.691406 85.75 145.855469 84.894531 C 146.027344 84.035156 146.28125 83.214844 146.613281 82.40625 C 146.949219 81.597656 147.355469 80.839844 147.839844 80.117188 C 148.324219 79.390625 148.878906 78.714844 149.488281 78.105469 C 150.105469 77.488281 150.773438 76.9375 151.496094 76.449219 C 152.222656 75.972656 152.988281 75.5625 153.796875 75.230469 C 154.601562 74.894531 155.425781 74.648438 156.28125 74.472656 C 157.140625 74.308594 157.996094 74.21875 158.871094 74.21875 C 159.742188 74.21875 160.605469 74.308594 161.457031 74.472656 C 162.3125 74.648438 163.144531 74.894531 163.953125 75.230469 C 164.75 75.5625 165.515625 75.972656 166.242188 76.449219 C 166.964844 76.9375 167.632812 77.488281 168.25 78.105469 C 168.867188 78.714844 169.421875 79.390625 169.898438 80.117188 C 170.382812 80.839844 170.796875 81.597656 171.125 82.40625 C 171.464844 83.214844 171.710938 84.035156 171.882812 84.894531 C 172.058594 85.75 172.140625 86.605469 172.140625 87.480469 Z M 172.140625 87.480469 " fill-opacity="1" fill-rule="nonzero"/><path fill="#3a2618" d="M 345.421875 86.152344 C 345.421875 86.9375 345.339844 87.710938 345.191406 88.476562 C 345.035156 89.25 344.8125 89.992188 344.507812 90.71875 C 344.210938 91.441406 343.839844 92.125 343.402344 92.777344 C 342.976562 93.425781 342.480469 94.035156 341.921875 94.589844 C 341.371094 95.140625 340.769531 95.632812 340.117188 96.070312 C 339.46875 96.507812 338.773438 96.871094 338.050781 97.175781 C 337.332031 97.472656 336.582031 97.695312 335.816406 97.851562 C 335.042969 98 334.269531 98.082031 333.488281 98.082031 C 332.703125 98.082031 331.929688 98 331.164062 97.851562 C 330.390625 97.695312 329.648438 97.472656 328.921875 97.175781 C 328.199219 96.871094 327.507812 96.507812 326.855469 96.070312 C 326.207031 95.632812 325.605469 95.140625 325.050781 94.589844 C 324.5 94.035156 324.007812 93.425781 323.570312 92.777344 C 323.132812 92.125 322.761719 91.441406 322.464844 90.71875 C 322.160156 89.992188 321.9375 89.25 321.78125 88.476562 C 321.632812 87.710938 321.558594 86.9375 321.558594 86.152344 C 321.558594 85.371094 321.632812 84.597656 321.78125 83.832031 C 321.9375 83.054688 322.160156 82.316406 322.464844 81.589844 C 322.761719 80.867188 323.132812 80.183594 323.570312 79.53125 C 324.007812 78.878906 324.5 78.277344 325.050781 77.71875 C 325.605469 77.167969 326.207031 76.671875 326.855469 76.238281 C 327.507812 75.808594 328.199219 75.4375 328.921875 75.140625 C 329.648438 74.835938 330.390625 74.613281 331.164062 74.457031 C 331.929688 74.308594 332.703125 74.226562 333.488281 74.226562 C 334.269531 74.226562 335.042969 74.308594 335.816406 74.457031 C 336.582031 74.613281 337.332031 74.835938 338.050781 75.140625 C 338.773438 75.4375 339.46875 75.808594 340.117188 76.238281 C 340.769531 76.671875 341.371094 77.167969 341.921875 77.71875 C 342.480469 78.277344 342.976562 78.878906 343.402344 79.53125 C 343.839844 80.183594 344.210938 80.867188 344.507812 81.589844 C 344.8125 82.316406 345.035156 83.054688 345.191406 83.832031 C 345.339844 84.597656 345.421875 85.371094 345.421875 86.152344 Z M 345.421875 86.152344 " fill-opacity="1" fill-rule="nonzero"/><path fill="#fed700" d="M 371.535156 167.273438 C 379.382812 184.941406 384.382812 203.664062 388.089844 222.601562 C 393.195312 248.671875 396.320312 274.980469 397.449219 301.527344 C 397.726562 308.070312 398.558594 321.914062 388.90625 322.246094 C 384.945312 322.375 379.179688 321.675781 377.125 318.140625 C 376.535156 317.105469 376.246094 315.449219 376.285156 313.183594 C 376.484375 300.851562 375.757812 290.664062 375.109375 279.402344 C 374.746094 273.050781 373.914062 266.777344 373.164062 260.457031 C 369.851562 232.023438 363.28125 203.917969 352.175781 177.855469 C 349.894531 172.511719 347.65625 167.980469 345.472656 164.28125 C 315.949219 114.25 254.148438 104.488281 202.484375 121.433594 C 180.773438 128.558594 161.332031 139.421875 144.175781 154.042969 C 129.988281 166.128906 119.347656 182.996094 111.6875 199.941406 C 95.132812 236.546875 87.148438 275.484375 82.710938 316.503906 C 82.488281 318.511719 81.65625 320.277344 80.195312 321.808594 C 73.238281 329.105469 61.992188 324.074219 60.550781 314.789062 C 60.132812 312.121094 60.164062 306.757812 60.617188 298.703125 C 60.914062 293.554688 61.574219 287.589844 62.59375 280.820312 C 68.230469 243.738281 83.328125 207.082031 102.171875 174.761719 C 116.539062 150.148438 136.382812 129.421875 160.722656 115.511719 C 183.203125 102.652344 207.046875 94.992188 232.261719 92.527344 C 240.324219 91.730469 249.34375 91.574219 259.320312 92.042969 C 308.414062 94.351562 351.492188 122.167969 371.527344 167.289062 Z M 371.535156 167.273438 " fill-opacity="1" fill-rule="nonzero"/><path fill="#3a2618" d="M 379.777344 109.835938 C 379.777344 110.617188 379.703125 111.390625 379.546875 112.15625 C 379.398438 112.933594 379.167969 113.671875 378.871094 114.398438 C 378.566406 115.125 378.207031 115.816406 377.769531 116.464844 C 377.332031 117.117188 376.839844 117.71875 376.285156 118.269531 C 375.726562 118.832031 375.125 119.324219 374.472656 119.753906 C 373.824219 120.1875 373.132812 120.558594 372.40625 120.855469 C 371.683594 121.160156 370.941406 121.382812 370.167969 121.539062 C 369.398438 121.6875 368.625 121.769531 367.84375 121.769531 C 367.054688 121.769531 366.277344 121.6875 365.511719 121.539062 C 364.738281 121.382812 363.996094 121.160156 363.273438 120.855469 C 362.546875 120.558594 361.855469 120.1875 361.203125 119.753906 C 360.554688 119.324219 359.953125 118.832031 359.402344 118.269531 C 358.839844 117.71875 358.347656 117.117188 357.910156 116.464844 C 357.472656 115.816406 357.109375 115.125 356.804688 114.398438 C 356.507812 113.671875 356.277344 112.933594 356.128906 112.15625 C 355.972656 111.390625 355.898438 110.617188 355.898438 109.835938 C 355.898438 109.054688 355.972656 108.269531 356.128906 107.503906 C 356.277344 106.738281 356.507812 105.988281 356.804688 105.265625 C 357.109375 104.539062 357.472656 103.855469 357.910156 103.203125 C 358.347656 102.554688 358.839844 101.953125 359.402344 101.390625 C 359.953125 100.839844 360.554688 100.347656 361.203125 99.910156 C 361.855469 99.472656 362.546875 99.109375 363.273438 98.804688 C 363.996094 98.507812 364.738281 98.277344 365.511719 98.128906 C 366.277344 97.972656 367.054688 97.898438 367.84375 97.898438 C 368.625 97.898438 369.398438 97.972656 370.167969 98.128906 C 370.941406 98.277344 371.683594 98.507812 372.40625 98.804688 C 373.132812 99.109375 373.824219 99.472656 374.472656 99.910156 C 375.125 100.347656 375.726562 100.839844 376.285156 101.390625 C 376.839844 101.953125 377.332031 102.554688 377.769531 103.203125 C 378.207031 103.855469 378.566406 104.539062 378.871094 105.265625 C 379.167969 105.988281 379.398438 106.738281 379.546875 107.503906 C 379.703125 108.269531 379.777344 109.054688 379.777344 109.835938 Z M 379.777344 109.835938 " fill-opacity="1" fill-rule="nonzero"/><path fill="#3a2618" d="M 130.277344 114.167969 C 130.277344 114.957031 130.203125 115.734375 130.046875 116.5 C 129.898438 117.273438 129.667969 118.015625 129.371094 118.738281 C 129.066406 119.464844 128.707031 120.15625 128.269531 120.808594 C 127.832031 121.457031 127.335938 122.058594 126.777344 122.621094 C 126.226562 123.171875 125.625 123.664062 124.964844 124.101562 C 124.316406 124.539062 123.632812 124.910156 122.90625 125.207031 C 122.179688 125.503906 121.433594 125.734375 120.65625 125.890625 C 119.890625 126.039062 119.117188 126.113281 118.328125 126.113281 C 117.542969 126.113281 116.769531 126.039062 115.996094 125.890625 C 115.230469 125.734375 114.480469 125.503906 113.753906 125.207031 C 113.03125 124.910156 112.347656 124.539062 111.6875 124.101562 C 111.035156 123.664062 110.433594 123.171875 109.882812 122.621094 C 109.324219 122.058594 108.828125 121.457031 108.394531 120.808594 C 107.957031 120.15625 107.59375 119.464844 107.289062 118.738281 C 106.992188 118.015625 106.761719 117.273438 106.613281 116.5 C 106.457031 115.734375 106.382812 114.957031 106.382812 114.167969 C 106.382812 113.386719 106.457031 112.609375 106.613281 111.84375 C 106.761719 111.070312 106.992188 110.320312 107.289062 109.605469 C 107.59375 108.878906 107.957031 108.1875 108.394531 107.539062 C 108.828125 106.886719 109.324219 106.277344 109.882812 105.726562 C 110.433594 105.171875 111.035156 104.679688 111.6875 104.242188 C 112.347656 103.804688 113.03125 103.433594 113.753906 103.136719 C 114.480469 102.832031 115.230469 102.613281 115.996094 102.453125 C 116.769531 102.308594 117.542969 102.222656 118.328125 102.222656 C 119.117188 102.222656 119.890625 102.308594 120.65625 102.453125 C 121.433594 102.613281 122.179688 102.832031 122.90625 103.136719 C 123.632812 103.433594 124.316406 103.804688 124.964844 104.242188 C 125.625 104.679688 126.226562 105.171875 126.777344 105.726562 C 127.335938 106.277344 127.832031 106.886719 128.269531 107.539062 C 128.707031 108.1875 129.066406 108.878906 129.371094 109.605469 C 129.667969 110.320312 129.898438 111.070312 130.046875 111.84375 C 130.203125 112.609375 130.277344 113.386719 130.277344 114.167969 Z M 130.277344 114.167969 " fill-opacity="1" fill-rule="nonzero"/><path fill="#fe7e00" d="M 225.292969 146.359375 C 169.949219 155.707031 137.808594 195.484375 121.554688 246.445312 C 114.027344 270.03125 109.363281 294.164062 107.585938 318.84375 C 107.402344 321.28125 107.074219 323.058594 106.570312 324.179688 C 102.289062 333.800781 88.558594 331.652344 86.796875 321.625 C 86.605469 320.539062 86.628906 317.738281 86.871094 313.214844 C 88.070312 290.390625 91.910156 268.003906 98.359375 246.050781 C 115.238281 188.671875 152.050781 142.757812 212.195312 127.972656 C 228.628906 123.9375 245.613281 122.273438 263.140625 122.988281 C 265.867188 123.105469 270.210938 123.765625 276.179688 124.992188 C 356.210938 141.375 369.820312 256.949219 368.585938 320.84375 C 368.453125 327.6875 363.816406 330.144531 357.464844 330.070312 C 351.230469 330.003906 348.792969 324.914062 347.835938 319.519531 C 346.121094 309.824219 346.214844 300.046875 345.898438 290.242188 C 345.675781 283.117188 344.9375 275.9375 344.441406 268.769531 C 343.929688 261.511719 342.5 251.84375 340.160156 239.757812 C 337.464844 225.878906 333.550781 212.660156 328.421875 200.105469 C 323.867188 189 317.316406 177.132812 309.171875 168.367188 C 286.996094 144.523438 256.164062 141.136719 225.300781 146.359375 Z M 225.292969 146.359375 " fill-opacity="1" fill-rule="nonzero"/><path fill="#3a2618" d="M 402.414062 146.859375 C 402.414062 147.644531 402.332031 148.417969 402.183594 149.183594 C 402.027344 149.957031 401.804688 150.699219 401.5 151.425781 C 401.203125 152.148438 400.832031 152.839844 400.394531 153.492188 C 399.960938 154.140625 399.464844 154.742188 398.914062 155.296875 C 398.363281 155.847656 397.753906 156.351562 397.101562 156.777344 C 396.449219 157.214844 395.765625 157.585938 395.042969 157.882812 C 394.316406 158.1875 393.566406 158.410156 392.800781 158.566406 C 392.027344 158.714844 391.253906 158.796875 390.472656 158.796875 C 389.6875 158.796875 388.914062 158.714844 388.140625 158.566406 C 387.375 158.410156 386.625 158.1875 385.898438 157.882812 C 385.175781 157.585938 384.492188 157.214844 383.839844 156.777344 C 383.179688 156.351562 382.578125 155.847656 382.027344 155.296875 C 381.476562 154.742188 380.980469 154.140625 380.546875 153.492188 C 380.109375 152.839844 379.738281 152.148438 379.441406 151.425781 C 379.136719 150.699219 378.914062 149.957031 378.757812 149.183594 C 378.609375 148.417969 378.527344 147.644531 378.527344 146.859375 C 378.527344 146.078125 378.609375 145.296875 378.757812 144.53125 C 378.914062 143.765625 379.136719 143.015625 379.441406 142.289062 C 379.738281 141.566406 380.109375 140.878906 380.546875 140.230469 C 380.980469 139.578125 381.476562 138.96875 382.027344 138.417969 C 382.578125 137.867188 383.179688 137.371094 383.839844 136.933594 C 384.492188 136.5 385.175781 136.136719 385.898438 135.832031 C 386.625 135.535156 387.375 135.304688 388.140625 135.15625 C 388.914062 135 389.6875 134.925781 390.472656 134.925781 C 391.253906 134.925781 392.027344 135 392.800781 135.15625 C 393.566406 135.304688 394.316406 135.535156 395.042969 135.832031 C 395.765625 136.136719 396.449219 136.5 397.101562 136.933594 C 397.753906 137.371094 398.363281 137.867188 398.914062 138.417969 C 399.464844 138.96875 399.960938 139.578125 400.394531 140.230469 C 400.832031 140.878906 401.203125 141.566406 401.5 142.289062 C 401.804688 143.015625 402.027344 143.765625 402.183594 144.53125 C 402.332031 145.296875 402.414062 146.078125 402.414062 146.859375 Z M 402.414062 146.859375 " fill-opacity="1" fill-rule="nonzero"/><path fill="#3a2618" d="M 100.609375 151.324219 C 100.609375 152.117188 100.535156 152.890625 100.378906 153.65625 C 100.230469 154.429688 100 155.171875 99.703125 155.898438 C 99.398438 156.621094 99.027344 157.3125 98.597656 157.964844 C 98.164062 158.613281 97.660156 159.214844 97.109375 159.777344 C 96.554688 160.328125 95.945312 160.824219 95.296875 161.257812 C 94.644531 161.695312 93.953125 162.066406 93.226562 162.363281 C 92.503906 162.667969 91.761719 162.890625 90.988281 163.046875 C 90.222656 163.195312 89.449219 163.269531 88.65625 163.269531 C 87.875 163.269531 87.101562 163.195312 86.324219 163.046875 C 85.558594 162.890625 84.808594 162.667969 84.085938 162.363281 C 83.359375 162.066406 82.667969 161.695312 82.015625 161.257812 C 81.367188 160.824219 80.765625 160.328125 80.207031 159.777344 C 79.652344 159.214844 79.160156 158.613281 78.722656 157.964844 C 78.285156 157.3125 77.914062 156.621094 77.617188 155.898438 C 77.3125 155.171875 77.089844 154.429688 76.933594 153.65625 C 76.785156 152.890625 76.710938 152.117188 76.710938 151.324219 C 76.710938 150.542969 76.785156 149.769531 76.933594 149.003906 C 77.089844 148.226562 77.3125 147.480469 77.617188 146.761719 C 77.914062 146.039062 78.285156 145.34375 78.722656 144.695312 C 79.160156 144.042969 79.652344 143.433594 80.207031 142.882812 C 80.765625 142.332031 81.367188 141.835938 82.015625 141.398438 C 82.667969 140.964844 83.359375 140.59375 84.085938 140.296875 C 84.808594 139.992188 85.558594 139.769531 86.324219 139.613281 C 87.101562 139.464844 87.875 139.382812 88.65625 139.382812 C 89.449219 139.382812 90.222656 139.464844 90.988281 139.613281 C 91.761719 139.769531 92.503906 139.992188 93.226562 140.296875 C 93.953125 140.59375 94.644531 140.964844 95.296875 141.398438 C 95.945312 141.835938 96.554688 142.332031 97.109375 142.882812 C 97.660156 143.433594 98.164062 144.042969 98.597656 144.695312 C 99.027344 145.34375 99.398438 146.039062 99.703125 146.761719 C 100 147.480469 100.230469 148.226562 100.378906 149.003906 C 100.535156 149.769531 100.609375 150.542969 100.609375 151.324219 Z M 100.609375 151.324219 " fill-opacity="1" fill-rule="nonzero"/><path fill="#dc3731" d="M 137.726562 220.292969 C 152.808594 187.972656 180.246094 165.492188 215.019531 157.058594 C 253.808594 147.660156 295.050781 159.875 315.703125 195.210938 C 325.71875 212.34375 331.988281 231.503906 335.742188 250.9375 C 340.109375 273.503906 342.0625 296.28125 341.617188 319.261719 C 341.582031 321.394531 341.921875 325.976562 341.335938 327.863281 C 338.636719 336.535156 324.9375 335.960938 321.585938 328.25 C 320.976562 326.867188 320.695312 324.535156 320.71875 321.265625 C 321.113281 275.894531 312.269531 189.769531 256.132812 175.625 C 241.90625 172.042969 225.945312 173.351562 211.832031 177.289062 C 151.003906 194.25 137.945312 268.496094 138.34375 321.414062 C 138.398438 329.171875 128.507812 330.152344 123.539062 326.867188 C 119.554688 324.238281 118.878906 320.554688 118.796875 315.636719 C 118.234375 283.546875 123.886719 249.964844 137.742188 220.292969 Z M 137.726562 220.292969 " fill-opacity="1" fill-rule="nonzero"/><path fill="#3a2618" d="M 79.117188 190.542969 C 79.117188 191.324219 79.035156 192.097656 78.886719 192.875 C 78.730469 193.640625 78.507812 194.390625 78.203125 195.113281 C 77.90625 195.839844 77.535156 196.523438 77.101562 197.179688 C 76.664062 197.832031 76.167969 198.433594 75.617188 198.984375 C 75.058594 199.546875 74.457031 200.039062 73.804688 200.476562 C 73.15625 200.914062 72.460938 201.273438 71.738281 201.578125 C 71.011719 201.875 70.261719 202.105469 69.496094 202.253906 C 68.730469 202.410156 67.949219 202.484375 67.167969 202.484375 C 66.382812 202.484375 65.601562 202.410156 64.835938 202.253906 C 64.070312 202.105469 63.320312 201.875 62.59375 201.578125 C 61.871094 201.273438 61.179688 200.914062 60.527344 200.476562 C 59.875 200.039062 59.265625 199.546875 58.714844 198.984375 C 58.164062 198.433594 57.667969 197.832031 57.230469 197.179688 C 56.796875 196.523438 56.425781 195.839844 56.128906 195.113281 C 55.824219 194.390625 55.601562 193.640625 55.445312 192.875 C 55.289062 192.097656 55.214844 191.324219 55.214844 190.542969 C 55.214844 189.757812 55.289062 188.976562 55.445312 188.210938 C 55.601562 187.445312 55.824219 186.695312 56.128906 185.96875 C 56.425781 185.246094 56.796875 184.5625 57.230469 183.902344 C 57.667969 183.253906 58.164062 182.652344 58.714844 182.097656 C 59.265625 181.539062 59.875 181.042969 60.527344 180.609375 C 61.179688 180.171875 61.871094 179.808594 62.59375 179.503906 C 63.320312 179.207031 64.070312 178.976562 64.835938 178.828125 C 65.601562 178.671875 66.382812 178.597656 67.167969 178.597656 C 67.949219 178.597656 68.730469 178.671875 69.496094 178.828125 C 70.261719 178.976562 71.011719 179.207031 71.738281 179.503906 C 72.460938 179.808594 73.15625 180.171875 73.804688 180.609375 C 74.457031 181.042969 75.058594 181.539062 75.617188 182.097656 C 76.167969 182.652344 76.664062 183.253906 77.101562 183.902344 C 77.535156 184.5625 77.90625 185.246094 78.203125 185.96875 C 78.507812 186.695312 78.730469 187.445312 78.886719 188.210938 C 79.035156 188.976562 79.117188 189.757812 79.117188 190.542969 Z M 79.117188 190.542969 " fill-opacity="1" fill-rule="nonzero"/><path fill="#3a2618" d="M 422.167969 190.542969 C 422.167969 191.324219 422.09375 192.097656 421.9375 192.875 C 421.789062 193.640625 421.558594 194.390625 421.261719 195.113281 C 420.957031 195.839844 420.59375 196.523438 420.15625 197.179688 C 419.71875 197.832031 419.226562 198.433594 418.667969 198.984375 C 418.113281 199.546875 417.511719 200.039062 416.863281 200.476562 C 416.203125 200.914062 415.519531 201.273438 414.792969 201.578125 C 414.070312 201.875 413.320312 202.105469 412.554688 202.253906 C 411.78125 202.410156 411.003906 202.484375 410.222656 202.484375 C 409.433594 202.484375 408.65625 202.410156 407.890625 202.253906 C 407.117188 202.105469 406.367188 201.875 405.644531 201.578125 C 404.917969 201.273438 404.234375 200.914062 403.585938 200.476562 C 402.925781 200.039062 402.324219 199.546875 401.773438 198.984375 C 401.210938 198.433594 400.71875 197.832031 400.28125 197.179688 C 399.84375 196.523438 399.480469 195.839844 399.175781 195.113281 C 398.878906 194.390625 398.648438 193.640625 398.5 192.875 C 398.34375 192.097656 398.269531 191.324219 398.269531 190.542969 C 398.269531 189.757812 398.34375 188.976562 398.5 188.210938 C 398.648438 187.445312 398.878906 186.695312 399.175781 185.96875 C 399.480469 185.246094 399.84375 184.5625 400.28125 183.902344 C 400.71875 183.253906 401.210938 182.652344 401.773438 182.097656 C 402.324219 181.539062 402.925781 181.042969 403.585938 180.609375 C 404.234375 180.171875 404.917969 179.808594 405.644531 179.503906 C 406.367188 179.207031 407.117188 178.976562 407.890625 178.828125 C 408.65625 178.671875 409.433594 178.597656 410.222656 178.597656 C 411.003906 178.597656 411.78125 178.671875 412.554688 178.828125 C 413.320312 178.976562 414.070312 179.207031 414.792969 179.503906 C 415.519531 179.808594 416.203125 180.171875 416.863281 180.609375 C 417.511719 181.042969 418.113281 181.539062 418.667969 182.097656 C 419.226562 182.652344 419.71875 183.253906 420.15625 183.902344 C 420.59375 184.5625 420.957031 185.246094 421.261719 185.96875 C 421.558594 186.695312 421.789062 187.445312 421.9375 188.210938 C 422.09375 188.976562 422.167969 189.757812 422.167969 190.542969 Z M 422.167969 190.542969 " fill-opacity="1" fill-rule="nonzero"/><path fill="#01d1a0" d="M 228.109375 205.523438 C 189.570312 207.4375 172.847656 241.480469 167.066406 274.914062 C 164.421875 290.242188 163.308594 305.671875 163.730469 321.222656 C 163.941406 329.039062 156.4375 333.761719 149.933594 328.875 C 147.355469 326.949219 145.757812 324.394531 145.128906 321.214844 C 144.265625 316.882812 143.933594 310.5625 144.125 302.277344 C 145.113281 258.085938 162.660156 195.90625 212.914062 183.960938 C 223.910156 181.339844 235.285156 181.183594 247.046875 183.464844 C 295.503906 192.882812 310.808594 242.507812 314.386719 284.691406 C 315.652344 299.714844 316.246094 315.621094 314.386719 330.054688 C 312.8125 342.195312 294.253906 341.585938 291.707031 330.539062 C 291.429688 329.328125 291.394531 327.023438 291.609375 323.613281 C 292.261719 313.035156 292.359375 302.457031 291.898438 291.882812 C 291.652344 286.140625 290.894531 280.269531 290.175781 274.453125 C 286.527344 245.203125 274.90625 211.390625 241.363281 205.746094 C 238.652344 205.277344 234.230469 205.203125 228.109375 205.515625 Z M 228.109375 205.523438 " fill-opacity="1" fill-rule="nonzero"/><path fill="#3a2618" d="M 199.921875 262.386719 C 192.425781 280.203125 191.488281 298.976562 191.546875 318.75 C 191.578125 331.328125 175.597656 333.496094 171.917969 321.742188 C 171.40625 320.101562 171.050781 317.835938 170.863281 314.960938 C 170.105469 303.660156 171.109375 295.019531 172.207031 284.871094 C 172.898438 278.496094 174.59375 270.863281 177.289062 261.957031 C 184.214844 239.050781 200.054688 216.050781 226.578125 215.171875 C 260.070312 214.058594 275.886719 242.460938 281.28125 271.066406 C 284.261719 286.914062 285.367188 303.070312 284.574219 319.527344 C 284.410156 323.019531 284.296875 326.707031 282.746094 329.632812 C 278.085938 338.421875 265.257812 336.699219 262.097656 327.753906 C 261.496094 326.035156 261.289062 322.917969 261.460938 318.390625 C 262.003906 304.863281 261.699219 291.832031 259.535156 278.449219 C 257.8125 267.804688 253.910156 254.558594 246.238281 247.082031 C 239.929688 240.945312 233.160156 239.996094 224.492188 240.789062 C 213.027344 241.835938 204.222656 252.214844 199.921875 262.402344 Z M 199.921875 262.386719 " fill-opacity="1" fill-rule="nonzero"/><path fill="#3a2618" d="M 63.433594 231.503906 C 63.433594 232.289062 63.351562 233.070312 63.203125 233.835938 C 63.046875 234.601562 62.824219 235.351562 62.519531 236.078125 C 62.222656 236.800781 61.851562 237.484375 61.417969 238.136719 C 60.980469 238.785156 60.484375 239.386719 59.933594 239.949219 C 59.382812 240.5 58.78125 240.992188 58.121094 241.429688 C 57.472656 241.867188 56.789062 242.230469 56.0625 242.535156 C 55.335938 242.832031 54.589844 243.0625 53.820312 243.210938 C 53.054688 243.367188 52.273438 243.441406 51.492188 243.441406 C 50.707031 243.441406 49.933594 243.367188 49.160156 243.210938 C 48.394531 243.0625 47.644531 242.832031 46.917969 242.535156 C 46.195312 242.230469 45.511719 241.867188 44.859375 241.429688 C 44.210938 240.992188 43.601562 240.5 43.046875 239.949219 C 42.496094 239.386719 42 238.785156 41.566406 238.136719 C 41.128906 237.484375 40.757812 236.800781 40.460938 236.078125 C 40.15625 235.351562 39.933594 234.601562 39.777344 233.835938 C 39.628906 233.070312 39.546875 232.289062 39.546875 231.503906 C 39.546875 230.722656 39.628906 229.949219 39.777344 229.183594 C 39.933594 228.40625 40.15625 227.667969 40.460938 226.941406 C 40.757812 226.214844 41.128906 225.523438 41.566406 224.875 C 42 224.222656 42.496094 223.621094 43.046875 223.070312 C 43.601562 222.511719 44.210938 222.015625 44.859375 221.585938 C 45.511719 221.152344 46.195312 220.78125 46.917969 220.484375 C 47.644531 220.179688 48.394531 219.957031 49.160156 219.800781 C 49.933594 219.652344 50.707031 219.570312 51.492188 219.570312 C 52.273438 219.570312 53.054688 219.652344 53.820312 219.800781 C 54.589844 219.957031 55.335938 220.179688 56.0625 220.484375 C 56.789062 220.78125 57.472656 221.152344 58.121094 221.585938 C 58.78125 222.015625 59.382812 222.511719 59.933594 223.070312 C 60.484375 223.621094 60.980469 224.222656 61.417969 224.875 C 61.851562 225.523438 62.222656 226.214844 62.519531 226.941406 C 62.824219 227.667969 63.046875 228.40625 63.203125 229.183594 C 63.351562 229.949219 63.433594 230.722656 63.433594 231.503906 Z M 63.433594 231.503906 " fill-opacity="1" fill-rule="nonzero"/><path fill="#3a2618" d="M 431.078125 231.496094 C 431.078125 232.277344 431.003906 233.054688 430.847656 233.828125 C 430.691406 234.59375 430.46875 235.34375 430.164062 236.066406 C 429.867188 236.785156 429.496094 237.476562 429.0625 238.128906 C 428.632812 238.777344 428.140625 239.378906 427.578125 239.941406 C 427.027344 240.492188 426.425781 240.984375 425.773438 241.421875 C 425.117188 241.859375 424.433594 242.222656 423.707031 242.527344 C 422.984375 242.824219 422.234375 243.054688 421.46875 243.203125 C 420.699219 243.359375 419.917969 243.433594 419.136719 243.433594 C 418.351562 243.433594 417.578125 243.359375 416.804688 243.203125 C 416.039062 243.054688 415.289062 242.824219 414.5625 242.527344 C 413.847656 242.222656 413.15625 241.859375 412.503906 241.421875 C 411.855469 240.984375 411.246094 240.492188 410.691406 239.941406 C 410.140625 239.378906 409.648438 238.777344 409.210938 238.128906 C 408.773438 237.476562 408.402344 236.785156 408.105469 236.066406 C 407.800781 235.34375 407.578125 234.59375 407.421875 233.828125 C 407.273438 233.054688 407.199219 232.277344 407.199219 231.496094 C 407.199219 230.714844 407.273438 229.941406 407.421875 229.164062 C 407.578125 228.398438 407.800781 227.660156 408.105469 226.933594 C 408.402344 226.207031 408.773438 225.515625 409.210938 224.867188 C 409.648438 224.214844 410.140625 223.613281 410.691406 223.0625 C 411.246094 222.5 411.855469 222.007812 412.503906 221.570312 C 413.15625 221.144531 413.847656 220.773438 414.5625 220.476562 C 415.289062 220.171875 416.039062 219.949219 416.804688 219.792969 C 417.578125 219.644531 418.351562 219.5625 419.136719 219.5625 C 419.917969 219.5625 420.699219 219.644531 421.46875 219.792969 C 422.234375 219.949219 422.984375 220.171875 423.707031 220.476562 C 424.433594 220.773438 425.117188 221.144531 425.773438 221.570312 C 426.425781 222.007812 427.027344 222.5 427.578125 223.0625 C 428.140625 223.613281 428.632812 224.214844 429.0625 224.867188 C 429.496094 225.515625 429.867188 226.207031 430.164062 226.933594 C 430.46875 227.660156 430.691406 228.398438 430.847656 229.164062 C 431.003906 229.941406 431.078125 230.714844 431.078125 231.496094 Z M 431.078125 231.496094 " fill-opacity="1" fill-rule="nonzero"/><path fill="#3a2618" d="M 52.296875 269.839844 C 52.296875 270.558594 52.222656 271.273438 52.085938 271.980469 C 51.945312 272.691406 51.738281 273.382812 51.457031 274.050781 C 51.1875 274.714844 50.839844 275.351562 50.445312 275.953125 C 50.042969 276.546875 49.589844 277.105469 49.078125 277.617188 C 48.566406 278.125 48.007812 278.578125 47.40625 278.984375 C 46.804688 279.386719 46.167969 279.726562 45.503906 279.996094 C 44.835938 280.277344 44.152344 280.484375 43.445312 280.621094 C 42.734375 280.761719 42.019531 280.835938 41.292969 280.835938 C 40.570312 280.835938 39.859375 280.761719 39.152344 280.621094 C 38.445312 280.484375 37.75 280.277344 37.085938 279.996094 C 36.417969 279.726562 35.78125 279.386719 35.179688 278.984375 C 34.582031 278.578125 34.027344 278.125 33.519531 277.617188 C 33.007812 277.105469 32.546875 276.546875 32.148438 275.953125 C 31.746094 275.351562 31.410156 274.714844 31.128906 274.050781 C 30.855469 273.382812 30.644531 272.691406 30.503906 271.980469 C 30.363281 271.273438 30.289062 270.558594 30.289062 269.839844 C 30.289062 269.117188 30.363281 268.398438 30.503906 267.691406 C 30.644531 266.980469 30.855469 266.296875 31.128906 265.632812 C 31.410156 264.964844 31.746094 264.328125 32.148438 263.726562 C 32.546875 263.128906 33.007812 262.574219 33.519531 262.0625 C 34.027344 261.554688 34.582031 261.101562 35.179688 260.695312 C 35.78125 260.292969 36.417969 259.957031 37.085938 259.675781 C 37.75 259.402344 38.445312 259.199219 39.152344 259.050781 C 39.859375 258.910156 40.570312 258.84375 41.292969 258.84375 C 42.019531 258.84375 42.734375 258.910156 43.445312 259.050781 C 44.152344 259.199219 44.835938 259.402344 45.503906 259.675781 C 46.167969 259.957031 46.804688 260.292969 47.40625 260.695312 C 48.007812 261.101562 48.566406 261.554688 49.078125 262.0625 C 49.589844 262.574219 50.042969 263.128906 50.445312 263.726562 C 50.839844 264.328125 51.1875 264.964844 51.457031 265.632812 C 51.738281 266.296875 51.945312 266.980469 52.085938 267.691406 C 52.222656 268.398438 52.296875 269.117188 52.296875 269.839844 Z M 52.296875 269.839844 " fill-opacity="1" fill-rule="nonzero"/><path fill="#3a2618" d="M 435.246094 269.839844 C 435.246094 270.566406 435.171875 271.273438 435.035156 271.988281 C 434.894531 272.699219 434.6875 273.382812 434.40625 274.050781 C 434.136719 274.714844 433.789062 275.351562 433.394531 275.953125 C 432.992188 276.554688 432.539062 277.113281 432.019531 277.625 C 431.507812 278.136719 430.957031 278.589844 430.355469 278.992188 C 429.753906 279.394531 429.117188 279.734375 428.453125 280.003906 C 427.785156 280.285156 427.09375 280.492188 426.382812 280.628906 C 425.675781 280.769531 424.960938 280.84375 424.234375 280.84375 C 423.507812 280.84375 422.792969 280.769531 422.085938 280.628906 C 421.375 280.492188 420.691406 280.285156 420.023438 280.003906 C 419.351562 279.734375 418.714844 279.394531 418.113281 278.992188 C 417.511719 278.589844 416.960938 278.136719 416.449219 277.625 C 415.941406 277.113281 415.476562 276.554688 415.082031 275.953125 C 414.679688 275.351562 414.339844 274.714844 414.0625 274.050781 C 413.78125 273.382812 413.574219 272.699219 413.4375 271.988281 C 413.296875 271.273438 413.222656 270.566406 413.222656 269.839844 C 413.222656 269.117188 413.296875 268.398438 413.4375 267.691406 C 413.574219 266.980469 413.78125 266.296875 414.0625 265.632812 C 414.339844 264.957031 414.679688 264.320312 415.082031 263.71875 C 415.476562 263.128906 415.941406 262.566406 416.449219 262.054688 C 416.960938 261.546875 417.511719 261.09375 418.113281 260.6875 C 418.714844 260.285156 419.351562 259.949219 420.023438 259.667969 C 420.691406 259.394531 421.375 259.179688 422.085938 259.042969 C 422.792969 258.902344 423.507812 258.835938 424.234375 258.835938 C 424.960938 258.835938 425.675781 258.902344 426.382812 259.042969 C 427.09375 259.179688 427.785156 259.394531 428.453125 259.667969 C 429.117188 259.949219 429.753906 260.285156 430.355469 260.6875 C 430.957031 261.09375 431.507812 261.546875 432.019531 262.054688 C 432.539062 262.566406 432.992188 263.128906 433.394531 263.71875 C 433.789062 264.320312 434.136719 264.957031 434.40625 265.632812 C 434.6875 266.296875 434.894531 266.980469 435.035156 267.691406 C 435.171875 268.398438 435.246094 269.117188 435.246094 269.839844 Z M 435.246094 269.839844 " fill-opacity="1" fill-rule="nonzero"/><path fill="#3a2618" d="M 47.183594 311.832031 C 47.183594 312.515625 47.117188 313.183594 46.984375 313.84375 C 46.855469 314.511719 46.65625 315.152344 46.390625 315.777344 C 46.136719 316.40625 45.816406 316.996094 45.445312 317.558594 C 45.066406 318.117188 44.636719 318.636719 44.160156 319.113281 C 43.683594 319.59375 43.164062 320.019531 42.601562 320.398438 C 42.042969 320.769531 41.441406 321.089844 40.824219 321.347656 C 40.199219 321.609375 39.554688 321.800781 38.886719 321.929688 C 38.222656 322.0625 37.554688 322.128906 36.878906 322.128906 C 36.203125 322.128906 35.535156 322.0625 34.867188 321.929688 C 34.203125 321.800781 33.558594 321.609375 32.933594 321.347656 C 32.316406 321.089844 31.714844 320.769531 31.152344 320.398438 C 30.59375 320.019531 30.074219 319.59375 29.597656 319.113281 C 29.117188 318.636719 28.691406 318.117188 28.3125 317.558594 C 27.941406 316.996094 27.621094 316.40625 27.363281 315.777344 C 27.101562 315.152344 26.902344 314.511719 26.773438 313.84375 C 26.640625 313.183594 26.574219 312.515625 26.574219 311.832031 C 26.574219 311.15625 26.640625 310.488281 26.773438 309.832031 C 26.902344 309.164062 27.101562 308.519531 27.363281 307.894531 C 27.621094 307.269531 27.941406 306.675781 28.3125 306.117188 C 28.691406 305.554688 29.117188 305.039062 29.597656 304.558594 C 30.074219 304.082031 30.59375 303.652344 31.152344 303.273438 C 31.714844 302.902344 32.316406 302.582031 32.933594 302.328125 C 33.558594 302.0625 34.203125 301.875 34.867188 301.742188 C 35.535156 301.609375 36.203125 301.542969 36.878906 301.542969 C 37.554688 301.542969 38.222656 301.609375 38.886719 301.742188 C 39.554688 301.875 40.199219 302.0625 40.824219 302.328125 C 41.441406 302.582031 42.042969 302.902344 42.601562 303.273438 C 43.164062 303.652344 43.683594 304.082031 44.160156 304.558594 C 44.636719 305.039062 45.066406 305.554688 45.445312 306.117188 C 45.816406 306.675781 46.136719 307.269531 46.390625 307.894531 C 46.65625 308.519531 46.855469 309.164062 46.984375 309.832031 C 47.117188 310.488281 47.183594 311.15625 47.183594 311.832031 Z M 47.183594 311.832031 " fill-opacity="1" fill-rule="nonzero"/><path fill="#3a2618" d="M 437.109375 311.832031 C 437.109375 312.515625 437.042969 313.183594 436.902344 313.84375 C 436.769531 314.511719 436.582031 315.152344 436.316406 315.777344 C 436.0625 316.40625 435.742188 316.996094 435.371094 317.558594 C 434.992188 318.117188 434.5625 318.636719 434.085938 319.113281 C 433.609375 319.59375 433.089844 320.019531 432.527344 320.398438 C 431.960938 320.769531 431.367188 321.089844 430.75 321.347656 C 430.125 321.609375 429.472656 321.800781 428.8125 321.929688 C 428.148438 322.0625 427.480469 322.128906 426.804688 322.128906 C 426.128906 322.128906 425.453125 322.0625 424.792969 321.929688 C 424.128906 321.800781 423.484375 321.609375 422.859375 321.347656 C 422.234375 321.089844 421.640625 320.769531 421.078125 320.398438 C 420.519531 320.019531 420 319.59375 419.523438 319.113281 C 419.046875 318.636719 418.617188 318.117188 418.238281 317.558594 C 417.859375 316.996094 417.546875 316.40625 417.289062 315.777344 C 417.027344 315.152344 416.828125 314.511719 416.699219 313.84375 C 416.566406 313.183594 416.5 312.515625 416.5 311.832031 C 416.5 311.15625 416.566406 310.488281 416.699219 309.832031 C 416.828125 309.164062 417.027344 308.519531 417.289062 307.894531 C 417.546875 307.269531 417.859375 306.675781 418.238281 306.117188 C 418.617188 305.554688 419.046875 305.039062 419.523438 304.558594 C 420 304.082031 420.519531 303.652344 421.078125 303.273438 C 421.640625 302.902344 422.234375 302.582031 422.859375 302.328125 C 423.484375 302.0625 424.128906 301.875 424.792969 301.742188 C 425.453125 301.609375 426.128906 301.542969 426.804688 301.542969 C 427.480469 301.542969 428.148438 301.609375 428.8125 301.742188 C 429.472656 301.875 430.125 302.0625 430.75 302.328125 C 431.367188 302.582031 431.960938 302.902344 432.527344 303.273438 C 433.089844 303.652344 433.609375 304.082031 434.085938 304.558594 C 434.5625 305.039062 434.992188 305.554688 435.371094 306.117188 C 435.742188 306.675781 436.0625 307.269531 436.316406 307.894531 C 436.582031 308.519531 436.769531 309.164062 436.902344 309.832031 C 437.042969 310.488281 437.109375 311.15625 437.109375 311.832031 Z M 437.109375 311.832031 " fill-opacity="1" fill-rule="nonzero"/></svg>