<svg width="192" height="57" viewBox="0 0 192 57" fill="none" xmlns="http://www.w3.org/2000/svg">
<g clip-path="url(#clip0_57_159)">
<path d="M55.5642 33.0112L48.3364 40.239L48.3129 40.2156L31.4207 57L24.1953 49.7745L41.0875 32.9901L32.3709 24.2746L39.5987 17.0491L48.3364 25.7857L55.5642 33.0112Z" fill="#7B6658"/>
<path d="M14.4437 24.202L23.1933 32.948L15.9655 40.1758L7.22775 31.4391L0 24.2114L24.1411 0L31.3689 7.22779L14.4437 24.202Z" fill="#7B6658"/>
<path d="M74.6108 28.2856C73.1149 28.2856 71.7202 28.0466 70.4266 27.5687C69.1518 27.072 68.044 26.3738 67.1008 25.4718C66.1577 24.5698 65.4191 23.5108 64.8829 22.2972C64.3654 21.0836 64.1067 19.7481 64.1067 18.2956C64.1067 16.843 64.3654 15.5075 64.8829 14.2939C65.4191 13.0803 66.1577 12.0213 67.1008 11.1193C68.0604 10.2173 69.18 9.52849 70.4548 9.0482C71.7296 8.55151 73.1243 8.30316 74.639 8.30316C76.3207 8.30316 77.8354 8.59837 79.1831 9.18643C80.5497 9.75575 81.6951 10.6039 82.6194 11.7261L79.7382 14.3759C79.0726 13.6215 78.3341 13.0592 77.5203 12.6914C76.7065 12.3048 75.8197 12.1127 74.8601 12.1127C73.9546 12.1127 73.1243 12.2603 72.367 12.5555C71.6096 12.8507 70.9534 13.2724 70.3983 13.8253C69.8433 14.3783 69.4105 15.0296 69.0953 15.7863C68.799 16.5407 68.6508 17.3771 68.6508 18.2979C68.6508 19.2187 68.799 20.0551 69.0953 20.8095C69.4105 21.5639 69.8433 22.2175 70.3983 22.7681C70.9534 23.321 71.6073 23.7428 72.367 24.038C73.1243 24.3332 73.9546 24.4808 74.8601 24.4808C75.8197 24.4808 76.7065 24.2957 77.5203 23.9278C78.3341 23.5413 79.0726 22.9626 79.7382 22.1894L82.6194 24.8392C81.6951 25.9615 80.5497 26.8166 79.1831 27.407C77.8354 27.9951 76.3113 28.2903 74.6108 28.2903V28.2856ZM98.9518 8.63117H103.442V27.9529H98.9518V8.63117ZM90.1388 27.9529H85.6488V8.63117H90.1388V27.9529ZM99.2835 20.0316H89.8072V16.2502H99.2835V20.0316ZM105.481 27.9529L114.127 8.63117H118.561L127.235 27.9529H122.524L115.43 10.8944H117.204L110.082 27.9529H105.481ZM109.804 23.813L110.997 20.4182H120.971L122.19 23.813H109.804ZM138.259 28.2856C136.763 28.2856 135.368 28.0466 134.075 27.5687C132.8 27.072 131.692 26.3738 130.749 25.4718C129.806 24.5698 129.067 23.5108 128.531 22.2972C128.013 21.0836 127.755 19.7481 127.755 18.2956C127.755 16.843 128.013 15.5075 128.531 14.2939C129.067 13.0803 129.806 12.0213 130.749 11.1193C131.708 10.2173 132.828 9.52849 134.103 9.0482C135.378 8.55151 136.772 8.30316 138.287 8.30316C139.969 8.30316 141.483 8.59837 142.831 9.18643C144.198 9.75575 145.343 10.6039 146.267 11.7261L143.386 14.3759C142.721 13.6215 141.982 13.0592 141.168 12.6914C140.354 12.3048 139.468 12.1127 138.508 12.1127C137.603 12.1127 136.772 12.2603 136.015 12.5555C135.258 12.8507 134.601 13.2724 134.049 13.8253C133.494 14.3783 133.061 15.0296 132.746 15.7863C132.449 16.5407 132.301 17.3771 132.301 18.2979C132.301 19.2187 132.449 20.0551 132.746 20.8095C133.058 21.5639 133.494 22.2175 134.049 22.7681C134.604 23.321 135.26 23.7428 136.015 24.038C136.772 24.3332 137.605 24.4808 138.508 24.4808C139.468 24.4808 140.354 24.2957 141.168 23.9278C141.982 23.5413 142.721 22.9626 143.386 22.1894L146.267 24.8392C145.343 25.9615 144.198 26.8166 142.831 27.407C141.483 27.9951 139.959 28.2903 138.259 28.2903V28.2856ZM146.371 27.9553L155.017 8.63351H159.45L168.125 27.9553H163.414L156.32 10.8967H158.093L150.971 27.9553H146.371ZM150.694 23.8154L151.886 20.4206H161.861L163.08 23.8154H150.692H150.694ZM170.138 27.9553V8.63117H173.852L182.11 22.2667H180.141L188.26 8.63117H191.946L192 27.9529H187.788L187.759 15.0624H188.536L182.051 25.9099H180.028L173.405 15.0624H174.348V27.9529H170.136L170.138 27.9553Z" fill="#7B6658"/>
<path d="M83.0944 48.5703V34.9159H77.793V33.5407H89.9929V34.9159H84.6914V48.5703H83.0968H83.0944ZM92.5401 48.5703V33.5407H98.1873C99.4668 33.5407 100.565 33.7492 101.485 34.1639C102.404 34.5645 103.108 35.1502 103.597 35.9234C104.1 36.6825 104.352 37.6056 104.352 38.6927C104.352 39.7798 104.1 40.6677 103.597 41.4409C103.108 42.2 102.404 42.7857 101.485 43.2004C100.565 43.601 99.4668 43.8025 98.1873 43.8025H93.4245L94.1348 43.0739V48.5703H92.5401ZM102.842 48.5703L98.9635 43.116H100.688L104.59 48.5703H102.844H102.842ZM94.1348 43.2027L93.4245 42.4507H98.145C99.655 42.4507 100.796 42.1227 101.572 41.4643C102.362 40.806 102.757 39.8829 102.757 38.695C102.757 37.5072 102.362 36.563 101.572 35.9046C100.796 35.2463 99.6526 34.9183 98.145 34.9183H93.4245L94.1348 34.1662V43.2051V43.2027ZM105.702 48.5703L112.598 33.5407H114.172L121.068 48.5703H119.386L113.05 34.4638H113.697L107.36 48.5703H105.7H105.702ZM108.419 44.5546L108.894 43.266H117.667L118.142 44.5546H108.421H108.419ZM123.566 48.5703V33.5407H129.709C131.318 33.5407 132.727 33.864 133.933 34.5059C135.154 35.1362 136.104 36.0148 136.779 37.1464C137.454 38.278 137.793 39.5783 137.793 41.0543C137.793 42.5303 137.454 43.8306 136.779 44.9622C136.104 46.0938 135.156 46.9795 133.933 47.6237C132.727 48.254 131.318 48.5679 129.709 48.5679H123.566V48.5703ZM125.16 47.1973H129.622C130.958 47.1973 132.115 46.9396 133.091 46.4242C134.084 45.8947 134.851 45.1707 135.396 44.2547C135.942 43.3246 136.215 42.2585 136.215 41.0566C136.215 39.8547 135.942 38.7747 135.396 37.8586C134.851 36.9425 134.081 36.228 133.091 35.7125C132.115 35.183 130.958 34.9183 129.622 34.9183H125.16V47.1997V47.1973ZM141.373 48.5703V33.5407H142.967V48.5703H141.373ZM147.876 48.5703V33.5407H149.191L159.601 46.5929H158.912V33.5407H160.485V48.5703H159.17L148.782 35.5157H149.471V48.5703H147.876ZM172.027 48.6991C170.876 48.6991 169.813 48.514 168.837 48.1415C167.875 47.7549 167.033 47.2184 166.316 46.532C165.613 45.8455 165.058 45.0372 164.655 44.1047C164.267 43.1746 164.074 42.1578 164.074 41.0566C164.074 39.9555 164.27 38.9387 164.655 38.0086C165.058 37.0784 165.617 36.2701 166.337 35.5837C167.054 34.8972 167.896 34.3677 168.858 33.9952C169.835 33.6086 170.898 33.4165 172.048 33.4165C173.198 33.4165 174.247 33.5946 175.195 33.953C176.157 34.3115 176.978 34.855 177.653 35.5837L176.662 36.5935C176.03 35.9632 175.334 35.5134 174.571 35.2416C173.809 34.9698 172.991 34.8339 172.114 34.8339C171.18 34.8339 170.317 34.9909 169.526 35.3072C168.75 35.6071 168.068 36.0452 167.478 36.6169C166.904 37.1745 166.45 37.8328 166.121 38.5919C165.806 39.337 165.646 40.1593 165.646 41.0613C165.646 41.9633 165.803 42.7716 166.121 43.5307C166.452 44.2898 166.904 44.9552 167.478 45.5269C168.066 46.0845 168.75 46.5226 169.526 46.8365C170.317 47.1364 171.17 47.2864 172.09 47.2864C172.951 47.2864 173.765 47.1575 174.524 46.8998C175.301 46.6421 176.011 46.2063 176.658 45.5901L177.563 46.792C176.846 47.4223 176.004 47.9002 175.042 48.2306C174.08 48.5445 173.073 48.7038 172.024 48.7038L172.027 48.6991ZM176.034 46.5952V41.0566H177.566V46.7897L176.034 46.5952Z" fill="#7B6658"/>
</g>
<defs>
<clipPath id="clip0_57_159">
<rect width="192" height="57" fill="white"/>
</clipPath>
</defs>
</svg>
