<svg width="159" height="54" viewBox="0 0 159 54" fill="none" xmlns="http://www.w3.org/2000/svg">
<g clip-path="url(#clip0_643_748)">
<path d="M12.4578 7.80551C12.4728 7.7109 12.5226 7.608 12.6057 7.4968C12.6887 7.3856 12.7917 7.2827 12.913 7.1881C13.0343 7.0935 13.1639 7.01881 13.3001 6.96238C13.4363 6.90761 13.5659 6.87939 13.6872 6.87939H19.5265C19.784 6.87939 20.005 6.96238 20.1877 7.12835C20.3704 7.29432 20.5067 7.44037 20.598 7.56651L21.1679 8.91917L33.1439 41.0443C33.2652 41.3613 33.242 41.6186 33.0758 41.8161C32.908 42.0136 32.619 42.1132 32.2086 42.1132H25.6616C25.3111 42.1132 25.0419 42.0468 24.8525 41.9107C24.6615 41.7762 24.5136 41.5505 24.4073 41.2352C24.1033 40.4286 23.8059 39.6253 23.5185 38.827C23.2295 38.0286 22.9404 37.2254 22.6514 36.4187H10.5407C10.2517 37.2254 9.95927 38.0286 9.66191 38.827C9.36454 39.6253 9.07215 40.4286 8.78309 41.2352C8.5854 41.8211 8.19833 42.1132 7.62021 42.1132H0.89207C0.60301 42.1132 0.363787 42.0335 0.174402 41.8758C-0.0149822 41.7182 -0.0498688 41.4808 0.0714038 41.1638L12.4578 7.80551ZM16.6093 17.9596C16.3203 18.7662 16.0279 19.6358 15.7305 20.5686C15.4348 21.5014 15.1408 22.4424 14.8517 23.3918C14.5626 24.3411 14.2703 25.2788 13.9729 26.2033C13.6755 27.1277 13.3831 27.9941 13.0941 28.8007H20.0963L16.606 17.9579L16.6093 17.9596Z" fill="#7B6658"/>
<path d="M41.0848 32.7427C41.4952 33.1692 41.9404 33.5294 42.4188 33.8215C42.8973 34.1152 43.3574 34.3509 43.7993 34.5335C44.2396 34.716 44.6283 34.8455 44.9622 34.9252C45.2961 35.0048 45.5254 35.043 45.6467 35.043C45.9357 35.043 46.3045 35.0314 46.7531 35.0081C47.2016 34.9849 47.6319 34.9135 48.0422 34.7941C48.4526 34.6762 48.8064 34.482 49.1021 34.2132C49.3995 33.9443 49.5473 33.5642 49.5473 33.0746C49.5473 32.6315 49.4643 32.2796 49.2965 32.019C49.1287 31.7585 48.8861 31.5361 48.5672 31.3552C48.2482 31.1742 47.8562 31.0116 47.3927 30.8689C46.9292 30.7261 46.4075 30.5602 45.8294 30.3709C44.0053 29.8647 42.4986 29.2556 41.3124 28.5436C40.1263 27.8316 39.1877 27.0366 38.4949 26.1586C37.8022 25.2806 37.3204 24.3363 37.0463 23.3239C36.7722 22.3114 36.6359 21.2443 36.6359 20.1206C36.6359 18.8078 36.8868 17.6145 37.3885 16.5373C37.8902 15.4619 38.6046 14.5407 39.5332 13.7739C40.4602 13.0072 41.5716 12.413 42.864 11.9947C44.1565 11.5765 45.5935 11.3657 47.175 11.3657C48.1336 11.3657 49.0307 11.4487 49.8663 11.6147C50.7019 11.7806 51.501 12.0412 52.2618 12.3981C53.0227 12.7532 53.7636 13.213 54.4863 13.7739C55.2089 14.3349 55.9266 15.0038 56.6426 15.7789C56.9018 16.0959 57.0347 16.3913 57.0413 16.6685C57.0496 16.9456 56.8785 17.2427 56.528 17.5581C55.9349 18.0643 55.3684 18.5622 54.8285 19.0535C54.2886 19.5431 53.7304 20.0891 53.1523 20.6899C52.9695 20.8476 52.7868 20.9472 52.6041 20.987C52.4213 21.0268 52.2469 21.0219 52.0791 20.9754C51.9113 20.9273 51.7518 20.8492 51.6007 20.738C51.4478 20.6268 51.3116 20.4924 51.1903 20.3347C50.6571 19.7173 50.049 19.3024 49.3646 19.0883C48.6801 18.8742 48.0422 18.768 47.4491 18.768C46.7032 18.768 46.1102 18.9024 45.6699 19.1713C45.228 19.4402 45.0237 19.8518 45.0536 20.4044C45.0835 20.8161 45.2314 21.1364 45.4988 21.3654C45.7646 21.5945 46.0919 21.7803 46.479 21.9231C46.866 22.0658 47.2764 22.1803 47.71 22.2666C48.1436 22.3546 48.5423 22.4525 48.9077 22.5637C50.2766 23.0235 51.5309 23.5214 52.6722 24.0591C53.8135 24.5969 54.8003 25.2574 55.6375 26.0408C56.4732 26.8242 57.1244 27.7602 57.5879 28.8523C58.0514 29.9444 58.2839 31.2722 58.2839 32.8389C58.2839 34.4057 57.9833 35.8048 57.3835 37.038C56.7822 38.2711 55.9582 39.3084 54.9082 40.1466C53.8583 40.9847 52.6157 41.6254 51.1787 42.0685C49.7417 42.5117 48.1934 42.7324 46.5371 42.7324C45.5935 42.7324 44.6366 42.6461 43.6631 42.4718C42.6896 42.2976 41.7477 42.0171 40.834 41.6304C39.9219 41.2436 39.0548 40.7441 38.2341 40.135C37.4134 39.5259 36.6825 38.7873 36.0445 37.9159C35.8767 37.6952 35.7522 37.4612 35.6674 37.2156C35.5844 36.9699 35.5462 36.7293 35.5528 36.4919C35.5611 36.2546 35.606 36.0372 35.689 35.8397C35.7721 35.6422 35.905 35.4712 36.0877 35.3301L39.0298 32.2696C39.3953 31.9543 39.7176 31.8431 40 31.9377C40.2808 32.0323 40.6429 32.3012 41.0832 32.7443L41.0848 32.7427Z" fill="#7B6658"/>
<path d="M63.1415 1.82733C63.1415 1.16345 63.2777 0.692095 63.5518 0.414925C63.8259 0.137755 64.2512 0 64.8293 0H70.1221C70.6537 0 71.084 0.139415 71.4113 0.414925C71.7385 0.692095 71.9014 1.16179 71.9014 1.82733V6.45457C71.9014 6.64378 71.8598 6.84958 71.7768 7.07198C71.6937 7.29438 71.5757 7.50682 71.4229 7.71263C71.2701 7.91843 71.084 8.08938 70.8647 8.22215C70.6438 8.35659 70.3979 8.42464 70.1238 8.42464H64.831C63.7047 8.42464 63.1431 7.76906 63.1431 6.45457V1.82733H63.1415Z" fill="#7B6658"/>
<path d="M63.1415 13.832C63.1415 13.3258 63.2777 12.891 63.5518 12.5275C63.8259 12.164 64.2512 11.9814 64.8293 11.9814H70.0524C70.2351 11.9814 70.4328 12.0246 70.6454 12.1126C70.8581 12.1989 71.0558 12.3267 71.2385 12.4926C71.4212 12.6586 71.5774 12.8528 71.7053 13.0735C71.8349 13.2959 71.8997 13.5482 71.8997 13.832V40.286C71.8997 40.8868 71.7402 41.3415 71.4212 41.6502C71.1023 41.9589 70.6454 42.1133 70.0524 42.1133H64.8293C63.703 42.1133 63.1415 41.5042 63.1415 40.286V13.832Z" fill="#7B6658"/>
<path d="M77.9683 12.4062C78.166 12.2319 78.3753 12.1223 78.5963 12.0742C78.8172 12.0261 79.0265 12.0028 79.2242 12.0028H82.668C82.9422 12.0028 83.1781 12.0543 83.3757 12.1572C83.5734 12.2601 83.7412 12.3979 83.8774 12.5721C84.0137 12.7464 84.125 12.9422 84.208 13.1646C84.2911 13.3854 84.3708 13.6144 84.4473 13.8501L84.9257 15.9314C85.1533 15.4434 85.5221 14.9372 86.0321 14.4177C86.5421 13.8966 87.1734 13.4236 87.926 12.9987C88.6785 12.5738 89.549 12.2219 90.5375 11.9464C91.5259 11.6709 92.629 11.5315 93.8451 11.5315C95.5794 11.5315 97.1261 11.8784 98.4866 12.5721C99.8472 13.2659 101.003 14.2119 101.954 15.4119C102.904 16.6102 103.627 18.011 104.12 19.6142C104.613 21.2175 104.861 22.9287 104.861 24.7477V40.2875C104.861 40.8883 104.735 41.343 104.484 41.6517C104.233 41.9604 103.834 42.1148 103.286 42.1148H98.0165C97.362 42.1148 96.9134 42.0003 96.6709 41.7712C96.4267 41.5422 96.3054 41.0957 96.3054 40.4302V24.985C96.3054 24.3045 96.1575 23.6606 95.8602 23.0515C95.5628 22.4424 95.1724 21.9046 94.6857 21.4382C94.1989 20.9719 93.6474 20.6034 93.0327 20.3345C92.4164 20.0657 91.7901 19.9312 91.1505 19.9312C90.6023 19.9312 90.0441 20.0574 89.4743 20.3113C88.9045 20.5652 88.3795 20.9171 87.901 21.3669C87.4226 21.8183 87.0189 22.3478 86.6916 22.9569C86.3644 23.566 86.1783 24.2265 86.1334 24.9385V40.3605C86.1334 40.6294 86.0836 40.8982 85.9856 41.1671C85.8859 41.436 85.7381 41.6418 85.5404 41.7845C85.3427 41.9106 85.1566 41.9986 84.9822 42.0451C84.8078 42.0932 84.6051 42.1164 84.3775 42.1164H79.2226C78.568 42.1164 78.0962 41.9505 77.8088 41.6185C77.5198 41.2866 77.3752 40.8435 77.3752 40.2891V13.7555C77.3752 13.4567 77.44 13.1796 77.5696 12.9273C77.6992 12.675 77.8769 12.4775 78.1062 12.3348L77.97 12.4062H77.9683Z" fill="#7B6658"/>
<path d="M113.096 12.4079C113.096 10.9374 113.4 9.55317 114.008 8.25528C114.616 6.95905 115.43 5.82382 116.448 4.85124C117.467 3.87865 118.638 3.11187 119.962 2.54923C121.284 1.98825 122.668 1.70776 124.113 1.70776H124.57C125.087 1.70776 125.486 1.87041 125.768 2.19406C126.049 2.5177 126.19 2.96582 126.19 3.53509V8.06607C126.19 8.65195 126.042 9.13824 125.745 9.52495C125.447 9.91332 125.057 10.1058 124.57 10.1058H124.113C123.794 10.1058 123.489 10.1656 123.201 10.2834C122.912 10.4013 122.653 10.5639 122.426 10.7697C122.198 10.9755 122.015 11.2162 121.879 11.4934C121.743 11.7705 121.673 12.0743 121.673 12.4062V15.1347H125.255C125.771 15.1347 126.17 15.2808 126.452 15.5729C126.733 15.865 126.874 16.3281 126.874 16.9604V21.3022C126.874 21.9827 126.733 22.4806 126.452 22.7976C126.17 23.1146 125.771 23.2722 125.255 23.2722H121.673V40.2842C121.673 40.885 121.479 41.3397 121.092 41.6484C120.704 41.9572 120.282 42.1115 119.826 42.1115H114.898C114.35 42.1115 113.913 41.9339 113.586 41.5771C113.259 41.2219 113.096 40.7904 113.096 40.2842V23.2722H110.747C110.214 23.2722 109.785 23.1146 109.458 22.7976C109.13 22.4806 108.968 21.9827 108.968 21.3022V16.9604C108.968 16.3281 109.13 15.865 109.458 15.5729C109.785 15.2808 110.214 15.1347 110.747 15.1347H113.096V12.4062V12.4079Z" fill="#7B6658"/>
<path d="M128.356 14.2586C128.112 13.6263 128.109 13.0835 128.345 12.6337C128.581 12.1823 129.1 11.9583 129.908 11.9583H135.543C135.923 11.9583 136.234 12.0811 136.478 12.3267C136.721 12.5723 136.903 12.8761 137.026 13.2395L143.482 32.3394L149.8 13.2395C149.968 12.7333 150.18 12.3931 150.438 12.2188C150.697 12.0446 151.054 11.9583 151.509 11.9583H157.372C157.797 11.9583 158.133 12.018 158.375 12.1358C158.618 12.2537 158.789 12.413 158.889 12.6105C158.987 12.808 159.022 13.0304 158.992 13.2744C158.962 13.52 158.9 13.7607 158.809 13.998C158.231 15.4851 157.6 17.11 156.915 18.8742C156.231 20.6385 155.52 22.4725 154.782 24.3794C154.044 26.2848 153.295 28.2233 152.534 30.1917C151.773 32.1601 151.033 34.0953 150.31 35.9924C149.587 37.8911 148.891 39.7134 148.223 41.4611C147.554 43.2087 146.943 44.8137 146.388 46.2775C145.833 47.7397 145.349 49.026 144.939 50.133C144.529 51.24 144.216 52.0948 144.004 52.6956L144.072 52.5778C143.966 53.0043 143.774 53.3495 143.502 53.6101C143.23 53.8707 142.894 54.0018 142.499 54.0018H137.229C136.545 54.0018 136.078 53.8624 135.827 53.5868C135.576 53.3097 135.45 52.9031 135.45 52.3653C135.45 52.1595 135.476 52.0018 135.53 51.8906C135.583 51.7794 135.624 51.7081 135.654 51.6765L139.236 41.9972L128.355 14.2619L128.356 14.2586Z" fill="#7B6658"/>
</g>
<defs>
<clipPath id="clip0_643_748">
<rect width="159" height="54" fill="white"/>
</clipPath>
</defs>
</svg>
